<svg id="Layer_1" data-name="Layer 1" xmlns="http://www.w3.org/2000/svg" xmlns:xlink="http://www.w3.org/1999/xlink" viewBox="0 0 1441.24 487.24"><defs><style>.cls-1{fill:none;}.cls-2{clip-path:url(#clip-path);}.cls-3{fill:#fff200;}.cls-4{fill:#f7e218;}.cls-5{fill:#7853a2;}</style><clipPath id="clip-path" transform="translate(0.91 -25.09)"><rect class="cls-1" x="514.77" y="-181.97" width="626.38" height="715.3" transform="translate(489.14 951.3) rotate(-78.38)"/></clipPath></defs><title>pko-logo-rectangle</title><g class="cls-2"><rect class="cls-3" x="742.26" y="211.42" width="12.08" height="1.65" transform="translate(362.27 861.89) rotate(-76)"/><polygon class="cls-3" points="734.68 186.9 733.48 185.79 742.82 176.32 744.01 177.43 734.68 186.9"/><polygon class="cls-3" points="737.01 195.8 733.5 186.34 735.04 185.81 738.56 195.28 737.01 195.8"/><polygon class="cls-3" points="738.05 196.3 737.52 194.79 747.86 191.56 748.39 193.07 738.05 196.3"/><polygon class="cls-3" points="734.9 202.38 733.45 201.61 737.06 195.16 738.5 195.93 734.9 202.38"/><polygon class="cls-3" points="727.58 175.77 726.94 174.31 738.77 169.58 739.42 171.04 727.58 175.77"/><polygon class="cls-3" points="723.5 184.5 726.47 174.81 728.05 175.27 725.08 184.97 723.5 184.5"/><polygon class="cls-3" points="724.2 185.53 724.38 183.95 734.78 185.17 734.6 186.75 724.2 185.53"/><polygon class="cls-3" points="719.17 188.53 718.33 187.15 723.87 184.05 724.71 185.43 719.17 188.53"/><polygon class="cls-3" points="725.11 165.12 725.07 163.54 737.58 163.47 737.61 165.06 725.11 165.12"/><polygon class="cls-3" points="721.64 171.44 720.26 170.55 724.91 163.74 726.28 164.63 721.64 171.44"/><polygon class="cls-3" points="726.82 175.7 720.5 171.65 721.39 170.33 727.71 174.38 726.82 175.7"/><polygon class="cls-3" points="717.33 172.25 717.09 170.67 720.83 170.21 721.06 171.78 717.33 172.25"/><polygon class="cls-3" points="725.78 154.35 726.3 152.85 739.56 157.36 739.03 158.85 725.78 154.35"/><polygon class="cls-3" points="720.98 158.42 720.02 157.12 725.96 153.04 726.93 154.34 720.98 158.42"/><polygon class="cls-3" points="725.18 164.69 719.79 158.46 721.05 157.45 726.44 163.7 725.18 164.69"/><polygon class="cls-3" points="716.06 158.48 716.1 156.9 720.77 157.08 720.74 158.66 716.06 158.48"/><polygon class="cls-3" points="725.63 153.69 725.52 144.96 727.16 144.96 727.27 153.7 725.63 153.69"/><polygon class="cls-3" points="726.44 145.75 726.24 144.17 734.17 143.32 734.38 144.9 726.44 145.75"/><polygon class="cls-3" points="743.37 153.5 733.71 144.68 734.83 143.54 744.48 152.35 743.37 153.5"/><polygon class="cls-3" points="725.91 145.63 722.72 143.7 723.57 142.36 726.77 144.29 725.91 145.63"/><polygon class="cls-3" points="736.82 137.56 733.86 134.01 735.14 133.02 738.1 136.57 736.82 137.56"/><polygon class="cls-3" points="735.02 144.44 733.51 143.79 736.71 136.74 738.21 137.39 735.02 144.44"/><polygon class="cls-3" points="737.38 137.85 737.54 136.28 746.07 137.16 745.92 138.74 737.38 137.85"/><polygon class="cls-3" points="749.15 148.99 745.22 138.21 746.77 137.7 750.7 148.48 749.15 148.99"/><polygon class="cls-3" points="746.55 138.54 745.44 137.36 751.1 132.39 752.21 133.57 746.55 138.54"/><polygon class="cls-3" points="757.52 137.26 751.24 133.65 752.07 132.3 758.34 135.91 757.52 137.26"/><polygon class="cls-3" points="750.84 133.01 750.62 129.29 752.26 129.23 752.48 132.94 750.84 133.01"/><polygon class="cls-3" points="756.58 147.85 757.28 136.31 758.92 136.43 758.22 147.97 756.58 147.85"/><polygon class="cls-3" points="758.29 137.31 757.57 135.87 765.29 132.36 766 133.8 758.29 137.31"/><polygon class="cls-3" points="764.95 132.98 766.09 128.87 767.67 129.31 766.54 133.41 764.95 132.98"/><polygon class="cls-3" points="769.16 140.29 765.24 133.22 766.68 132.49 770.61 139.57 769.16 140.29"/><polygon class="cls-3" points="765.74 150.73 764.25 150.06 769.14 139.59 770.64 140.26 765.74 150.73"/><polygon class="cls-3" points="769.92 140.72 769.86 139.13 778.85 138.93 778.91 140.52 769.92 140.72"/><polygon class="cls-3" points="779.53 140.23 778.25 139.21 781.77 135.08 783.04 136.1 779.53 140.23"/><polygon class="cls-3" points="778.87 149.5 778.07 139.77 779.71 139.67 780.5 149.4 778.87 149.5"/><polygon class="cls-3" points="772.21 155.23 771.28 153.91 779.23 148.79 780.15 150.11 772.21 155.23"/><polygon class="cls-3" points="785.53 154.22 779.24 150.1 780.14 148.8 786.43 152.91 785.53 154.22"/><rect class="cls-3" x="779.76" y="181.88" width="8.83" height="1.65" transform="translate(429.04 879.8) rotate(-76.87)"/><polygon class="cls-3" points="786.28 154.3 785.67 152.82 789.63 151.36 790.24 152.84 786.28 154.3"/><polygon class="cls-3" points="774.89 163.64 774.73 162.07 784.23 161.28 784.39 162.87 774.89 163.64"/><polygon class="cls-3" points="787.72 169.3 783.39 162.47 784.79 161.66 789.11 168.48 787.72 169.3"/><polygon class="cls-3" points="781.7 175.3 773.91 171.76 774.6 170.33 782.38 173.87 781.7 175.3"/><polygon class="cls-3" points="782.62 175.16 781.47 174.02 787.51 168.4 788.67 169.56 782.62 175.16"/><polygon class="cls-3" points="788.04 169.5 788.19 167.93 791.71 168.28 791.56 169.86 788.04 169.5"/><polygon class="cls-3" points="774.52 187.14 767.16 179.08 768.38 178.04 775.75 186.1 774.52 187.14"/><polygon class="cls-3" points="781.35 182.04 781.4 174.28 783.04 174.32 782.99 182.07 781.35 182.04"/><polygon class="cls-3" points="774.65 186.93 773.86 185.53 781.84 181.39 782.63 182.8 774.65 186.93"/><polygon class="cls-3" points="787.29 185.96 781.7 182.84 782.5 181.47 788.08 184.59 787.29 185.96"/><path class="cls-3" d="M964.6,286.88l-1.13-2.31c-3.89-7.95-11.13-22.75-19.09-59.77-8.1-34.11-31.46-47.88-50.9-56.07-.87-.37-1.78-.72-2.69-1-17.44-6.31-37.19-3.91-45.61-2.87l-1.54.18c-1.25.15-2.57.35-4,.56-5.82.89-12.4,1.9-18.45-.29a18.42,18.42,0,0,1-4.38-2.28c-.25-.17-.51-.34-.77-.49A3.51,3.51,0,0,1,814,160c-.16-1.2-.05-3.16.73-3.75a.9.9,0,0,1,1-.06,10.84,10.84,0,0,0,1.23.54,53.07,53.07,0,0,0,8.19,1.82c1.05.1,5.75-.66,10.3-1.39,4.09-.66,8.33-1.34,10.71-1.54,3.59-.3,18.62-.62,23.58-.35l1.8,0c6.21.08,25.13.31,44.58,7.34,14.59,5.26,26.39,13.21,35.07,23.62,27.55,33,19,76.42,17,84.78-.58,2.46-1.08,4.52-1.51,6.31-.9,3.72-1.51,6.18-1.9,8.3ZM891.07,166.94c.92.34,1.84.69,2.73,1.07,13,5.48,22.77,11.58,30.67,19.21,10.33,10,17.1,22.22,20.71,37.43,8,36.93,15.16,51.67,19,59.58l0,.08c.38-1.86.92-4.08,1.66-7.14.44-1.79.94-3.86,1.52-6.3,2-8.3,10.43-51.39-16.88-84.11-8.59-10.3-20.26-18.16-34.71-23.38-19.31-7-38.12-7.2-44.3-7.28-.84,0-1.46,0-1.83,0-4.94-.26-19.89.05-23.46.35-2.36.2-6.58.88-10.65,1.54-5,.8-9.36,1.5-10.54,1.38a50.32,50.32,0,0,1-8.37-1.87,9,9,0,0,1-1.36-.58c-.09,0-.1,0-.13,0-.35.27-.62,1.69-.43,3,.13,1,.83,1.38,1.71,1.92.28.16.56.33.83.52a17.77,17.77,0,0,0,4.17,2.17c5.86,2.12,12.33,1.14,18,.26,1.42-.21,2.75-.41,4-.56l1.53-.2c8.49-1,28.37-3.45,46,2.92" transform="translate(0.91 -25.09)"/><path class="cls-3" d="M832.77,165.76c1-1,1.88-2.27,2.81-3.2a21.21,21.21,0,0,1,3.29,2.73c-2,.05-5.11,1-6.1.47" transform="translate(0.91 -25.09)"/><path class="cls-3" d="M843.13,156.44a28.85,28.85,0,0,1,7.12-.65,41.24,41.24,0,0,0-3.61,4.17c-1.07-.68-3-2.2-3.51-3.52" transform="translate(0.91 -25.09)"/><path class="cls-3" d="M854.4,163a30.34,30.34,0,0,1,3.29-3.72,34.48,34.48,0,0,1,3.52,3.52,47.74,47.74,0,0,1-6.81.2" transform="translate(0.91 -25.09)"/><path class="cls-3" d="M866.26,156a18.11,18.11,0,0,1,6.54.12A37.85,37.85,0,0,1,869,159.9a47.15,47.15,0,0,0-2.76-4" transform="translate(0.91 -25.09)"/><path class="cls-3" d="M879.56,164.55a28.33,28.33,0,0,1,3.51-3.51,21.53,21.53,0,0,1,3.18,4.8c-1.56-.14-5-1-6.69-1.29" transform="translate(0.91 -25.09)"/><path class="cls-3" d="M893,157.48a31.37,31.37,0,0,1,8.49,1.52c-.94,1.35-3.26,2.47-5.2,3.74-1-1.33-2.24-3.76-3.29-5.26" transform="translate(0.91 -25.09)"/><path class="cls-3" d="M903.18,172.94a51.29,51.29,0,0,1,5.56-3.54c1,1.92,1.55,5.82,1.59,7.67-1.77-1.49-4.62-2.66-7.15-4.13" transform="translate(0.91 -25.09)"/><path class="cls-3" d="M921.71,165.59c2.68.27,8.53,3.78,11,5.38-2.3.29-6.78.93-9.56,1.32-.3-1.93-1.12-4.82-1.45-6.7" transform="translate(0.91 -25.09)"/><path class="cls-3" d="M923.38,186.76a36.94,36.94,0,0,0,5.6-.71,19.73,19.73,0,0,1,.08,6.82,33.5,33.5,0,0,0-5.68-6.11" transform="translate(0.91 -25.09)"/><path class="cls-3" d="M947.34,182.71a53.87,53.87,0,0,1,6.08,7.17c-2.34-.46-4.83-.78-8.14-1.67a28.62,28.62,0,0,0,2.06-5.5" transform="translate(0.91 -25.09)"/><path class="cls-3" d="M938.33,206.56c.77.14.54-2.84,1.25-2.73a36.47,36.47,0,0,1,5.19,1.18c-.76,2.81-2.57,6.09-3.31,8.06-.82-2.11-2.27-4.52-3.13-6.51" transform="translate(0.91 -25.09)"/><path class="cls-3" d="M962.78,209.41c.31.41,1.32,0,1.57.71,1.4,3.87,2.62,8.68,3.19,10.83-1.39-.22-6.48-2.62-9.83-3.83a67,67,0,0,0,5.07-7.71" transform="translate(0.91 -25.09)"/><path class="cls-3" d="M946.19,231.13c1.88,1,3.4,2.22,5.89,3.4-1.11,3-2.35,3.92-3.9,5.75-.38-2.11-2-6.05-2-9.15" transform="translate(0.91 -25.09)"/><path class="cls-3" d="M967,241.33c.43.75,3,1,3.39,2.07.85,2.66.32,6.39,0,8.68a45.44,45.44,0,0,1-7.65-4.88c.86-1.94,2.91-3.4,4.27-5.87" transform="translate(0.91 -25.09)"/><path class="cls-3" d="M954,258.33c.33,0,.66-.58.92-.57,1.87.14,2.34,1.48,2.64,1.59-.56,1.91-1.46,2.57-2.15,4.43-1.13-1.66-1.94-3.25-1.41-5.45" transform="translate(0.91 -25.09)"/><path class="cls-3" d="M967.28,266.42c.11.37.52,0,.59.39,0,.09.7.27.69.36a30.89,30.89,0,0,1-1.59,7.21c-1.38-.64-1.49-1.26-3.36-2.08,1.25-2.22,3-4.16,3.67-5.88" transform="translate(0.91 -25.09)"/><path class="cls-3" d="M820.14,158.3a51.17,51.17,0,0,0,5.32.61,17.73,17.73,0,0,1-2.77,2.26,18.71,18.71,0,0,1-2.55-2.87" transform="translate(0.91 -25.09)"/><polygon class="cls-3" points="855.57 138.56 854.95 138.02 862.37 130.1 862.99 130.64 855.57 138.56"/><polygon class="cls-3" points="865.47 138.05 860.5 132.72 861.11 132.2 866.08 137.52 865.47 138.05"/><polygon class="cls-3" points="819.94 138.78 819.44 138.15 823.28 135.33 823.79 135.96 819.94 138.78"/><polygon class="cls-3" points="820.86 137.26 817.5 132.43 818.18 131.99 821.53 136.82 820.86 137.26"/><polygon class="cls-3" points="819.47 139.04 814.99 133.11 815.65 132.66 820.13 138.58 819.47 139.04"/><polygon class="cls-3" points="823.91 140.51 823.37 139.9 831.64 132.99 832.18 133.59 823.91 140.51"/><polygon class="cls-3" points="828.23 141.16 827.66 140.57 836.97 132.19 837.54 132.78 828.23 141.16"/><polygon class="cls-3" points="833.38 141.17 832.81 140.59 843.33 131.14 843.89 131.72 833.38 141.17"/><polygon class="cls-3" points="847.84 139.44 841.36 133.88 841.9 133.3 848.38 138.85 847.84 139.44"/><polygon class="cls-3" points="843.38 139.77 839.08 136.01 839.63 135.43 843.93 139.19 843.38 139.77"/><polygon class="cls-3" points="851.63 138.96 843.82 131.87 844.37 131.3 852.18 138.39 851.63 138.96"/><polygon class="cls-3" points="849.79 136.41 849.18 135.85 854.6 130.38 855.2 130.92 849.79 136.41"/><polygon class="cls-3" points="851.81 138.07 851.21 137.52 858.09 130.43 858.69 130.97 851.81 138.07"/><polygon class="cls-3" points="869.09 138.13 863.06 130.96 863.69 130.47 869.72 137.64 869.09 138.13"/><polygon class="cls-3" points="872.64 138.4 867.04 130.74 867.71 130.3 873.31 137.95 872.64 138.4"/><polygon class="cls-3" points="872.4 136.81 871.8 136.28 877.31 130.47 877.92 131.02 872.4 136.81"/><polygon class="cls-3" points="876.06 138.78 875.46 138.22 882.75 130.72 883.36 131.26 876.06 138.78"/><polygon class="cls-3" points="884.39 136.73 883.79 136.18 888.38 131.51 888.98 132.07 884.39 136.73"/><polygon class="cls-3" points="891.47 142.24 886.39 134.25 887.1 133.84 892.16 141.83 891.47 142.24"/><polygon class="cls-3" points="895.81 144.19 888.97 132 889.69 131.63 896.53 143.82 895.81 144.19"/><polygon class="cls-3" points="900.61 146.4 894.12 132.83 894.87 132.5 901.36 146.07 900.61 146.4"/><polygon class="cls-3" points="899.08 141.66 898.63 140.99 908.3 134.88 908.75 135.54 899.08 141.66"/><polygon class="cls-3" points="900.69 144.75 900.23 144.08 912.66 136.35 913.12 137.03 900.69 144.75"/><polygon class="cls-3" points="904.67 148.03 904.22 147.36 918.69 138.43 919.14 139.1 904.67 148.03"/><polygon class="cls-3" points="916.09 155.11 913.83 141.66 914.64 141.54 916.9 154.99 916.09 155.11"/><polygon class="cls-3" points="920.43 158.3 917.61 139.6 918.42 139.49 921.24 158.19 920.43 158.3"/><polygon class="cls-3" points="924.66 161.75 922.8 140.75 923.62 140.69 925.48 161.7 924.66 161.75"/><polygon class="cls-3" points="924.22 151.49 924.08 150.7 938.16 148.63 938.3 149.41 924.22 151.49"/><polygon class="cls-3" points="924.38 156.1 924.25 155.33 943.11 152.66 943.24 153.45 924.38 156.1"/><polygon class="cls-3" points="925.13 162.11 925.01 161.34 948.16 158.06 948.29 158.84 925.13 162.11"/><polygon class="cls-3" points="933.14 172.43 934.2 160.24 935.02 160.32 933.96 172.51 933.14 172.43"/><polygon class="cls-3" points="936.01 176.46 941.01 159.39 941.8 159.61 936.8 176.69 936.01 176.46"/><polygon class="cls-3" points="939.62 181.61 938.85 181.33 947.37 158.67 948.14 158.95 939.62 181.61"/><polygon class="cls-3" points="944.77 167.63 944.99 166.87 958.77 170.83 958.54 171.58 944.77 167.63"/><polygon class="cls-3" points="942.81 172.63 943.02 171.87 962.19 176.87 961.98 177.63 942.81 172.63"/><polygon class="cls-3" points="940.53 178.99 940.74 178.23 965.46 184.68 965.25 185.45 940.53 178.99"/><polygon class="cls-3" points="944.79 195.33 944.07 194.95 951.38 181.5 952.11 181.88 944.79 195.33"/><polygon class="cls-3" points="946.25 201.41 945.56 200.99 956.99 182.94 957.69 183.36 946.25 201.41"/><polygon class="cls-3" points="947.83 207.75 947.15 207.3 963.32 184.58 964 185.03 947.83 207.75"/><polygon class="cls-3" points="969.87 203.74 956.04 196.32 956.42 195.63 970.26 203.05 969.87 203.74"/><polygon class="cls-3" points="970.82 210.88 952.12 201.05 952.5 200.35 971.21 210.18 970.82 210.88"/><polygon class="cls-3" points="971.06 218.23 947.65 207.37 948 206.66 971.4 217.51 971.06 218.23"/><polygon class="cls-3" points="951.41 221.76 950.72 221.31 957.51 211.65 958.19 212.1 951.41 221.76"/><polygon class="cls-3" points="953.32 228.06 952.65 227.6 962.64 213.93 963.31 214.38 953.32 228.06"/><polygon class="cls-3" points="954.98 233.75 954.31 233.27 967.41 216.11 968.08 216.58 954.98 233.75"/><polygon class="cls-3" points="970.6 232.42 960.93 225.29 961.42 224.66 971.09 231.79 970.6 232.42"/><polygon class="cls-3" points="969.92 237.6 958.25 228.95 958.74 228.32 970.42 236.97 969.92 237.6"/><polygon class="cls-3" points="969.23 242.4 955.36 232.6 955.84 231.96 969.71 241.76 969.23 242.4"/><polygon class="cls-3" points="958.16 243.6 957.45 243.19 961.59 236.37 962.29 236.78 958.16 243.6"/><polygon class="cls-3" points="959.85 247.84 959.15 247.43 964.51 238.79 965.23 239.21 959.85 247.84"/><polygon class="cls-3" points="961.78 252.54 961.07 252.12 967.93 241.23 968.63 241.65 961.78 252.54"/><polygon class="cls-3" points="966.69 253.27 962.8 250.34 963.3 249.72 967.19 252.64 966.69 253.27"/><polygon class="cls-3" points="965.61 257.61 962.4 255.03 962.92 254.43 966.13 257 965.61 257.61"/><path class="cls-3" d="M919.08,143.42l.55-1.48a13.33,13.33,0,0,0,1.63.41,11.51,11.51,0,0,1,2.56.71l-.67,1.43a10.76,10.76,0,0,0-2.2-.59,13.83,13.83,0,0,1-1.87-.48" transform="translate(0.91 -25.09)"/><path class="cls-3" d="M930,147.34l.22-1.57c.94.14,3.64.71,4.83,1.7l-1.06,1.2a10.66,10.66,0,0,0-4-1.33" transform="translate(0.91 -25.09)"/><path class="cls-3" d="M943.59,152.74a24.08,24.08,0,0,0-4.26-1.6l.43-1.52a24.53,24.53,0,0,1,4.57,1.72Z" transform="translate(0.91 -25.09)"/><path class="cls-3" d="M907.87,141l.23-1.57a5.91,5.91,0,0,0,.91,0,9.51,9.51,0,0,1,3.34.24l-.46,1.51a8,8,0,0,0-2.75-.17,6.78,6.78,0,0,1-1.27,0" transform="translate(0.91 -25.09)"/><path class="cls-3" d="M906.29,145.46c.83-3,1-3.44,1.6-5.37l.14-.45,1.57.5-.15.45c-.62,1.91-.75,2.29-1.56,5.29Z" transform="translate(0.91 -25.09)"/><path class="cls-3" d="M901.51,148.33l-.72-1.43a22.24,22.24,0,0,1,3.17-1.07,26.13,26.13,0,0,0,2.81-.89l.65,1.47a30,30,0,0,1-3,1,21.11,21.11,0,0,0-2.94,1" transform="translate(0.91 -25.09)"/><path class="cls-3" d="M910.75,151a27.5,27.5,0,0,0-2.81-3.19c-.61-.63-1.14-1.19-1.48-1.59l1.26-1c.31.36.85.92,1.42,1.52a25.31,25.31,0,0,1,3,3.47Z" transform="translate(0.91 -25.09)"/><path class="cls-3" d="M897.7,154.76l.07-1.58a22.47,22.47,0,0,1,5.21.7l-.46,1.51a21.34,21.34,0,0,0-4.82-.63" transform="translate(0.91 -25.09)"/><path class="cls-3" d="M907.74,156.82l.17-1.57a18.41,18.41,0,0,1,3,.69l.82.24-.44,1.52-.85-.24a15.24,15.24,0,0,0-2.73-.64" transform="translate(0.91 -25.09)"/><path class="cls-3" d="M908.79,156.09c.17-.51.38-1.07.6-1.66a21.45,21.45,0,0,0,1.28-4.19l1.63.22a22.94,22.94,0,0,1-1.36,4.53c-.21.57-.42,1.11-.58,1.6Z" transform="translate(0.91 -25.09)"/><path class="cls-3" d="M899.57,154.28a26.39,26.39,0,0,1,1.09-7.36l1.6.39a25.29,25.29,0,0,0-1,6.85Z" transform="translate(0.91 -25.09)"/><path class="cls-3" d="M911.68,151.32l-.45-1.52a29.7,29.7,0,0,1,3.82-.76,11.69,11.69,0,0,0,2.35-.5L918,150a13.46,13.46,0,0,1-2.67.57,31.32,31.32,0,0,0-3.64.72" transform="translate(0.91 -25.09)"/><path class="cls-3" d="M917,149.44a10.7,10.7,0,0,1,1.35-4.42,15.31,15.31,0,0,0,.9-2.23l1.59.42a15.14,15.14,0,0,1-1,2.48,9.78,9.78,0,0,0-1.2,3.77Z" transform="translate(0.91 -25.09)"/><path class="cls-3" d="M921.09,154.41l-.47-.66a15.57,15.57,0,0,0-3.37-3.81l.89-1.31a16,16,0,0,1,3.83,4.23l.46.64Z" transform="translate(0.91 -25.09)"/><path class="cls-3" d="M920.55,159.72l-1.55-.55c.19-.48.44-1.06.71-1.66a12.7,12.7,0,0,0,1.22-3.56h1.65a12.45,12.45,0,0,1-1.37,4.19c-.25.58-.49,1.12-.66,1.57" transform="translate(0.91 -25.09)"/><path class="cls-3" d="M922.07,154.53l-.88-1.34a9.86,9.86,0,0,1,4.56-1.2,15.18,15.18,0,0,0,2.33-.34l.45,1.53a14.59,14.59,0,0,1-2.59.38,8.73,8.73,0,0,0-3.87,1" transform="translate(0.91 -25.09)"/><path class="cls-3" d="M930.37,158.32c-.38-.13-.61-.68-1.52-2.88-.1-.25-1-2.46-1.14-2.95l1.59-.34c.14.51,1.81,4.55,2.07,5l-.67.37v.07l.8.21-.81.59a1,1,0,0,1-.33-.05" transform="translate(0.91 -25.09)"/><path class="cls-3" d="M928.73,163.2l-1.29-1a15.24,15.24,0,0,0,1.66-3.15,14.17,14.17,0,0,1,.9-1.89l1.42.82a15.52,15.52,0,0,0-.81,1.7,15.53,15.53,0,0,1-1.88,3.52" transform="translate(0.91 -25.09)"/><polygon class="cls-3" points="921.87 135.91 917.48 134.33 918.03 132.85 922.42 134.43 921.87 135.91"/><path class="cls-3" d="M929.8,164.43a9.54,9.54,0,0,0-2.69-1.27c-.68-.25-1.44-.54-2.26-.9l.65-1.44c.78.34,1.52.61,2.17.86a10.55,10.55,0,0,1,3.21,1.57Z" transform="translate(0.91 -25.09)"/><path class="cls-3" d="M930.9,158.6l-.59-1.49a34.84,34.84,0,0,1,7.54-1.73l.21,1.58a33.1,33.1,0,0,0-7.16,1.64" transform="translate(0.91 -25.09)"/><polygon class="cls-3" points="930.2 127.67 928.66 127.1 930.95 120.98 932.49 121.54 930.2 127.67"/><path class="cls-3" d="M938.65,156.62l-1.38-.89a18.71,18.71,0,0,0,1.94-4.39c.17-.5.35-1,.52-1.48l1.55.56-.52,1.44a19.86,19.86,0,0,1-2.11,4.76" transform="translate(0.91 -25.09)"/><path class="cls-3" d="M939.4,162.57a38.5,38.5,0,0,0-2.2-6.1l1.52-.6a39.2,39.2,0,0,1,2.28,6.37Z" transform="translate(0.91 -25.09)"/><path class="cls-3" d="M940.69,162.75l-.46-1.52a25.5,25.5,0,0,1,5.47-.71l1.41-.07.13,1.57-1.43.09a24.16,24.16,0,0,0-5.12.64" transform="translate(0.91 -25.09)"/><path class="cls-3" d="M938.56,169.43a14.89,14.89,0,0,0-2.91-1.93c-.59-.33-1.13-.63-1.52-.89l.93-1.3c.33.22.85.52,1.4.83a14.34,14.34,0,0,1,3.38,2.32Z" transform="translate(0.91 -25.09)"/><path class="cls-3" d="M947.88,161.66l-1.41-.84c.34-.53.71-1,1.08-1.54a13.88,13.88,0,0,0,1.92-3.19l1.54.56a14.82,14.82,0,0,1-2.11,3.56c-.37.5-.72,1-1,1.45" transform="translate(0.91 -25.09)"/><path class="cls-3" d="M937.47,168.05,936.26,167a51.5,51.5,0,0,0,3.48-5.36l1.44.78a51.06,51.06,0,0,1-3.71,5.67" transform="translate(0.91 -25.09)"/><path class="cls-3" d="M953.15,159.43a28.59,28.59,0,0,0-4.2-2.34l.58-1.48a30.19,30.19,0,0,1,4.54,2.52Z" transform="translate(0.91 -25.09)"/><path class="cls-3" d="M947.51,168.28a30.42,30.42,0,0,0-.77-5c-.14-.71-.28-1.38-.38-1.92l1.62-.24c.1.52.23,1.18.38,1.88a30.84,30.84,0,0,1,.79,5.35Z" transform="translate(0.91 -25.09)"/><path class="cls-3" d="M944.91,173.78l-1-1.25a16.52,16.52,0,0,0,2.78-3.27,20.54,20.54,0,0,1,1.41-1.85l1.26,1a21.34,21.34,0,0,0-1.32,1.75,17.67,17.67,0,0,1-3.11,3.59" transform="translate(0.91 -25.09)"/><path class="cls-3" d="M948.52,168.68l-.12-1.59a29.36,29.36,0,0,1,7.36.47l-.27,1.56a27.17,27.17,0,0,0-7-.44" transform="translate(0.91 -25.09)"/><path class="cls-3" d="M955.79,169.29l-1.22-1.07a32.27,32.27,0,0,0,2.36-3.12c.62-.89,1.21-1.73,1.7-2.32l1.28,1c-.45.54-1,1.35-1.61,2.21a32.66,32.66,0,0,1-2.51,3.29" transform="translate(0.91 -25.09)"/><path class="cls-3" d="M961.52,166.44a44.31,44.31,0,0,0-3.52-2.7l.82-1.36a46,46,0,0,1,3.75,2.87Z" transform="translate(0.91 -25.09)"/><path class="cls-3" d="M955.57,175.67c0-.24,0-.49,0-.77,0-1.75.12-4.41-.71-5.79l1.43-.78c1.05,1.78,1,4.59.92,6.64,0,.26,0,.51,0,.74Z" transform="translate(0.91 -25.09)"/><path class="cls-3" d="M946,175.35c-.57-.54-1.3-1.07-2-1.6a16.58,16.58,0,0,1-1.92-1.57l1.21-1.05a15.19,15.19,0,0,0,1.71,1.38,21.06,21.06,0,0,1,2.13,1.72Z" transform="translate(0.91 -25.09)"/><path class="cls-3" d="M952.16,180.11l-.75-1.43a18.94,18.94,0,0,0,4.37-4l1.38.88a20,20,0,0,1-5,4.54" transform="translate(0.91 -25.09)"/><path class="cls-3" d="M952.62,182.64a20.2,20.2,0,0,0-2.9-4.33l1.24-1a21.44,21.44,0,0,1,3.11,4.65Z" transform="translate(0.91 -25.09)"/><polygon class="cls-3" points="713.23 177.34 712.64 174.13 716.29 176.24 715.87 176.92 713.76 175.69 714.03 177.21 713.23 177.34"/><polygon class="cls-3" points="710 172.77 710.48 169.86 713.24 171.51 712.82 172.18 711.1 171.16 710.81 172.91 710 172.77"/><polygon class="cls-3" points="708.27 168.01 708.95 165.26 711.22 166.89 710.74 167.52 709.46 166.61 709.07 168.2 708.27 168.01"/><polygon class="cls-3" points="706.86 163.26 708.11 159.57 711.18 162.8 710.58 163.34 708.46 161.1 707.65 163.51 706.86 163.26"/><polygon class="cls-3" points="706.58 158.44 705.88 158.02 707.68 155.25 710.54 158.03 709.96 158.58 707.83 156.52 706.58 158.44"/><polygon class="cls-3" points="705.96 152.45 705.28 151.99 707.85 148.49 710.39 152.02 709.72 152.47 707.85 149.87 705.96 152.45"/><polygon class="cls-3" points="847.92 81.22 847.8 77.66 845.5 78.13 845.32 77.36 848.6 76.68 848.74 81.21 847.92 81.22"/><polygon class="cls-3" points="845.31 84.67 845.54 80.77 841.28 81.26 841.17 80.47 846.42 79.87 846.13 84.73 845.31 84.67"/><polygon class="cls-3" points="840.92 88.28 842.45 83.92 838.19 84.56 838.05 83.77 843.68 82.93 841.7 88.55 840.92 88.28"/><polygon class="cls-3" points="835.88 94.27 837.93 87.86 830.92 87.86 830.91 87.06 839.04 87.05 836.67 94.52 835.88 94.27"/><polygon class="cls-3" points="819.31 106.18 818.59 105.77 824.68 95.75 814.11 95.06 814.16 94.27 826.06 95.05 819.31 106.18"/><polygon class="cls-3" points="828.16 102.02 827.41 101.69 832.3 90.98 823.67 91.33 823.62 90.55 833.58 90.14 828.16 102.02"/><path class="cls-3" d="M808.45,137.51l-.72-.39L814.2,126c-7.82-1.52-11.84-2.32-12-2.36l.25-.75c.33.09,9.09,1.8,12.43,2.45l.56.1Z" transform="translate(0.91 -25.09)"/><polygon class="cls-3" points="704.86 147.14 704.23 146.63 709.54 140.46 712.27 148.25 711.49 148.5 709.24 142.06 704.86 147.14"/><polygon class="cls-3" points="713.01 142.55 711.93 135.22 705.58 139.8 705.09 139.17 712.55 133.78 713.83 142.46 713.01 142.55"/><polygon class="cls-3" points="716.01 136.23 715.59 127.62 707.69 132.69 707.22 132.02 716.34 126.18 716.84 136.21 716.01 136.23"/><polygon class="cls-3" points="721.51 130.3 721.89 119.6 711.8 123.91 711.46 123.18 722.76 118.36 722.33 130.33 721.51 130.3"/><polygon class="cls-3" points="727.15 124.54 730.67 113.74 719.46 115.16 719.34 114.38 731.85 112.79 727.93 124.78 727.15 124.54"/><polygon class="cls-3" points="734.38 119.85 733.68 119.42 740.59 108.97 727.38 108.78 727.38 107.99 742.08 108.2 734.38 119.85"/><polygon class="cls-3" points="742.14 116.61 741.53 116.08 749.87 107.41 738.39 104.26 738.6 103.49 751.38 107 742.14 116.61"/><polygon class="cls-3" points="750.92 116.49 750.43 115.84 762.05 107.7 750.9 102.88 751.23 102.16 763.68 107.55 750.92 116.49"/><polygon class="cls-3" points="762.43 115.53 762.01 114.83 771.79 109.51 762.23 103.17 762.68 102.52 773.33 109.58 762.43 115.53"/><polygon class="cls-3" points="774.23 118.14 773.67 117.54 783.84 108.84 771.54 103.7 771.86 102.97 785.35 108.62 774.23 118.14"/><path class="cls-3" d="M784.93,142.43l-.61-.54,8.49-9c-2.33-.86-10-3.73-10.8-4.22l.43-.67c.63.37,7,2.81,11.22,4.36l.57.21Z" transform="translate(0.91 -25.09)"/><polygon class="cls-3" points="797.33 115.97 796.66 115.5 804.84 104.27 792.58 102.24 792.71 101.46 806.27 103.7 797.33 115.97"/><polygon class="cls-3" points="941.09 241.88 940.19 230.29 941.41 230.22 942.32 241.8 941.09 241.88"/><polygon class="cls-3" points="941.34 242.31 931.63 235.18 932.36 234.24 942.08 241.36 941.34 242.31"/><polygon class="cls-3" points="940.83 234.66 930.62 227.87 931.31 226.89 941.51 233.68 940.83 234.66"/><polygon class="cls-3" points="934.32 236.5 934.75 225.25 935.98 225.31 935.55 236.56 934.32 236.5"/><polygon class="cls-3" points="949.57 260.67 948.67 249.07 949.89 249.01 950.79 260.59 949.57 260.67"/><polygon class="cls-3" points="949.81 261.1 940.1 253.97 940.83 253.03 950.56 260.16 949.81 261.1"/><polygon class="cls-3" points="949.31 253.44 939.09 246.65 939.78 245.68 950 252.47 949.31 253.44"/><polygon class="cls-3" points="942.79 255.29 943.22 244.03 944.45 244.09 944.02 255.35 942.79 255.29"/><polygon class="cls-3" points="958.68 278.81 957.78 267.44 959.01 267.36 959.9 278.73 958.68 278.81"/><polygon class="cls-3" points="958.92 279.24 949.39 272.24 950.12 271.29 959.66 278.3 958.92 279.24"/><polygon class="cls-3" points="958.42 271.72 948.39 265.06 949.09 264.09 959.11 270.75 958.42 271.72"/><polygon class="cls-3" points="952.02 273.53 952.44 262.49 953.67 262.55 953.25 273.59 952.02 273.53"/><path class="cls-3" d="M682.4,265.48c1.18,1-3.1,5.28-5.41,8s-3.51,4.91-5.75,5.92-6.89-3.29-12.27-1.25-9.35,11-8.21,13.58,4.53,3.83,7.72.23-.46-4-.76-4.08c-.73.76-2.05,3.3-3.3,2.7-1-.5.49-6.2,3.37-6.85s4.82-1.67,8.3-.09c.34.12,1.8.54,2,1.12-.59,1.14-2.09,2.51-4.19,5.82a35.73,35.73,0,0,1-6.52,6.46c-2.78,2.15-7.92,5-10.54,2.47s-2.37-8.72-.82-12.36,6.66-12.55,11.38-15.79,12.9-2,15.55-2.66c4.71-1.23,8-4.14,9.42-3.27" transform="translate(0.91 -25.09)"/><path class="cls-3" d="M688.71,251.75c1.5-1,4.51-2.74,5.4-3.37s.77,1.66.66,2.18c-.5,2.42-2.73,3.79-3.36,5.27a7,7,0,0,1-5.55,4.07c-1.8.05-5,.54-12.28-9-2.61-2.72-4.84-4.35-7.11-3.91a8.26,8.26,0,0,0-7.15,7.82c-.55,5.88,3.61,8.53,7.11,7.64s4.17-3.06,3.28-4.9-2.89-2.69-3.49-1.07c-.32,1,.34,2.78-1.13,3s-2.63-.56-2.63-3.55a5.83,5.83,0,0,1,3.22-5.43c1.3-.48,3.6-.28,6.06,1.63a7.84,7.84,0,0,1,2.88,5.34c.28,1.18,1.52,3.34-.18,5.26s-7.61,3.59-10.21,4S655.45,268,653,262.49s-.3-7.84.54-10.64c.74-2.42,2.42-7.68,5.19-10s6.62-2.55,10.4-.11,7,8.23,10.56,9.7,6.72,1.8,9,.28" transform="translate(0.91 -25.09)"/><path class="cls-3" d="M697,183.44c1.13,1.67-1.19,2.31-1.87,2.06a2,2,0,0,1-1.22-2c-1.72-.1-5.32-.13-5.61,5.35s5.26,3.29,6.47,3a12.87,12.87,0,0,0,4.48-2.09c1.13,1.66,4.36,6.82,4.3,7.86-.88,1.47-7.82,7.21-8.63,12.6s-.43,13.39.76,14.88c2.27-1.07,5.1-2.79,6.12-3.16-2.34-1.38-3.92-5.64-2.41-9.4s7.17-6.75,9.84-6,7.42,5.28,7.5,7.74-1.5,2.82-2.72,2.28-1.1-2.93-.86-3.89c-.42-1.21-2.73-2.85-4.83-3.09a5.26,5.26,0,0,0-5.75,4.24,8.63,8.63,0,0,0,2.34,7.8c-.55,1.48-3.46,2.54-4.56,3.41s-3.16,2-4.09,2.73c-1.54-1.18-4.78-6.57-9.53-9.12s-11.43-4.7-16.42-2.81c1.11,2.61,2.41,6.76,2.9,8.09,3.09-3,8.81-4.5,11.51-2s4.72,6.43,1.38,10.07-7.57,3.26-9.4.82.86-3.48,2.07-3.79,2.42,2,1.74,3.28c2-1.07,4.54-2.48,5-4.31s-1.32-4.68-3.36-5.1-7.19,2.9-8.63,4.71c-1.46-1.06-4.89-9.6-5.83-11.2,3.93-2.58,8.62-5.06,10.44-10.51,0,0,1.75-11.5.2-13.54-2.4,1.45-5,3.23-6.64,3.7,2.87.83,3.77,4.66,2.59,7.82s-5.82,8.53-10.79,6-3.19-6.55-2-9,4-1.6,4.95-.32.37,2.24-.41,2.28-1.5-1.28-1.85-1.83c-.93,1.35-1.92,4.57.81,5.77s5.23,1.25,7.1-3.75c.21-1.72-1.34-5.71-3.9-7.07.07-1.65,3.36-1.93,4.22-2.47a58.75,58.75,0,0,0,5.68-4.05c1.61.68,5.72,7.85,11.14,9.5,3.64,1.1,10.7-.29,12-1.18a5.11,5.11,0,0,0-3.25-4.71c-3.56,2.19-8,2.68-10.41.87s-2.57-6.61-1.21-9.07,7.47-5.13,10.56-1.38" transform="translate(0.91 -25.09)"/><path class="cls-3" d="M656.19,209.48c1.31-.12,4.5,2.35,5.91,3-.54,3.65,4.53,19.11,10.55,25.29-6.67-3.26-14.47-2.71-16.24.86,2.28-8.43,1-27-.22-29.12" transform="translate(0.91 -25.09)"/><path class="cls-3" d="M708.9,234c-.23-1.09-2.76-4.62-3.53-5.92-2.38,2.83-19.76,14.18-30.44,12.23,3.14,4.34,5.1,8.94,18.12,5.06,8.1-2.33,14.89-9,15.85-11.37" transform="translate(0.91 -25.09)"/><path class="cls-3" d="M708.89,222.61c4.6,1,10.76,6,10.65,9-.29,8.17,1.93,11.22,7.42,15.31s10.78,4,12.71,1.22a4.61,4.61,0,0,0-2-6.88c-2.19-.8-5.07,1.81-5.05,2.94s.59,2.74-.21,3.3-2.12.21-3.6-1.31-1.92-5-.47-7.74,9.2-4.69,12.6-1.63,6.59,8.56,2.34,14.46-10.07,4.65-14.68,3.27-11.25-9-13.16-12.48-6.17-14-6.59-19.5" transform="translate(0.91 -25.09)"/><path class="cls-3" d="M747.86,219.41c1.09,5.31-.69,28.25,12.57,40.9,7.69,6,6.08,7.95,5.35,9.51s-6.7-.45-9.86-.19S736.83,265.54,735,259c.55-1.48,9.24-.87,11.43-5.55s2.69-7.6,1.95-11.09-5-9.26-9.33-11.8c-2.78-3.11.14-5.07,1.52-6.4s4.14-5,7.25-4.75" transform="translate(0.91 -25.09)"/><path class="cls-3" d="M752.93,194.78c-6-3.28-3.28-9.66,1.18-10.21s9.21,3.51,5.19,10.43c2.32,2.44,4.44,4.53,7,7.28a16.8,16.8,0,0,0,8.46-11.75c.79-3.42,1.52-9.39-5.66-15.07s-14.28-5.78-17.94-4.48-12.83,6.14-14.15,12.43.34,10.83,3.31,14.38,5.36,6.17,10.07,7.66c.86-4.15,2.55-10.67,2.55-10.67" transform="translate(0.91 -25.09)"/><path class="cls-3" d="M776.66,212.76c5.62,1.4,15.56-1.12,18.21-3.53.44,5.85,3.62,14.36,8.64,16.18s10.08,2.37,12.28-2.93-1.46-6.64-3.74-6.41-4.84,4.15-2.8,5.73-.39,2.8-2.66,2.4-4.31-4.3-2-8.28,9.05-6,13-3.72,7.86,8.31,5.39,13.73-9.51,6.68-14.62,5.68-20-6.37-24.68-10.81a87.78,87.78,0,0,1-7.09-8" transform="translate(0.91 -25.09)"/><path class="cls-3" d="M808.58,181.55c1.85-1.44,4.44-4.16,7.47-6.28,3.27-2.3-2.06,8.23-1.9,12.51s7.47,19.12,17.29,26.87,16.07,11.27,21.14,13.53.1,6.77-2.63,7-12.45,3.47-19.26,2.06a34.93,34.93,0,0,1-9.41-3.29c3.91-3.42,10.86-10.68,5.39-18.34s-13.31-10.14-18.95-8c-1-.36.24-1.8.86-3.26,2.8-6.6,4.11-21,0-22.88" transform="translate(0.91 -25.09)"/><path class="cls-3" d="M791.72,184.52a83.8,83.8,0,0,1,15.14-.33c2.76,2.25,1.79,8.68,1.14,13a37.22,37.22,0,0,1-4.72,12.11C798.94,208.05,790,204.93,787,202c3.9-.1,14.33,2.77,17.15,2.66,0,0-14.35-4.11-15.81-6.4,3,.06,12.65,1.45,16.52,2.17-3.89-2.11-12.13-4.87-14.18-7.34,3.92.06,11.89,1.84,15.55,2.5-4-1.78-13-4.28-15.13-6.55,3.75-.65,12.81.73,16.08,1.28-6.1-2.48-13.24-3.29-15.49-5.8" transform="translate(0.91 -25.09)"/><path class="cls-3" d="M791.72,173.4c.49-10.34,13.63-16.25,18.27-15.18.67,3.27-4,7.33-5.73,9.43a22.92,22.92,0,0,1,9.88.54c-2,3.8-5.92,5.72-9.68,6.49,5.78.57,5.4.74,6.86,1.87-8,6.51-17.38,5.22-20.09,1.51,2.72-.53,9.29,3.16,13.55-.85a22.39,22.39,0,0,0-8.63-2.2c4.66-1.24,10.72-3.4,11.59-4.89.35-2.22-8.76-.14-11.6,1.55,4.87-4.59,7.63-6.93,9-9.75-3.16-.78-10.65,4.8-13.42,11.48" transform="translate(0.91 -25.09)"/><path class="cls-3" d="M886.19,114.75c5.25,5.13,0,13-1.78,14.63a10.84,10.84,0,0,1,8.64,9.6c-3.73,4.32-10.9,4.06-12.32,3.34.92-1.89,5.82-.32,7.81-2.84.88-.39,2.13-5.71-11.79-8.51,4-.57,11.81-4.24,8.58-12.49-6,1.28-12,3.57-12.58,10.24-1.22-4.09-1.28-2.8-1-6.25-1.76-2-6.43-3.94-8.63-3.11,0,5,4.29,9.64,7.43,11.38-2.77,1.23-4.31.27-7-.32-3.45.78-6.27,3.81-6.32,5.62a8.35,8.35,0,0,0,7.61.52c2.46-.94,4-1,6.81-3a9.05,9.05,0,0,1-3.85,6.91c-.07,3,2.21,7.07,4.94,7.66,1.78-1.39,5.3-7.41,1.9-14.1,2.68.16,4.35,2.68,5.06,5.07,1.3,4.42-2.78,9.11-4,12.32a10.82,10.82,0,0,1-7.38-4.48,11.13,11.13,0,0,1-2.6-6c-3.28.85-8.12-.29-11.33-1.85-.06-5.49,1.55-6.19,3.41-8.28,1.09-1.23,2.82-1.62,4.09-2.18-1.08-2.2-3.15-7.1-1.86-11.39,3.29-2,10.17.43,12.34,3.64,2.64-3.09,10.89-6,13.88-6.11" transform="translate(0.91 -25.09)"/><path class="cls-3" d="M818.67,164.35c4.51,3,15.94,5.94,30.64.45s27.18,3.4,26.84,9-2.79,14.73-10.31,16.06-16-2-17-9.72,11-8.85,13.57-6.25,2.16,5.51-.56,6.21-5-1.78-3.56-3.64c-3.65.37-8.28,7.12-.41,8.62s11.77-5.19,11.67-9.61-3.54-8.36-10.94-8.34-14.24,6.27-18.65,13a35.89,35.89,0,0,1-19.89-6.64c-3.55-3.65-5.72-7-1.4-9.12" transform="translate(0.91 -25.09)"/><path class="cls-3" d="M893,209.51a71.76,71.76,0,0,1,15.06,18.79c6.56,11.48,19.59,21.29,23.17,18.17s7.62-8.71,4.33-14.26-9.55-10.07-15.29-6.68.23,11.7,3.38,12,4.88-1.45,3.84-3.57-4-2.28-4.42-.41c-1.78-2.56.17-9.06,5.55-4.74a7.75,7.75,0,0,1,0,12.53c-3,2.22-9.76-3.44-13.86-8.23s-.76-6.62-1-12.85c-2.9-3.25-5-9.7-6.31-15.19-.45-2-11.69-6.32-13.76-6.63-1.54.61-.76,2.86-.87,4.93-.14,2.46.3,3.89.11,6.14" transform="translate(0.91 -25.09)"/><path class="cls-3" d="M886.65,195.84c1.35,1.45,1.34,5.92,1.3,7.82s-4.41-.41-6.56-2.36-5.37-5.57-5.21-10.74,2.25-9,5.17-10,9.6.79,11.33,2.69,2.56,5.94.23,8.31-5.57,1.5-7.69-.54a3.28,3.28,0,0,1,.32-5.32c1.36-.69,3.77-.57,4.42,1s0,1.72-.86,1.4-3.1.58-2.44,1.79a2.88,2.88,0,0,0,3.84.74c1-.83,2.75-2.64,1.49-4.58a5.63,5.63,0,0,0-5.81-2.63c-2.37.42-5.65,2.33-5.93,4.89s1,5.51,2.77,6.24,3.63,1.31,3.63,1.31" transform="translate(0.91 -25.09)"/><path class="cls-3" d="M896.24,175.84c.18,1.51-2.16,2-2.94,4.11a3.77,3.77,0,0,1-2.48-.89,14.5,14.5,0,0,0,.68-5.27c0-2.81,0-4-3.08-5.82s-5.61-1.58-6.69.05a3,3,0,0,0,1.32,4.3c1.47.75,3.32.19,3.51-.65a1.51,1.51,0,0,0-.78-2c-.54.82-1.67,1.31-2.33.28s.84-1.94,1.88-1.91a3.64,3.64,0,0,1,3.61,2.54c.62,2.13,0,2.91-1.15,3.41a6.41,6.41,0,0,1-5.58-.1c-2.36-1.2-4-3.6-4-5.37s2.43-2.72,3.89-3.2,5.7.38,7.86,1.49,3.44,3.93,4.63,5.16a7,7,0,0,1,1.61,3.83" transform="translate(0.91 -25.09)"/><path class="cls-3" d="M902.29,175.79c3.26.36,8.19,2.6,11.08,4.6s4.89,5,3.79,7.27a6.5,6.5,0,0,1-5.83,3.56c-2.23-.08-5.46-1.5-5.78-4s1.12-4.65,3-4.23,2.22,1.78,1.57,2.5-1.23.28-1.87.65-.89,3,3.26,3,3.71-2.52,3.48-3.93-1.88-2.36-4.55-3.57-6-2.77-8.08-2.55-3.53,0-4.07,2.5a10.16,10.16,0,0,0,.34,6.14c.84,2,.75,2.68,2.06,3.87s1.2,2.85-.11,3a3.66,3.66,0,0,1-3.69-2.54c-.37-1.7-1-6.85-1.43-8.58a7.67,7.67,0,0,1,1.63-6,6.21,6.21,0,0,1,5.23-1.61" transform="translate(0.91 -25.09)"/><path class="cls-3" d="M903.9,183.24c1.07.56-1.12,5,.18,6.56s4.51,4,6.86,3.8,5.38-3,8.53-2.7a7.38,7.38,0,0,1,6.47,5c.68,2.54.27,7.29-1.65,8a10.22,10.22,0,0,1-8.61-1.78c-2.3-1.92-2.4-4-1.06-5.57s4.34-1.37,4.76-.5-.29,2.3-1.19,1.67-1.58.88-1.07,1.54,3.44,2.2,5.13,1.38a3.51,3.51,0,0,0,1.28-4.78c-1-1.43-2.83-3.49-5.44-2.87s-4.38,1.31-5.43,3.1-1.71,2.39-4.47,1.4-4-2-4.91-3.82-3-4.34-2.88-6.7,0-2.4.3-3.14c.41-1.11,1.12-1.65,3.2-.53" transform="translate(0.91 -25.09)"/><path class="cls-3" d="M925.05,208.71c.51,1.67-1.32,3.41-3.25,3.12s-1.36-1.41-.69-1.71,1.55-1.37.27-1.86a2.2,2.2,0,0,0-2.9,2.06,4.5,4.5,0,0,0,5.14,4.67c1.58,1.25,1.54,3.74,1.94,4.5-2.26.57-6.74-2.21-7.62-3.34s-3.85-4.18-3.36-6.81,3.3-3.41,5.24-3.22,4.53.28,5.23,2.59" transform="translate(0.91 -25.09)"/><path class="cls-3" d="M929.46,194.88c2.76,2.4,5.75,7.7,7,10.25-3.63-.47-6.15-1.52-8.14-1.68.31-2.41.93-6.4,1.15-8.57" transform="translate(0.91 -25.09)"/><path class="cls-3" d="M928.2,205.06s8.77,2,10,2.78c-1.61,2.92-4.39,7.57-5.7,8.76-1.09-3.56-4.34-11.54-4.34-11.54" transform="translate(0.91 -25.09)"/><path class="cls-3" d="M939.54,211.09a113.18,113.18,0,0,1,3.29,11.2c-2.47-.9-7.88-2.25-9.7-3.21,1.77-2.65,4.61-5.65,6.41-8" transform="translate(0.91 -25.09)"/><path class="cls-3" d="M935.06,221.93a84.38,84.38,0,0,1,8.63,2.95c-.53,2.36-4,5.52-5.52,7.19-.66-3-3.12-7.76-3.11-10.14" transform="translate(0.91 -25.09)"/><path class="cls-3" d="M943.5,228.31c1.48,1.78,2.74,7.65,2.81,10.14a38.11,38.11,0,0,1-8-2.18c1.63-2.83,4-5.85,5.15-8" transform="translate(0.91 -25.09)"/><path class="cls-3" d="M939.54,238.09c3.09,1.11,5.67,1.67,8,3-1.85,2.47-2.52,4.26-5.1,6.85a90,90,0,0,0-2.86-9.89" transform="translate(0.91 -25.09)"/><path class="cls-3" d="M947.76,245.63c1.45,3,3,6.86,3.07,9.65-2.65-1.52-3.94-2.08-8.6-4.85,1.7-1.48,3.47-3.11,5.53-4.8" transform="translate(0.91 -25.09)"/><path class="cls-3" d="M944.05,253.89c2.89,1.11,4.44,1.1,7.39,2.63-.64,2.75-2.37,4.29-4.11,7-.72-2.67-2.82-7.46-3.28-9.64" transform="translate(0.91 -25.09)"/><path class="cls-3" d="M952.49,259.31a65.68,65.68,0,0,1,3.76,10.17,33.79,33.79,0,0,1-7.74-3.16c2.13-3.09,1.73-3.6,3.56-6.42,0,0-.1.53.42-.59" transform="translate(0.91 -25.09)"/><path class="cls-3" d="M949.39,268.71c2.63,1,4,.92,6.72,2.24-.53,2.47-2,3.86-3.56,6.31-.7-2.37-2.69-6.62-3.16-8.55" transform="translate(0.91 -25.09)"/><path class="cls-3" d="M958,273.4c1.14,2.37,2.43,5.4,2.57,7.79-1.93-.87-2.85-1.14-6.24-2.74,1.12-1.56,2.3-3.26,3.67-5.05" transform="translate(0.91 -25.09)"/><path class="cls-3" d="M954,280.44c2.8.66,5.11.91,7.25,1.87-1.32,2.22-1.69,3.79-3.64,6.16a75,75,0,0,0-3.61-8" transform="translate(0.91 -25.09)"/><path class="cls-3" d="M962,284a20.89,20.89,0,0,1,2,3.95c-.39,1-.61,4.2-1.18,4-1-.35-1.77-.72-3.76-1.54.93-1.35,1.8-4.82,2.94-6.4" transform="translate(0.91 -25.09)"/><path class="cls-3" d="M959.73,292a20.78,20.78,0,0,1,2.74,1.2,13.22,13.22,0,0,1-.87,3.17,23.1,23.1,0,0,1-1.87-4.37" transform="translate(0.91 -25.09)"/><path class="cls-3" d="M964.29,167c7.91,13.24,12,55.85,9.63,63-1.3-9-9-38.61-18.47-46.39,1.33-3.17,9.07-11.75,8.84-16.6" transform="translate(0.91 -25.09)"/><path class="cls-3" d="M928.38,110.8c1.54.17,10.07,11.74,11.3,13.46a14.62,14.62,0,0,1,3.94,2.36c1.15,1,2.46,3.1,2,4.21a3.56,3.56,0,0,1-3.23,1.9c-1.16-.11-3.06-2.38-3.65-3.43a5.94,5.94,0,0,1-.44-3.53c.16-1,1.11,0-.91-2.54s-8.18-9.79-9.28-11.24c-.47-.81-.2-1.23.23-1.19" transform="translate(0.91 -25.09)"/><path class="cls-3" d="M930.87,120.54c1.26,1.29.79,2.29,0,3s-2,1.59-3.38-.06-.1-2.67.73-3.11a2.18,2.18,0,0,1,2.69.13" transform="translate(0.91 -25.09)"/><path class="cls-3" d="M927.1,112.45c1-.32,2.32-.33,1.42.61s-3.09,2.68-3.61,4.08-1.68,3.59.54,5.87,5.53,4,7.92,3.17a26.35,26.35,0,0,0,4.2-2.16c.63-.2,1.15,1,.23,1.45s-5,2.61-8.14,2.11a27.55,27.55,0,0,1-4-1,29.22,29.22,0,0,0-4.29,3.29c1.06,1.54,2.45,6-3,8.69-1.15.43-1.4-1.24-.87-1.47a8.13,8.13,0,0,0,3.32-3.33c.59-1.57-.09-1.82-1.95-3.86s-3.56-3.39-5.27-2.64a16.46,16.46,0,0,0-3.52,2.1c-.76.57-1.94-.7-1-1.33s3.76-2.43,5.51-2.42,4.58,1.23,5.46,2.7c1-.81,3.07-2.35,3.42-3.29s-.89-2-.87-4.42,1.07-3.72,1.88-5.31a6,6,0,0,1,2.7-2.82" transform="translate(0.91 -25.09)"/><path class="cls-3" d="M961.1,158.73c-.78-3.76-5.64-15.41-12.84-21.06-4.84-2.91-11.88-6.36-16-5.16a15.61,15.61,0,0,0-8.3,6.05c3.13,1,23,5.89,37.19,20.17" transform="translate(0.91 -25.09)"/><path class="cls-3" d="M782.36,168.77l.29-1.89a78.75,78.75,0,0,1,5.63-18.62l.32-.69.74.29a72.56,72.56,0,0,1,8.23,4.11c2.07,1.16,4,2.25,6.18,3.2l1.27.58-1.12.79a134.67,134.67,0,0,1-14,7.87c-2.73,1.41-5.09,2.63-6,3.24Zm7.1-19.14a79.18,79.18,0,0,0-4.88,15.78c1.16-.65,2.73-1.46,4.55-2.4,4.09-2.1,9.08-4.67,12.66-7-1.74-.84-3.41-1.77-5-2.67a74.27,74.27,0,0,0-7.3-3.71" transform="translate(0.91 -25.09)"/><path class="cls-3" d="M809.36,153.84c-4.39-1.59-12.83-5.66-13.18-5.83l-1.83-.88,1.93-.58c4.37-1.32,15.76-6.18,19.26-8.64l1.6-1.12-.3,1.89a41.25,41.25,0,0,1-2.74,9.12,38.69,38.69,0,0,0-2,6l-.18.78-.81-.19a16.27,16.27,0,0,1-1.74-.54m-10.7-6.4c2.77,1.3,8.15,3.79,11.26,4.92l.76.25a47.21,47.21,0,0,1,1.87-5.39,47.08,47.08,0,0,0,2.33-7,124.07,124.07,0,0,1-16.22,7.22" transform="translate(0.91 -25.09)"/><path class="cls-3" d="M815.85,152.7l.45-1.95A86.16,86.16,0,0,1,821.68,134l.29-.61.67.18c1.08.29,2.13.59,3.17.89a57.48,57.48,0,0,0,10,2.21l1.78.2L836.31,138a114.33,114.33,0,0,1-17.17,12.56Zm7-17.41a81.78,81.78,0,0,0-4.53,13.89A117.63,117.63,0,0,0,833.9,138a67.22,67.22,0,0,1-8.53-2c-.81-.24-1.63-.47-2.47-.69" transform="translate(0.91 -25.09)"/><path class="cls-3" d="M828.21,131.79l-1.35-.48,1.1-.87c4.81-3.83,10.09-8.26,12.73-12l1-1.44.46,1.7a33.37,33.37,0,0,1,1,13.5L843,133.8l-.69,0a35.77,35.77,0,0,1-14.07-2.06M841,120.71a77.71,77.71,0,0,1-10.87,10,33.92,33.92,0,0,0,11.31,1.54l0-.28a33,33,0,0,0-.47-11.31" transform="translate(0.91 -25.09)"/><path class="cls-3" d="M847.21,127.9l-.2-1.58c-.29-2.34-.52-5.09-.76-7.75-.21-2.34-.4-4.56-.59-6.21l-.09-.64.63-.19a54.11,54.11,0,0,0,6.86-2.88,40.08,40.08,0,0,1,6.16-2.55l1.43-.4-.4,1.39c-1.52,5.22-7.66,15.92-11.86,19.73Zm.14-15.08c.18,1.59.36,3.56.54,5.63s.35,4.11.55,6a62.52,62.52,0,0,0,9.72-16.31c-1.4.52-2.84,1.21-4.35,1.93a56.24,56.24,0,0,1-6.46,2.75" transform="translate(0.91 -25.09)"/><path class="cls-3" d="M849.3,107.49l.79-1.34a95.37,95.37,0,0,0,7.09-14.7l.58-1.52.89,1.38a33.85,33.85,0,0,1,3.74,8.24c.24.71.48,1.4.73,2.06l.26.68-.69.3c-1.1.49-2.25,1-3.37,1.56-3.22,1.53-6.27,3-8.42,3.19Zm8.82-13.93a98.16,98.16,0,0,1-5.69,11.8,56.8,56.8,0,0,0,6.15-2.63c.91-.43,1.83-.87,2.75-1.28-.17-.47-.34-1-.5-1.43a36.53,36.53,0,0,0-2.71-6.46" transform="translate(0.91 -25.09)"/><path class="cls-3" d="M864.4,98.34l-.77-2.07-.5-1.27a29.78,29.78,0,0,1-2.51-9.86l0-.61.61-.17a37.38,37.38,0,0,1,9.87-1.72l1.74-.1-1,1.36a53.16,53.16,0,0,0-6.64,12.39Zm-2.1-12.63a27.62,27.62,0,0,0,2.1,8.06,57.05,57.05,0,0,1,5.1-9.43,33.82,33.82,0,0,0-7.2,1.37" transform="translate(0.91 -25.09)"/><path class="cls-3" d="M863,79.82l1.68-1.39c.54-.45,1.16-1,1.83-1.57,3.63-3.16,8.15-7.1,11.37-7.1h1.08l-.27,1c-.5,1.82-1,3.35-1.37,4.71-.53,1.75-1,3.27-1.32,4.8l-.16.79-.82-.19a43.4,43.4,0,0,0-9.79-1.06Zm13.77-8.27c-2.66.85-6.5,4.18-9.15,6.49l-.28.25a43.6,43.6,0,0,1,7.23.87c.32-1.32.72-2.65,1.18-4.15.31-1,.66-2.17,1-3.46" transform="translate(0.91 -25.09)"/><path class="cls-3" d="M877.46,79.05l.67-1.8A28.48,28.48,0,0,1,881,71.92a41,41,0,0,0,2.39-4.08l.36-.71.75.36,1.4.67a58.6,58.6,0,0,1,6.5,3.46l1.16.73-1.19.63a76.25,76.25,0,0,1-8.28,3.4c-1.87.69-3.64,1.34-4.85,1.87Zm7.06-9.8c-.68,1.28-1.4,2.42-2.1,3.51S881,74.91,880.47,76c.92-.36,2-.74,3-1.13,2.32-.86,4.89-1.81,6.82-2.69-2-1.14-3.61-1.92-5.11-2.63l-.68-.33" transform="translate(0.91 -25.09)"/><path class="cls-3" d="M896.54,73.21l-.74-.57c-.59-.46-1.22-.91-1.87-1.37a39,39,0,0,1-5.09-4.13l-.92-.9,1.24-.4a28.67,28.67,0,0,1,13.15-.9l1.35.24-.83,1A40.06,40.06,0,0,1,899.3,70,15.28,15.28,0,0,0,897,72.44ZM891,67a42.29,42.29,0,0,0,3.9,3c.43.3.84.59,1.24.89a23.6,23.6,0,0,1,2-2.07c.77-.73,1.61-1.54,2.48-2.52A27.56,27.56,0,0,0,891,67" transform="translate(0.91 -25.09)"/><path class="cls-3" d="M900.56,73l.7-1.25A26,26,0,0,1,904,67.9c.86-1.07,1.75-2.18,2.66-3.55l.56-.85.72.75c2.61,2.68,3.53,3.7,5.53,6.09l.89,1.06-1.38.22c-2.83.44-6.7,1-10.94,1.28Zm6.91-6.92c-.76,1.06-1.5,2-2.17,2.83s-1.27,1.55-1.8,2.32c2.72-.21,5.21-.55,7.81-.94-1.25-1.47-2.17-2.48-3.84-4.21" transform="translate(0.91 -25.09)"/><path class="cls-3" d="M917,71.93l-.66-.41c-1.62-1-3.46-3.53-5.71-6.69L910,64l1-.33a20.72,20.72,0,0,1,10.77.06l1.15.41-.82.87a30.14,30.14,0,0,0-2.87,3.78c-.57.84-1.16,1.71-1.82,2.58Zm-4.35-7.06a31.89,31.89,0,0,0,4,4.85c.44-.62.87-1.25,1.29-1.85.72-1.07,1.42-2.09,2.18-3a21.3,21.3,0,0,0-7.43,0" transform="translate(0.91 -25.09)"/><path class="cls-3" d="M918.74,72l1.87-1.81a26.74,26.74,0,0,0,2.11-2.56,31.55,31.55,0,0,1,3.17-3.7l.64-.59.56.69a36.51,36.51,0,0,1,3,4l1.64,2.43-1.27.17c-1.55.21-2.93.31-4.27.4a45.53,45.53,0,0,0-4.81.52Zm7.66-6.29c-.77.83-1.6,1.91-2.35,2.88l-.84,1.08c.94-.1,1.86-.17,2.81-.23s1.88-.13,2.89-.23l-.22-.34a35,35,0,0,0-2.29-3.16" transform="translate(0.91 -25.09)"/><path class="cls-3" d="M824.58,151.26c1.63-2.58,23.47-15,31-27.67,1.73.62,1.22,3.17,1.72,4.2-2.05,1.36-12.6,11.79-5.7,16.81,5.63-.21,8.58,3.44,8.35,5.41-10.14-1.42-29.2,2.65-32.07,3.29-1.83.18-3.64-.05-3.34-2" transform="translate(0.91 -25.09)"/><path class="cls-3" d="M882.06,82.18c-4.36,5.8-15.19,24.2-3.69,29.83-5.37,4.37-12.82.85-14.23-3s7.39-23.86,17.92-26.8" transform="translate(0.91 -25.09)"/><path class="cls-3" d="M890.5,77.22c-3.17,7.28-8.28,20.39,5.94,34,11.4,10.86,10.75,20.51,6.72,26-2.23,3-6.67,10.21-16.79,12.67,5.39-5.64,11.07-11.89,10.47-19.8s-5.83-14.32-16.07-21c-5.54-3.59-2.37-12.43-.29-18s7-12.21,10-13.86" transform="translate(0.91 -25.09)"/><path class="cls-3" d="M896.05,75.86c1.24,4.87-1,9.74,8.82,13.93s20.59,11.22,18.91,18.62-4.47,7.86-6.69,8.53c2.1-3.87.21-11.71-2.57-14.83s-9.46-6.36-14.82-7.88-5.92-13.5-3.65-18.37" transform="translate(0.91 -25.09)"/><path class="cls-3" d="M892,86.62c1.46,4.32,1.36,10.38,8.79,12.86,7.8,2.6,14.53,9.25,13.42,14.53s-3.07,6.47-5.78,8.44c-.74-4.48-1.35-11.64-8.49-14.23-6-2.17-8.63-8.59-9.19-12.37A13.86,13.86,0,0,1,892,86.62" transform="translate(0.91 -25.09)"/><path class="cls-3" d="M729,100.74c5.82-.7,10.22-3.88,13.21-5.61s3.77-2.86,4.79-9.5,7.55-12.48,12.49-11.7c9,1.41,5.62,9.6,2.81,7.75.88-7.06-15.43,2.35-5,6.81,3.53,1.52,6.77,3,14.23-1.32,3.58-2.06,1-12.47,3-17.86,2.26-6.06,9.13-9.65,13.65-9.52,6.51.17,11.49,9.13,2.64,9.93,2-4.31-6-5.55-8.29-1.87s2.21,8.94,7.06,9.29,12.19-2.89,14.07-9.52-2.37-7.73.5-15.4,9.33-11.35,14.93-10.6c11.07,1.47,9.92,11.58,3,11.2,3.16-7.28-7.78-6.17-7.65-.09.1,4.23,3.54,7.74,8.74,7.92s10.23-7.81,13.39-13.13,4.08-11.72,8.26-15.82,10.46-5.93,15.52-3c8,4.56,2.4,14.13-1.69,11,2.9-4.21-3.58-5.65-5.65-2.46s-1.87,9.71,5.74,9.65a18.9,18.9,0,0,0,16.24-9c2.62-4.67,10.09-12.92,15.29-12.73s11.85,4.1,11.2,8.54c-.52,3.53-4.57,6.34-8,3.84,6.44-3.15-.71-7.27-4-4s-2.73,12.77,8,9.9,16.37-11.21,23.29-10.67c8.66.67,12.59,7.77,10.15,11.94-2.27,3.9-7.71,2.62-9.26-1,4.59.61,6.74-4,2.26-5.29s-8.72,2.66-7,6.94c2,5.15,5.73,8.31,15.76,5.76a14,14,0,0,1,17.37,10c1.27,5.22-1.64,11.26-6,11.93s-7.34-3.84-7.68-7.61a4.68,4.68,0,0,1,4.87-5.4c-3.34,11.85,7.13,8.47,5.56,1-1-4.91-6.12-8.67-9.82-5.8s-3.92,7.57-3.47,10.26.61,5.42-1.25,3.34S929.57,57,912.56,51.64s-36.12-3.49-51.79.11-36.65,15.12-48.39,20.71-35.78,19.08-45,22.75-18.67,4.79-24.9,5.61c-8,1-16,.23-13.42-.08" transform="translate(0.91 -25.09)"/><path class="cls-3" d="M716.85,203c-1.78-4.48-13.57-32.7,8.12-47.8,13.14-9.16,15.95-10.22,45.62-9.64,40.71.81,61.26-20.3,72.67-34.6,9.5-11.94,9.49-17.72,13.15-23.46a147.77,147.77,0,0,1,11.22-15.33c-9.36,5-17.25,21.62-22.94,26.31,0,.09.62.47,1.3.15.88-.42,3.39-2,3.39-2l.06,3.65-2,1.54-.21,2.19-2.45,1.28-.29,2.37-3.58,1.54-.87,2.32c-1,.59-3.76,2-3.76,2l-1,3.33-5.17.5-2.59,5.91-6.45.51-3,4.82-6.2.6-3.7,5.51-7.57-2.05L796.5,138l-7.22-2.39-4,4.15-7.62-3.07-4.35,4-9.54-4.4-4.2,1.86-4.25-3-4.66,3.37-6.24-2.67-2.82,3.18-5.57-1-3.73,5-4,0L727.24,147l-6.32.77-.59,5.48-5,1.77.16,4.27-4,2.37.19,4-2.21,2,1,3.61-2.41,3.23,1.37,2.19-1.6,3.69,1.83,2.14-1.21,2.65,1.64,2.07-1,2.78,2.16,1.83-.51,2.56,2.36,1.9.27,2.2L715,200Z" transform="translate(0.91 -25.09)"/><path class="cls-3" d="M717,203.14c-2.85-.61-3.65-.41-9.23-8.95s-6.92-23.14-3.45-35.35,15.19-32.42,37.27-35.18,36.84,5.3,55.71-1.78,34.05-11.92,38.55-15.13,6.91-6.77,10.76-10L846,98.58l-.25,2.35-2.13.63-.49,2.09-2.31.16-.66,3.1-3.45,1-1.63,2.88-4.42.09-1.49,2.73-6.73.94-2,3.68H814l-3.71,4.5-7.13-1.16-3.9,4.81-7.26-.93-3,3.27-8-2.52-2.81,3.41-8.28-2.88L767.69,130l-7-4.23-4.1,2.73-7.16-2.72-4.67,3.5-7.88-2-2.33,4.46-8.44.49-2.41,5.06-5.58,1.46-1.47,5.5-5.44,2.11-.49,6.7L707,156l1.16,4.35-3.51,2.73L706,167.8l-2.05,2.77,1.72,4.19-1.47,2.36,2,3.66-1.24,2.16,2.15,2.66-.84,2.43,2,1.94-.35,2.89,2,2,.27,2.13,2.27,2,1.05,2.27Z" transform="translate(0.91 -25.09)"/><path class="cls-3" d="M941.16,369.6c4.14,0,7.64,4.41,7.53,6.78s-1.61,6.09-4.41,5.84-5.94-2.6-5.29-5.14,2.85-2,4-1.41,1.38,1.45.83,2-1.61-.13-1.55.58,1.91,3.31,3.86.95.74-4.23-.87-5.58-5-1.56-6.35-.44-2.12,5.21-1.64,6.35,2.27,2.18,2.3,3.55-1.86,3.23-.35,4.1,3.41.79,6-1.52a4.7,4.7,0,0,1,6.48.25c1.12,1,2,2.81,0,4.2s-3.34-.47-2.76-.9,1.14-1.81.07-1.71-3.62,1.52-5.33,2.94a7,7,0,0,1-8.44-.07c-2.88-2.33-1.74-5-.87-5.59s2.43-1.62,2.14-2.63-1.78-3.49-1.29-5.59,2.53-7,5.94-7" transform="translate(0.91 -25.09)"/><path class="cls-3" d="M957.27,389.4c1.44,1,1.11,3.45-.19,4.88s-4.37,2.37-6.06,1-.12-1.84,1.07-2.12,2.78-1.13,2.81-2.19.92-2.5,2.37-1.54" transform="translate(0.91 -25.09)"/><path class="cls-3" d="M945.87,392.91c1.7,2.61,5.39,4.8,7,4.52s9.32-2.18,12.61-1.61,8.7,5.12,7.77,8.42-6.16,7.53-8.63,6.82-6.28-2.14-6.78-4.64,3.13-6,5.64-4.76,1.56,1.58.31,1.56-1.8-1.06-2.67,0-1.21,1.91-.15,3,4,1.68,5.15.73c1.43-1.18,2.42-3.51,2.06-4.71-.43-1.4-.44-2.59-2.95-3.05s-4.64.56-6.55,1.86-4.79,2.76-7.17,2.12a38.38,38.38,0,0,1-9.57-4.88,22.22,22.22,0,0,1-3.33-3.3c-.76-.91,1.37-1.12,2.78-1.12a22.74,22.74,0,0,0,4.48-.94" transform="translate(0.91 -25.09)"/><path class="cls-3" d="M981.67,395.23c2.31.59,3.06,3.67,2.93,5.06s-2.64,7.86-4.61,9.25-3.91,2.53-5.72,2.28-3.45-.13-4.22-.24-.5-.88.47-1.46a16.67,16.67,0,0,0,3.72-3.46c1.19.52,5.86-3,6.58-4.83s-.4-2.43-.82-2.44c-1.58.84-3.38-1.44-2.27-2.6a4.32,4.32,0,0,1,3.94-1.56" transform="translate(0.91 -25.09)"/><path class="cls-3" d="M989.48,405.31c1.75,1.6.81,5.28-.58,6.65a20.81,20.81,0,0,1-6.76,3.75A11.61,11.61,0,0,1,977,416c-1.32-.33-4.43-.78-3.85-1.74,1.58-.75,3.53-1.2,4.73-1.89,1.64.28,4.94.21,6.2-.57s3.49-1.74,3.31-3.07-1.42-.41-2-1.44a2.12,2.12,0,0,1,.82-3c1.2-.7,2.16-.05,3.28,1" transform="translate(0.91 -25.09)"/><path class="cls-3" d="M749.61,106.82c-.55-5.27,12.23-5.9,16.42-7.42s13.77-3.47,16.91-3.3c3.3,3.47,7.73,12.12,12,12.81s23.84-7.1,30.37-18.59S839,74.82,839.72,71.77c-2.39-2.12-7.07-4.71-6.32-6.67S839.84,63,842.16,64s7.55-2.71,10-4.17c3.92-1.23,6.34,1.44,3.66,4.83s-6.81,6-8.89,9.91-6.46,17.17-14.34,24.3-33,16.77-38.19,16.4-8.72-3.57-9.72-6.57-4.43-8.65-7.78-7.44-9.85,2.25-10.84,5,2.22,4.6,5.6,3.94,4-5.9,6-4.6,5.34,4.23,3.5,7.32-6.92,3.79-10.93,3.38-20.14-4.3-20.69-9.5" transform="translate(0.91 -25.09)"/><path class="cls-3" d="M789.38,94c1.81-3.94,10.24-5.56,14.19-6.23,4.26-.42,3.92,4.27,2.33,6.52a7.92,7.92,0,0,1-6.4,3c-1.43-.23-1.32-3.54,2.25-3.24,1.85-3.09-2.8-2-4.47-1.36s-4.63,4.27-2.81,6.41,5.58,3.39,8.07,1.93,8.06-5.8,8.82-8.39c.85-2.92-.48-6.72,1.74-7.9s7.76-4.1,10.52-5.84c4-.13,2.06,1.31.77,3.82S819,94.11,815.14,97s-13.49,9-16.06,8.77-6.9-1.42-8.18-4.13-2.55-5.41-1.52-7.65" transform="translate(0.91 -25.09)"/><path class="cls-3" d="M869.24,326.32c8.9.35,12.42,1.91,15.37,3.49,3.47,1.88-5.48,2.88-8.16,4.89-4,3-2.08,8.23-4.56,8.67s-7.57-6.32-11.25-7.79-9.15-.44-12.9,2.35-5.41,8.35-3,10.46,6.5,3.62,8.83,1,3.44-2.87,2.41-5.46c-.58-1.48-5.32-2.73-4.29-.92,2.38,4.21-2.19,4.87-3.75,2.78s2.88-7.86,6.23-7.43,10.1,5.86,7.2,11.22A12.47,12.47,0,0,1,848,355.66c-4.39-1-13.33-7.21-10.59-13.93s12.07-11.76,17.91-13.47,9.11-2.15,13.91-1.94" transform="translate(0.91 -25.09)"/><path class="cls-3" d="M997.87,404.65c3.45.59,3.83,15.39,2.39,23.12s-5,15.18-10,17.88-11.07,4.91-15.18.2-2.19-9.55-.31-13.25,5.64-5.31,9.73-3.39,5.36,5.49,4.15,7.5-5.46,2.58-5.39-1.56-3.67-.67-3.82,1.84,4.13,6.56,7.23,4.78,5.68-6.47,5.19-10.29-1.6-7.14-4-9.77c-3.33-3.56,1-6,3.47-8.16,4.51-3.95,3.58-9.39,6.57-8.9" transform="translate(0.91 -25.09)"/><path class="cls-3" d="M936.6,364.76c-1.63-3.69-7.21-5.05-9.4-4s-5.11,3.87-3.75,6.28,4.83,4.25,7,2.66.78-3.36-.26-4.11-1.91-.65-2.25.08.77,1.38.06,1.61-3.88-.39-2.43-3.06,3.71-2.35,5.61-1.45,3.47,3.81,3,5.48-4.07,4-5.32,4-3-1.16-4.28-.63-2.3,2.94-3.73,1.94-2.1-2.73-1-6-1.41-5.08-2.82-5.66-3.44-.65-4,1.66,1.78,2.8,2,2.11,1.25-1.74,1.58-.75,0,3.83-.65,5.92a6.57,6.57,0,0,0,3.45,7.49c3.35,1.65,5.36-.42,5.61-1.45s.57-2.82,1.62-3,4,.2,5.79-1.09,5.58-5,4.24-8.08" transform="translate(0.91 -25.09)"/><path class="cls-3" d="M911.6,358.81c-1.49-.9-3.69.39-4.53,2.12s-.49,4.83,1.51,5.79,1.78-.63,1.57-1.8,0-2.93.94-3.38,2-1.83.51-2.73" transform="translate(0.91 -25.09)"/><path class="cls-3" d="M912.84,370.37c-3.14-.47-6.68-2.89-7.06-4.43s-1.67-9.18-3.51-11.87-8.31-5.71-11.06-3.57-4.64,8.5-3,10.42,4.52,4.73,7.08,4.18,4.44-5.19,2.25-6.93-2.12-.75-1.6.35,1.72,1.18,1.09,2.38-1.32,1.83-2.78,1.33-3.18-2.89-2.74-4.31c.53-1.73,2.34-3.55,3.63-3.71,1.48-.18,2.61-.64,4,1.41s1.32,4.36.87,6.58-.71,5.37.84,7.23a38.57,38.57,0,0,0,8.44,6.58,21.7,21.7,0,0,0,4.44,1.64c1.18.32.52-1.66,0-2.92a20.23,20.23,0,0,1-.9-4.36" transform="translate(0.91 -25.09)"/><path class="cls-3" d="M894.28,341.44c-1.49-1.83-4.69-1.27-5.94-.59s-4.29,3.45-4.82,5.76-.82,4.51.14,6,1.5,3,1.9,3.66,1,.1,1.19-1a16.51,16.51,0,0,1,1.79-4.69c-1-.85-1.58-4.39-.16-5.76s2.46-.6,2.64-.24c-.16,1.75,2.7,2.44,3.36,1a4.06,4.06,0,0,0-.1-4.14" transform="translate(0.91 -25.09)"/><path class="cls-3" d="M883.72,336.47c-2.21-.93-5.29,1.38-6,3.17a19.49,19.49,0,0,0-.84,7.52,10.93,10.93,0,0,0,1.76,4.76c.84,1,2.51,3.63,3.2,2.73.05-1.71-.29-3.63-.11-5-.93-1.35-2.18-4.32-2-5.75s.25-3.81,1.58-4.18.95,1.11,2.14,1.17a2.2,2.2,0,0,0,2.47-1.92c.18-1.33-.81-1.94-2.22-2.53" transform="translate(0.91 -25.09)"/><path class="cls-3" d="M854.63,76.77c4.3-10,13.38-20.15,24.08-22.19s28.58-3.71,43.92,6.88c-21.54-1-28.72-1.39-35.08,0s-24.88,8.7-32.92,15.34" transform="translate(0.91 -25.09)"/><path class="cls-3" d="M657.76,195.51c-1.35-3.59.88-15.26,1.73-21.06s4.81-13.42,9.62-14,12.29,2.33,13.71,5.58,1.15,9.25-2.55,11.5-6.42,3.09-10,.95-3.73-4.29-2.57-6.82,5.1-1.37,5.07.14c-.06,2.09,0,4.76,3.86,3.15,2.93-1.21,4.71-4.4,1.2-6.72s-5.59-3.63-9.36-2.54c-2.78.81-5.37,8.94-4.76,11.55.91,3.84,4.42,8.13,7.27,8.72s4.28.28,3.58,2.14-3,2.28-5.61,3.87-7.17,3.95-8.29,4.59a1.86,1.86,0,0,1-2.9-1.05" transform="translate(0.91 -25.09)"/><path class="cls-3" d="M695.23,127.35a11.14,11.14,0,0,1,1.61,8.58c-.63,2.3-1.58,1.33-4.57,1.09s-9.79,2.15-11.66,4.21S674.69,150,677.7,152s4.4.54,6.1.1,1.6-1.95,1-3.22-1.18.2-3.29-1.19.6-3.36,2.56-3.92,5.88,1.28,7,4.21-1.36,8.34-3.61,9.65a11.77,11.77,0,0,1-10.67,1c-5-1.82-7.18-4.28-7-8.85s5.11-10.15,7.24-12.33,7.32-7.25,10.21-8.53,5.69-4.67,8-1.52" transform="translate(0.91 -25.09)"/><path class="cls-3" d="M697.87,179.33c-5.4-5.88-6.71-12.53-6-19,1-9.94,6.7-34.35,28.92-43.73,12-5.07,28.77-4.21,39.54,1.36-20.06-1.07-44.09,4.57-52.79,20.8s-10.75,29.52-9.63,40.6" transform="translate(0.91 -25.09)"/><path class="cls-3" d="M699.32,129.32c-2.5-15.22,17.41-22.84,21.87-24.1,5.23-1.48,17.61-.94,26.14,4.38-9.87-.19-23.38,0-31.52,3.77-5.79,2.71-12.24,8.5-16.49,15.95" transform="translate(0.91 -25.09)"/><path class="cls-3" d="M952.8,365.68a4.19,4.19,0,0,1-1.55-1.18c.09-.78-.35-2.76-1-2.51s-2.67,1.62-2.91,2.34-1.15.87-1.66,1.05-2.8-.56-3.7-.51a3.37,3.37,0,0,1-1.52-.31,14.47,14.47,0,0,1-2-2.05c-.35-.38.12-.71.78-.77a40.21,40.21,0,0,1,4.1.07c.71.1,2.33,1,2.69.83.67-.44-1-.94-1.9-1.57s-2.36-2.16-2.45-3.41-.19-3.92.37-4.88c-.26-1-.77-.59-1.52-.64a7.21,7.21,0,0,1-2.29-.52c-.51-.28-1.2-1.09-1.12-1.5.52-.36,1.56,0,2-.1s1.05-.08,1.53-.23a7.37,7.37,0,0,0,1.87.73,2.18,2.18,0,0,1,.63-.77c0-.65-.15-.72,0-1.09.43.12.65.66,1,.63a6.26,6.26,0,0,0,.7-.13,4.6,4.6,0,0,1,.48-1.05c.21-.37,0-.71-.14-1.25s.37-1.27.3-1.83-.14-1.44.18-1.54,1,.59,1.23,1a3.29,3.29,0,0,1-.06,4.74,9.11,9.11,0,0,0,2,.58,5.16,5.16,0,0,1,2.9,1.85,12.32,12.32,0,0,1,2,3.15,4.07,4.07,0,0,1,.14,1.73c.43-.6,1.07-1.07,1.07-1.49a2.26,2.26,0,0,1,.69-1.71c.67-.73,1-2.08,1.51-2.45s.82-.05,1,.87a9.45,9.45,0,0,1-.4,3.67,8.14,8.14,0,0,1-1.67,2.82,4.23,4.23,0,0,1-2.48.57c-.12.75-1.31,2-1.16,2.66s.66.84,1.12,1.12a1.68,1.68,0,0,1,.88,1.49c0,.67.06,1.51-.37,1.76s-1-.06-1.33-.14m-.36-8.76c.29-1.58-.78-3.11-1.71-4a7.66,7.66,0,0,0-4.19-1.88,2.89,2.89,0,0,0-2.91,2,8.78,8.78,0,0,0,.44,5.21c.91,1.87,2.66,3,3.79,2.92a4.53,4.53,0,0,0,4.58-4.21" transform="translate(0.91 -25.09)"/><path class="cls-3" d="M949.63,361.37c-.57-.79-1.14-1.62-1.7-2.45-.38-.57-.77-1.14-1.16-1.7a6.33,6.33,0,0,1-1-2.4,4.48,4.48,0,0,0-.57-1.59,6.15,6.15,0,0,0-.53-.61,5,5,0,0,1-1.23-1.76l2.33-.72a3.82,3.82,0,0,0,.71.9,8.11,8.11,0,0,1,.76.89,6.44,6.44,0,0,1,.94,2.43,4,4,0,0,0,.65,1.56l1.16,1.71c.55.82,1.11,1.64,1.67,2.43Z" transform="translate(0.91 -25.09)"/><path class="cls-3" d="M717.52,219.62c1.9-.15,3.74,1.57,5.69.95,1.79-.57,2.79-2.74,3.71-3.91,1.24-1.31,4.38,6.17,3.68,7.5-.46.86-.58-1-1.78-2.49-.68-.85-1.12-1.65-1.77-1.66-1.91,1.46-1.5,3.64-.59,5.64a9,9,0,0,0,2.22,3c1.67,1.44,0,1.94-2.18.08-.76,1.31-3.11,3.35-2,1,.4-1.56-.61-6.17-1.95-7.16s-2.33-.33-2.1.62,3.44,5.26,2,4.5c-2.39-1.3-6.74-7.86-5-8.09" transform="translate(0.91 -25.09)"/><path class="cls-3" d="M723.54,218.18c.37.73.32,1.47-.12,1.67s-1.08-.22-1.44-.94-.32-1.47.11-1.66,1.08.21,1.45.93" transform="translate(0.91 -25.09)"/><path class="cls-3" d="M914.84,243.16c-2.78-3.44,6.27,5.07,9.76,5.87,2.62,2.34,7.09,11.41,7.45,14.34-2,2.3-3.8,0-4.73-2.18s-.62-5-2.14-4.83-1.44,3.84.11,6.77c1.17,2.24,2.76,3.92,6.69,5.11,4,2.6,4.55,11.21,5.72,13.5.78,2.61-5-.42-5-2s-.91-5.81-2.16-5.55-1.21,6.65.55,8.92,4.5,2.79,6.48,3.73c1.74,1.57,3.21,9.33,3.11,11.16-1.64,1.27-4.54-1.88-4.19-3.62s-1.15-3.91-2.39-3-.35,6.4.63,7.68,3.46,2.42,6,3.34c1.52,2.19,1.31,8.18,1.31,10.51-1.46,1.57-3.47-.93-3.75-1.72s.32-2.32.26-3.75-2.82-1-3.43.63,1.59,6.64,4.34,7.87,1.85,9.07,1.24,10.71-3.65-.43-3-2.07,1.08-5.17-.84-4.7-2.82,6-2.59,7.69,2.62,2.35,4.21,4.33-.63,7.15-1.48,9.41a1.55,1.55,0,0,1-3.06-.4c.48-2.08.66-2.95,1.3-3.88s.47-2-1.14-2.76c-2.15-1-2,2.06-4.37,3.43-1,.76-2.61,1.7-1.82.18,4.26-8.28,4.57-8.87,4-22.12-.31-7.41-2-28.95-8.26-48.67-1.48-4.71-7.23-22-8.82-24" transform="translate(0.91 -25.09)"/><path class="cls-3" d="M957.24,310.61c-1.28,6-1.39,29.53-1.08,38.07-6.61-5.76-12.57-10.16-12.55-16.47,0-3.9-.47-2.27.6-8.62s2.24-10.7.76-17.7c-.15-.7-.94-6.19.18-7.51,1.59-1.88,4.07,2.42,4.33,3.25.81,2.54,3.08,3.4,3.18,4.8.25,3.28-7.16,9.77-3.54,28.62,3.83-.44.87-14.43,2.54-18.89s6.75-11,5.58-5.55" transform="translate(0.91 -25.09)"/><path class="cls-3" d="M970.53,374.35c3.87,1.4,8.39,5.47,12.67,9.92-1.4,4.36-10.82,3.27-14.39.87s-4-10.17-4-12.2c-1.43-1.36-5-3.77-5.7.62s3.21,13.29,6.75,15.45c3.85,2.33,13.61,2.67,19.65-2,4.64,2.42,10.3,10.14,11.39,14.87a14.85,14.85,0,0,1-8.94-1.32c1.42-2.35.4-11.49-2.08-11.18-3.2,2-14.23,5.57-20.3,1.78s-8.93-10.55-8.59-15.28A32.72,32.72,0,0,1,960.39,364a77.45,77.45,0,0,0,7.31,7.33c-.71,2.69-.32,11.81,3.6,12.87s7.83.42,8.54-1.26c0-.67-1.79-1.7-2.5-2.73-1.78,1.34-3.78,1.63-5.56.25s-2.66-4.39-1.25-6.07" transform="translate(0.91 -25.09)"/><path class="cls-3" d="M920.61,341.73c-3.26-1.46-9.72-2.94-15.58-4.49-2.82,3.56,3.07,10.85,7,12.32s10.91-3.17,12.57-4.3c1.88.36,5.57,1,2.36,4s-12.61,4.91-16.27,3.31c-4.38-1.92-9.79-5.25-8.88-16.65a49.47,49.47,0,0,0-14-4.51c-.8,2.52-1,6,1,7.1,1.16-2.44,9.69-3.17,10.76-1,.08,3.65,3.13,13.85,9.47,16.53s13.45,1.16,17.13-1.75,8.15-6,9-7.83a80.23,80.23,0,0,1-11.2-2.5c-1.83,2.06-9.48,7.61-12.44,5.11s-4.53-6-3.54-7.47c.56-.36,2.29.95,3.5.93a3.57,3.57,0,0,0,2.85,4.07c2.08.64,5.73-.79,6.35-2.85" transform="translate(0.91 -25.09)"/><path class="cls-4" d="M1309.17,201.51c2.19.79-1.33,5.13-3,7.91s-2.11,4.86-4.6,6.06-11.21-2.08-17.42.45-6.76,11-3.77,13.23,8.28,2.86,10.66-.78-2.83-3.55-3.27-3.56c-.58.77-1,3.22-3,2.83-1.62-.31-2.72-5.61.85-6.57s5.67-2.11,11.29-1.14c.52.07,2.74.26,3.38.76-.19,1.09-1.49,2.51-2.56,5.74a21.84,21.84,0,0,1-5.34,6.64c-2.61,2.28-8.06,5.5-13,3.57s-8-7.53-7.88-11,2.2-12.12,6.87-15.63,16.54-3.41,19.76-4.37c5.76-1.71,8.64-4.74,11.05-4.15" transform="translate(0.91 -25.09)"/></g><path class="cls-5" d="M1176.59,180.19l-39.83,120.56,43.62,146.45h-71.74l-28.12-114.46V447.2h-69.43v-267h69.43V283.93l30.92-103.74Z" transform="translate(0.91 -25.09)"/><path class="cls-5" d="M1319.12,180.19l39.7,267h-71l-3.73-48H1259.3l-4.17,48h-71.78l35.41-267Zm-36.8,171.68q-5.27-45.36-10.57-112.14-10.62,76.7-13.33,112.14Z" transform="translate(0.91 -25.09)"/><path class="cls-5" d="M1440,180.19v267h-69.43v-267Z" transform="translate(0.91 -25.09)"/><path class="cls-3" d="M46,428.27v10.12l-12.48,1.72v4.53L46,446.38v10.11L-.49,448.86V435.92ZM27.05,440.93,13.18,442.4l13.87,1.39Z" transform="translate(0.91 -25.09)"/><path class="cls-3" d="M-.49,399.55,46,405.81v14.42L-.49,426.5v-9.94L32,413l-32.46-3.5Z" transform="translate(0.91 -25.09)"/><path class="cls-3" d="M46,387.08v10.21H-.49V387.08Z" transform="translate(0.91 -25.09)"/><path class="cls-3" d="M46,364.74v19.14H-.49v-10.2H40v-8.94Z" transform="translate(0.91 -25.09)"/><path class="cls-3" d="M46,334.52v10.11l-12.48,1.73v4.52L46,352.63v10.11L-.49,355.11V342.17ZM27.05,347.18l-13.87,1.47L27.05,350Z" transform="translate(0.91 -25.09)"/><path class="cls-3" d="M46,319H-.49V307a14,14,0,0,1,2-7.48,6.82,6.82,0,0,1,6.27-3.18h6.45q4.89,0,6.9,6,1.55-6.29,6.7-6.28h9q4.61,0,6.88,3A11.39,11.39,0,0,1,46,306.16ZM15.83,306H7.91c-1.62,0-2.44,1-2.44,2.86H18.3C18.3,306.92,17.48,306,15.83,306Zm21.71,0H25.78c-1.62,0-2.42,1-2.42,2.86H40C40,306.92,39.19,306,37.54,306Z" transform="translate(0.91 -25.09)"/><path class="cls-3" d="M46,272.8v20H-.49V272.93h6v9.62H18v-8.68h5.64v8.68H40V272.8Z" transform="translate(0.91 -25.09)"/><path class="cls-3" d="M46,242.49V252.6l-12.48,1.72v4.53L46,260.59V270.7L-.49,263.07V250.13ZM27.05,255.14l-13.87,1.47L27.05,258Z" transform="translate(0.91 -25.09)"/><path class="cls-3" d="M15.74,217.49v9.26H6.54c-.75,0-1.13.47-1.13,1.41s.38,1.47,1.13,1.47H38.78c.75,0,1.13-.49,1.13-1.47s-.38-1.41-1.13-1.41H27.31v-9.26H39.1a6,6,0,0,1,5.3,3.24,13.74,13.74,0,0,1,2,7.32q0,11.79-8.36,11.79H8.13q-9,0-9-11.79,0-10.56,8.23-10.56Z" transform="translate(0.91 -25.09)"/><path class="cls-3" d="M46,191.09V201.3H23.68v2.85H46v10.2H-.49v-10.2H18V201.3H-.49V191.09Z" transform="translate(0.91 -25.09)"/><path class="cls-5" d="M60,190.24H129.9q28.36,0,43.62,4.45t22.92,12.87a44.09,44.09,0,0,1,10.39,20.37q2.73,12,2.72,37V288.2q0,25.57-5.27,37.28t-19.38,18q-14.1,6.27-36.86,6.27H129.4V457.25H60Zm69.43,45.68v68c2,.11,3.69.17,5.12.17q9.55,0,13.27-4.7t3.71-19.55V257.86q0-13.7-4.29-17.81T129.4,235.92Z" transform="translate(0.91 -25.09)"/><path class="cls-5" d="M341.12,190.24l39.7,267H309.87l-3.73-48H281.3l-4.17,48H205.35l35.41-267Zm-36.8,171.68q-5.26-45.36-10.58-112.14-10.61,76.7-13.32,112.14Z" transform="translate(0.91 -25.09)"/><path class="cls-5" d="M462,190.24V403.81h42.22v53.44H392.61v-267Z" transform="translate(0.91 -25.09)"/><path class="cls-5" d="M521.08,190.24H636.86v53.44H590.52v50.63h43.37V345.1H590.52v58.71h51v53.44H521.08Z" transform="translate(0.91 -25.09)"/><path class="cls-3" d="M731.33,502.94V469.37q0-10.15,15-10.15,14.82,0,14.83,10.07v33.58a7.72,7.72,0,0,1-4.13,7q-4.14,2.46-10.79,2.46Q731.34,512.33,731.33,502.94Zm17.11.55V468c0-1.05-.71-1.57-2.13-1.57s-2.2.52-2.2,1.57v35.54c0,1,.73,1.56,2.2,1.56S748.44,504.53,748.44,503.49Z" transform="translate(0.91 -25.09)"/><path class="cls-3" d="M770.31,459.69h13.1v43.8c0,1,.74,1.56,2.21,1.56s2.16-.52,2.16-1.56v-43.8h13.11v43.18a7.71,7.71,0,0,1-4.29,7,21.74,21.74,0,0,1-11,2.47,24.32,24.32,0,0,1-10.76-2.22,7.45,7.45,0,0,1-4.55-7.17Z" transform="translate(0.91 -25.09)"/><path class="cls-3" d="M837.45,466.49h-7.33v45.37H817V466.49h-7.33v-6.8h27.76Z" transform="translate(0.91 -25.09)"/><path class="cls-3" d="M878.71,511.93H865.6q-2.11-2.22-2.12-12.59v-.07l.08-3.13c.08-4.34.13-6.56.13-6.66q0-2.66-4.08-2.65v25H846.5V459.69h16.19a19.91,19.91,0,0,1,9.63,2.22,7.44,7.44,0,0,1,4.1,7v6.26q0,6.07-8.12,8.22,8.16,1.66,8.16,8.62l-.21,5.71C876.25,506.09,877.07,510.81,878.71,511.93Zm-15.07-34.2v-8.61q0-2.75-4-2.74V480.5C862.3,480.5,863.64,479.57,863.64,477.73Z" transform="translate(0.91 -25.09)"/><path class="cls-3" d="M899.79,511.86H886.68V459.69h13.11Z" transform="translate(0.91 -25.09)"/><path class="cls-3" d="M937.55,511.86h-6.28L929.56,509a14.71,14.71,0,0,1-9.15,3.35,15.53,15.53,0,0,1-8.22-2.13,7.35,7.35,0,0,1-3.52-6.78V469.37q0-10.15,14.82-10.15,14.06,0,14.06,9.24v9.67h-11.9V467.58c0-.85-.64-1.27-1.93-1.27s-1.94.42-1.94,1.27v36.2c0,.85.65,1.27,1.94,1.27s1.93-.42,1.93-1.27V494H923v-8h14.56Z" transform="translate(0.91 -25.09)"/><path class="cls-3" d="M975.48,511.86H969.2L967.49,509a14.71,14.71,0,0,1-9.15,3.35,15.56,15.56,0,0,1-8.22-2.13,7.34,7.34,0,0,1-3.51-6.78V469.37q0-10.15,14.81-10.15,14.05,0,14.06,9.24v9.67h-11.9V467.58c0-.85-.64-1.27-1.93-1.27s-1.94.42-1.94,1.27v36.2c0,.85.65,1.27,1.94,1.27s1.93-.42,1.93-1.27V494h-2.66v-8h14.56Z" transform="translate(0.91 -25.09)"/><path class="cls-3" d="M1010.29,511.86H984.66V459.69h25.47v6.69H997.77V480.5h11.15v6.33H997.77v18.33h12.52Z" transform="translate(0.91 -25.09)"/><path class="cls-3" d="M1051.22,511.93h-13.11q-2.11-2.22-2.12-12.59v-.07l.08-3.13q.14-6.51.13-6.66,0-2.66-4.08-2.65v25H1019V459.69h16.19a19.91,19.91,0,0,1,9.63,2.22,7.42,7.42,0,0,1,4.1,7v6.26q0,6.07-8.11,8.22,8.15,1.66,8.15,8.62l-.2,5.71C1048.77,506.09,1049.58,510.81,1051.22,511.93Zm-15.06-34.2v-8.61q0-2.75-4-2.74V480.5C1034.81,480.5,1036.16,479.57,1036.16,477.73Z" transform="translate(0.91 -25.09)"/><path class="cls-3" d="M1109.65,477.92h-11.9V467.58c0-.85-.6-1.27-1.81-1.27s-1.9.42-1.9,1.27v36.2c0,.85.64,1.27,1.9,1.27s1.81-.42,1.81-1.27V490.9h11.9v13.24q0,3.72-4.16,5.95a19.59,19.59,0,0,1-9.41,2.24q-15.13,0-15.14-9.39V469.37q0-10.15,15.14-10.15,13.58,0,13.57,9.24Z" transform="translate(0.91 -25.09)"/><path class="cls-3" d="M1154.32,511.86h-13l-2.21-14h-5.82l-2.23,14h-13l9.8-52.17h16.62Zm-16.26-21.25L1136.18,475l-1.79,15.57Z" transform="translate(0.91 -25.09)"/><path class="cls-3" d="M1196.12,511.86h-13.48l-8.9-27.8v27.8h-11V459.69h14.9l7.49,23.79V459.69h10.94Z" transform="translate(0.91 -25.09)"/><path class="cls-3" d="M1205.26,502.94V469.37q0-10.15,15-10.15,14.84,0,14.83,10.07v33.58a7.71,7.71,0,0,1-4.13,7q-4.14,2.46-10.78,2.46Q1205.25,512.33,1205.26,502.94Zm17.1.55V468c0-1.05-.71-1.57-2.12-1.57s-2.21.52-2.21,1.57v35.54c0,1,.74,1.56,2.21,1.56S1222.36,504.53,1222.36,503.49Z" transform="translate(0.91 -25.09)"/><path class="cls-3" d="M1270,511.86h-25.64V459.69h25.47v6.69h-12.36V480.5h11.15v6.33h-11.15v18.33H1270Z" transform="translate(0.91 -25.09)"/><path class="cls-3" d="M1328.75,477.92h-11.9V467.58c0-.85-.61-1.27-1.81-1.27s-1.9.42-1.9,1.27v36.2c0,.85.64,1.27,1.9,1.27s1.81-.42,1.81-1.27V490.9h11.9v13.24q0,3.72-4.16,5.95a19.59,19.59,0,0,1-9.41,2.24q-15.15,0-15.14-9.39V469.37q0-10.15,15.14-10.15,13.58,0,13.57,9.24Z" transform="translate(0.91 -25.09)"/><path class="cls-3" d="M1362.73,511.86h-24.6V459.69h13.11v45.47h11.49Z" transform="translate(0.91 -25.09)"/><path class="cls-3" d="M1371.07,459.69h13.11v43.8c0,1,.73,1.56,2.2,1.56s2.17-.52,2.17-1.56v-43.8h13.11v43.18a7.71,7.71,0,0,1-4.29,7,21.78,21.78,0,0,1-11,2.47,24.3,24.3,0,0,1-10.75-2.22,7.46,7.46,0,0,1-4.56-7.17Z" transform="translate(0.91 -25.09)"/><path class="cls-3" d="M1410.79,511.86V459.69h15.44a19.91,19.91,0,0,1,9.61,2.2,7.43,7.43,0,0,1,4.08,7v7.24q0,5.49-7.66,7.75,8.07,1.74,8.08,7.53v10.11a8.67,8.67,0,0,1-3.85,7.73,16.19,16.19,0,0,1-9.18,2.57ZM1427.56,478v-8.9q0-2.75-3.66-2.74v14.41Q1427.56,480.79,1427.56,478Zm0,24.38V489.19q0-2.73-3.66-2.73v18.7Q1427.56,505.16,1427.56,502.4Z" transform="translate(0.91 -25.09)"/></svg>