<?xml version="1.0" encoding="utf-8"?>
<!-- Generator: Adobe Illustrator 22.0.0, SVG Export Plug-In . SVG Version: 6.00 Build 0)  -->
<svg version="1.0" id="Layer_1" xmlns="http://www.w3.org/2000/svg" xmlns:xlink="http://www.w3.org/1999/xlink" x="0px" y="0px"
	 viewBox="0 0 532.3 176.3" style="enable-background:new 0 0 532.3 176.3;" xml:space="preserve">
<style type="text/css">
	.st0{stroke:#000000;stroke-miterlimit:10;}
	.st1{fill:#824A9D;}
	.st2{clip-path:url(#SVGID_2_);fill:#F7E21C;}
	.st3{clip-path:url(#SVGID_2_);fill:#F6E800;}
	.st4{clip-path:url(#SVGID_2_);fill:#F7E21C;stroke:#F6E800;}
</style>
<g>
	<g>
		<path class="st1" d="M426.3,46.3l-14.8,44.9l16.2,54.5H401l-10.5-42.6v42.6h-25.8V46.3h25.8v38.6l11.5-38.6H426.3z"/>
		<path class="st1" d="M479.4,46.3l14.8,99.3h-26.4l-1.4-17.9h-9.2l-1.6,17.9h-26.7L442,46.3H479.4z M465.7,110.2
			C464.4,99,463,85,461.7,68.5c-2.6,19-4.3,32.9-5,41.7H465.7z"/>
		<path class="st1" d="M524.4,46.3v99.3h-25.8V46.3H524.4z"/>
	</g>
	<g>
		<path class="st1" d="M10.2,46.3h26c7,0,12.4,0.6,16.2,1.7c3.8,1.1,6.6,2.7,8.5,4.8c1.9,2.1,3.2,4.6,3.9,7.6c0.7,3,1,7.6,1,13.8
			v8.7c0,6.3-0.7,11-2,13.9c-1.3,2.9-3.7,5.1-7.2,6.7c-3.5,1.6-8.1,2.3-13.7,2.3H36v40H10.2V46.3z M36,63.3v25.3
			c0.7,0,1.4,0.1,1.9,0.1c2.4,0,4-0.6,4.9-1.7c0.9-1.2,1.4-3.6,1.4-7.3v-8.2c0-3.4-0.5-5.6-1.6-6.6C41.6,63.8,39.4,63.3,36,63.3z"/>
		<path class="st1" d="M114.8,46.3l14.8,99.3h-26.4l-1.4-17.9h-9.2L91,145.7H64.3l13.2-99.3H114.8z M101.1,110.2
			C99.8,99,98.5,85,97.1,68.5c-2.6,19-4.3,32.9-5,41.7H101.1z"/>
		<path class="st1" d="M159.8,46.3v79.5h15.7v19.9h-41.5V46.3H159.8z"/>
		<path class="st1" d="M181.7,46.3h43.1v19.9h-17.2v18.8h16.1V104h-16.1v21.8h19v19.9h-44.8V46.3z"/>
	</g>
</g>
<g>
	<defs>
		<polygon id="SVGID_1_" points="190,-82.9 450.7,-26.9 403.8,211.2 143.1,155.3 		"/>
	</defs>
	<clipPath id="SVGID_2_">
		<use xlink:href="#SVGID_1_"  style="overflow:visible;"/>
	</clipPath>
	<path class="st2" d="M242.7,99.8c0.4,0.4-1.2,2-2,3.1c-0.9,1.1-1.3,1.9-2.1,2.3c-0.8,0.4-2.6-1.3-4.6-0.5c-2,0.8-3.5,4.3-3.1,5.3
		c0.4,1,1.7,1.5,2.9,0.1c1.2-1.4-0.2-1.6-0.3-1.6c-0.3,0.3-0.8,1.3-1.2,1c-0.4-0.2,0.2-2.4,1.3-2.7c1.1-0.3,1.8-0.6,3.1,0
		c0.1,0,0.7,0.2,0.8,0.4c-0.2,0.4-0.8,1-1.6,2.3c-0.7,0.9-1.6,1.9-2.4,2.5c-1,0.8-2.9,1.9-3.9,1c-1-1-0.9-3.4-0.3-4.8
		c0.6-1.4,2.5-4.9,4.2-6.1c1.8-1.3,4.8-0.8,5.8-1C241,100.6,242.2,99.5,242.7,99.8"/>
	<path class="st2" d="M245.1,94.5c0.6-0.4,1.7-1.1,2-1.3c0.3-0.2,0.3,0.6,0.2,0.8c-0.2,0.9-1,1.5-1.3,2c-0.4,1-1.4,1.6-2.1,1.6
		c-0.7,0-1.9,0.2-4.6-3.5c-1-1.1-1.8-1.7-2.6-1.5c-0.8,0.2-2.5,0.7-2.7,3c-0.2,2.3,1.3,3.3,2.6,3c1.3-0.3,1.6-1.2,1.2-1.9
		c-0.3-0.7-1.1-1-1.3-0.4c-0.1,0.4,0.1,1.1-0.4,1.2c-0.5,0.1-1-0.2-1-1.4c0-1.2,0.7-1.9,1.2-2.1c0.5-0.2,1.3-0.1,2.3,0.6
		c0.9,0.7,1,1.6,1.1,2.1c0.1,0.5,0.6,1.3-0.1,2c-0.6,0.7-2.8,1.4-3.8,1.5c-1,0.2-3.3,0.5-4.2-1.6c-0.9-2.1-0.1-3,0.2-4.1
		c0.3-0.9,0.9-3,1.9-3.9c1-0.9,2.5-1,3.9,0c1.4,0.9,2.6,3.2,3.9,3.8C243.1,95,244.2,95.1,245.1,94.5"/>
	<path class="st2" d="M248.2,68c0.4,0.7-0.4,0.9-0.7,0.8c-0.3-0.1-0.5-0.5-0.5-0.8c-0.6,0-2-0.1-2.1,2.1c-0.1,2.1,2,1.3,2.4,1.2
		c0.4-0.1,1.4-0.5,1.7-0.8c0.4,0.6,1.6,2.7,1.6,3.1c-0.3,0.6-2.9,2.8-3.2,4.9c-0.3,2.1-0.2,5.2,0.3,5.8c0.8-0.4,1.9-1.1,2.3-1.2
		c-0.9-0.5-1.5-2.2-0.9-3.6c0.6-1.5,2.7-2.6,3.7-2.3c1,0.3,2.8,2,2.8,3c0,1-0.6,1.1-1,0.9c-0.5-0.2-0.4-1.1-0.3-1.5
		c-0.2-0.5-1-1.1-1.8-1.2c-0.8-0.1-1.9,0.4-2.1,1.6c-0.3,1.3,0.3,2.6,0.9,3c-0.2,0.6-1.3,1-1.7,1.3c-0.4,0.3-1.2,0.8-1.5,1.1
		c-0.6-0.5-1.8-2.5-3.5-3.5c-1.8-1-4.3-1.8-6.1-1.1c0.4,1,0.9,2.6,1.1,3.1c1.1-1.2,3.3-1.7,4.3-0.8c1,1,1.8,2.5,0.5,3.9
		c-1.2,1.4-2.8,1.3-3.5,0.3c-0.7-1,0.3-1.4,0.8-1.5c0.5-0.1,0.9,0.8,0.6,1.3c0.8-0.4,1.7-1,1.9-1.7c0.2-0.7-0.5-1.8-1.2-2
		c-0.8-0.2-2.7,1.1-3.2,1.8c-0.5-0.4-1.8-3.7-2.2-4.3c1.5-1,3.2-2,3.9-4.1c0,0,0.6-4.5,0.1-5.3c-0.9,0.6-1.9,1.3-2.5,1.4
		c1.1,0.3,1.4,1.8,1,3c-0.4,1.2-2.2,3.3-4,2.3c-1.9-1-1.2-2.5-0.7-3.5c0.5-0.9,1.5-0.6,1.8-0.1c0.4,0.5,0.1,0.9-0.2,0.9
		c-0.3,0-0.6-0.5-0.7-0.7c-0.3,0.5-0.7,1.8,0.3,2.2c1,0.5,1.9,0.5,2.6-1.5c0.1-0.7-0.5-2.2-1.5-2.7c0-0.6,1.3-0.8,1.6-1
		c0.3-0.2,1.7-1.2,2.1-1.6c0.6,0.3,2.1,3,4.1,3.7c1.4,0.4,4-0.1,4.5-0.5c0-0.5-0.3-1.5-1.2-1.8c-1.3,0.9-3,1-3.9,0.3
		c-0.9-0.7-1-2.6-0.5-3.5C244.8,67.6,247,66.5,248.2,68"/>
	<path class="st3" d="M233,78.1c0.5,0,1.7,0.9,2.2,1.2c-0.2,1.4,1.7,7.4,3.9,9.8c-2.5-1.3-5.4-1-6,0.3
		C233.9,86.1,233.4,78.9,233,78.1"/>
	<path class="st3" d="M252.6,87.6c-0.1-0.4-1-1.8-1.3-2.3c-0.9,1.1-7.4,5.5-11.3,4.7c1.2,1.7,1.9,3.5,6.7,2
		C249.7,91.1,252.2,88.5,252.6,87.6"/>
	<path class="st2" d="M252.6,83.2c1.7,0.4,4,2.3,4,3.5c-0.1,3.2,0.7,4.4,2.8,5.9c2,1.6,4,1.6,4.7,0.5c0.7-1.1,0.1-2.4-0.7-2.7
		c-0.8-0.3-1.9,0.7-1.9,1.1c0,0.4,0.2,1.1-0.1,1.3c-0.3,0.2-0.8,0.1-1.3-0.5c-0.6-0.6-0.7-2-0.2-3c0.5-1,3.4-1.8,4.7-0.6
		c1.3,1.2,2.5,3.3,0.9,5.6c-1.6,2.3-3.7,1.8-5.5,1.3c-1.7-0.5-4.2-3.5-4.9-4.8C254.3,89.4,252.7,85.3,252.6,83.2"/>
	<path class="st2" d="M267.1,81.9c0.4,2.1-0.3,11,4.7,15.9c2.9,2.3,2.3,3.1,2,3.7c-0.3,0.6-2.5-0.2-3.7-0.1
		c-1.2,0.1-7.1-1.6-7.8-4.1c0.2-0.6,3.4-0.3,4.3-2.2c0.8-1.8,1-2.9,0.7-4.3c-0.3-1.4-1.9-3.6-3.5-4.6c-1-1.2,0.1-2,0.6-2.5
		C264.9,83.3,265.9,81.8,267.1,81.9"/>
	<polygon class="st2" points="266.4,80.6 267.5,76 268.1,76.2 267,80.7 	"/>
	<polygon class="st2" points="261.8,78.3 261.4,77.9 264.9,74.2 265.3,74.6 	"/>
	<polygon class="st2" points="262.7,81.7 261.4,78.1 262,77.9 263.3,81.5 	"/>
	<polygon class="st2" points="263.1,81.9 262.9,81.3 266.8,80.1 266.9,80.7 	"/>
	<polygon class="st2" points="261.9,84.3 261.4,84 262.7,81.5 263.3,81.8 	"/>
	<polygon class="st2" points="259.2,74 259,73.4 263.4,71.6 263.6,72.1 	"/>
	<polygon class="st2" points="257.7,77.3 258.8,73.6 259.4,73.8 258.3,77.5 	"/>
	<polygon class="st2" points="258,77.7 258,77.1 261.9,77.6 261.8,78.2 	"/>
	<rect x="255.8" y="77.7" transform="matrix(0.865 -0.5017 0.5017 0.865 -4.4755 139.4544)" class="st2" width="2.4" height="0.6"/>
	<polygon class="st2" points="258.3,69.8 258.3,69.2 262.9,69.2 262.9,69.8 	"/>
	<polygon class="st2" points="257,72.3 256.5,71.9 258.2,69.3 258.7,69.6 	"/>
	<polygon class="st2" points="258.9,73.9 256.6,72.4 256.9,71.8 259.3,73.4 	"/>
	<polygon class="st2" points="255.4,72.6 255.3,72 256.7,71.8 256.8,72.4 	"/>
	<polygon class="st2" points="258.5,65.6 258.7,65.1 263.7,66.8 263.5,67.4 	"/>
	<polygon class="st2" points="256.8,67.2 256.4,66.7 258.6,65.1 259,65.6 	"/>
	<polygon class="st2" points="258.3,69.7 256.3,67.2 256.8,66.9 258.8,69.3 	"/>
	<polygon class="st2" points="254.9,67.3 254.9,66.6 256.7,66.7 256.7,67.3 	"/>
	<polygon class="st2" points="258.5,65.4 258.4,62 259.1,62 259.1,65.4 	"/>
	<polygon class="st2" points="258.8,62.3 258.7,61.7 261.7,61.4 261.7,62 	"/>
	<polygon class="st2" points="265.1,65.3 261.5,61.9 261.9,61.5 265.5,64.9 	"/>
	<polygon class="st2" points="258.6,62.3 257.4,61.5 257.7,61 258.9,61.7 	"/>
	<polygon class="st2" points="262.6,59.1 261.5,57.8 262,57.4 263.1,58.7 	"/>
	<polygon class="st2" points="262,61.8 261.4,61.5 262.6,58.8 263.2,59.1 	"/>
	<polygon class="st2" points="262.9,59.2 262.9,58.6 266.1,59 266,59.6 	"/>
	<polygon class="st2" points="267.2,63.6 265.8,59.4 266.3,59.2 267.8,63.4 	"/>
	<polygon class="st2" points="266.3,59.5 265.9,59.1 268,57.1 268.4,57.6 	"/>
	<polygon class="st2" points="270.3,59 268,57.6 268.3,57.1 270.7,58.5 	"/>
	<polygon class="st2" points="267.9,57.4 267.8,55.9 268.4,55.9 268.5,57.3 	"/>
	<polygon class="st2" points="270,63.1 270.3,58.6 270.9,58.7 270.6,63.2 	"/>
	<polygon class="st2" points="270.6,59 270.4,58.5 273.2,57.1 273.5,57.7 	"/>
	<polygon class="st2" points="273.1,57.4 273.5,55.8 274.1,55.9 273.7,57.5 	"/>
	<polygon class="st2" points="274.7,60.2 273.2,57.4 273.8,57.2 275.2,59.9 	"/>
	<polygon class="st2" points="273.4,64.2 272.9,64 274.7,59.9 275.2,60.2 	"/>
	<polygon class="st2" points="275,60.4 274.9,59.7 278.3,59.7 278.3,60.3 	"/>
	<polygon class="st2" points="278.5,60.2 278.1,59.8 279.4,58.2 279.8,58.6 	"/>
	<polygon class="st2" points="278.3,63.8 278,60 278.6,59.9 278.9,63.7 	"/>
	
		<rect x="275.3" y="64.4" transform="matrix(0.8297 -0.5583 0.5583 0.8297 11.0608 165.7284)" class="st2" width="3.6" height="0.6"/>
	<polygon class="st2" points="280.8,65.6 278.4,64 278.8,63.5 281.1,65.1 	"/>
	<polygon class="st2" points="279.9,68.5 280.7,65.2 281.3,65.3 280.5,68.7 	"/>
	<polygon class="st2" points="281,65.6 280.8,65.1 282.3,64.5 282.5,65.1 	"/>
	<polygon class="st2" points="276.8,69.3 276.7,68.6 280.3,68.3 280.3,69 	"/>
	<polygon class="st2" points="281.6,71.4 280,68.8 280.5,68.5 282.1,71.1 	"/>
	<polygon class="st2" points="279.3,73.8 276.4,72.4 276.7,71.8 279.6,73.2 	"/>
	<polygon class="st2" points="279.7,73.7 279.3,73.3 281.5,71.1 281.9,71.5 	"/>
	<polygon class="st2" points="281.7,71.5 281.8,70.9 283.1,71.1 283,71.7 	"/>
	<polygon class="st2" points="276.7,78.4 273.9,75.2 274.4,74.8 277.1,78 	"/>
	<polygon class="st2" points="279.2,76.4 279.2,73.4 279.8,73.4 279.8,76.4 	"/>
	<rect x="276.4" y="76.9" transform="matrix(0.8795 -0.476 0.476 0.8795 -3.2372 141.6549)" class="st2" width="3.4" height="0.6"/>
	<polygon class="st2" points="281.4,77.9 279.3,76.7 279.6,76.2 281.7,77.4 	"/>
	<path class="st3" d="M269,72.4c-2.2-1.3-1.2-3.8,0.4-4c1.7-0.2,3.4,1.4,1.9,4c0.9,0.9,1.7,1.8,2.6,2.8c2.3-1.4,2.8-3.2,3.1-4.6
		c0.3-1.3,0.6-3.6-2.1-5.9c-2.7-2.2-5.3-2.2-6.7-1.7c-1.4,0.5-4.8,2.4-5.3,4.8c-0.5,2.4,0.1,4.2,1.2,5.6c1.1,1.4,2,2.4,3.7,3
		C268.3,74.9,269,72.4,269,72.4"/>
	<path class="st2" d="M277.8,79.4c2.1,0.5,5.8-0.4,6.8-1.4c0.2,2.3,1.3,5.6,3.2,6.3c1.9,0.7,3.7,0.9,4.6-1.1
		c0.8-2.1-0.5-2.6-1.4-2.5c-0.9,0.1-1.8,1.6-1,2.2c0.8,0.6-0.1,1.1-1,0.9c-0.8-0.2-1.6-1.7-0.7-3.2c0.9-1.5,3.4-2.3,4.8-1.4
		c1.5,0.9,2.9,3.2,2,5.3c-0.9,2.1-3.5,2.6-5.4,2.2c-1.9-0.4-7.4-2.5-9.2-4.2C279.3,81.3,277.8,79.4,277.8,79.4"/>
	<path class="st2" d="M289.7,67.2c0.7-0.6,1.7-1.6,2.8-2.4c1.2-0.9-0.8,3.2-0.7,4.9c0.1,1.7,2.8,7.4,6.4,10.4c3.6,3,6,4.4,7.9,5.3
		c1.9,0.9,0,2.6-1,2.7c-1,0.1-4.6,1.3-7.2,0.8c-1.4-0.3-2.5-0.8-3.5-1.3c1.5-1.3,4-4.1,2-7.1c-2-3-5-3.9-7-3.1
		c-0.4-0.1,0.1-0.7,0.3-1.3C290.7,73.6,291.2,68,289.7,67.2"/>
	<path class="st2" d="M283.4,68.4c2.3-0.3,4.4-0.2,5.6-0.1c1,0.9,0.7,3.4,0.4,5.1c-0.2,1.7-1.1,3.6-1.8,4.7c-1.6-0.5-4.9-1.7-6-2.8
		c1.4,0,5.3,1.1,6.4,1c0,0-5.3-1.6-5.9-2.5c1.1,0,4.7,0.6,6.1,0.8c-1.4-0.8-4.5-1.9-5.3-2.8c1.5,0,4.4,0.7,5.8,1
		c-1.5-0.7-4.8-1.7-5.6-2.5c1.4-0.2,4.8,0.3,6,0.5C286.9,69.7,284.2,69.4,283.4,68.4"/>
	<path class="st2" d="M283.4,64.1c0.2-4,5.1-6.3,6.8-5.9c0.2,1.3-1.5,2.8-2.1,3.7c1.8-0.2,2.7,0,3.7,0.2c-0.8,1.5-2.2,2.2-3.6,2.5
		c2.1,0.2,2,0.3,2.6,0.7c-3,2.5-6.5,2-7.5,0.6c1-0.2,3.5,1.2,5-0.3c-1-0.5-2.3-0.9-3.2-0.9c1.7-0.5,4-1.3,4.3-1.9
		c0.1-0.9-3.3-0.1-4.3,0.6c1.8-1.8,2.8-2.7,3.3-3.8C287.2,59.3,284.4,61.5,283.4,64.1"/>
	<path class="st3" d="M318.6,41.3c2,2,0,5-0.7,5.7c1.8,0.4,3.1,2.1,3.2,3.7c-1.4,1.7-4.1,1.6-4.6,1.3c0.3-0.7,2.2-0.1,2.9-1.1
		c0.3-0.2,0.8-2.2-4.4-3.3c1.5-0.2,4.4-1.6,3.2-4.8c-2.2,0.5-4.5,1.4-4.7,4c-0.5-1.6-0.5-1.1-0.4-2.4c-0.7-0.8-2.4-1.5-3.2-1.2
		c0,2,1.6,3.7,2.8,4.4c-1,0.5-1.6,0.1-2.6-0.1c-1.3,0.3-2.3,1.5-2.3,2.2c1,0.6,1.9,0.6,2.8,0.2c0.9-0.4,1.5-0.4,2.5-1.2
		c0,1.2-0.7,2-1.4,2.7c0,1.2,0.8,2.7,1.8,3c0.7-0.5,2-2.9,0.7-5.5c1,0.1,1.6,1,1.9,2c0.5,1.7-1,3.5-1.5,4.8
		c-1.1-0.1-2.2-0.9-2.7-1.7c-0.8-1.1-0.8-1.5-1-2.3c-1.2,0.3-3-0.1-4.2-0.7c0-2.1,0.6-2.4,1.3-3.2c0.4-0.5,1-0.6,1.5-0.8
		c-0.4-0.9-1.2-2.8-0.7-4.4c1.2-0.8,3.8,0.2,4.6,1.4C314.4,42.5,317.4,41.4,318.6,41.3"/>
	<path class="st3" d="M293.4,60.6c1.7,1.2,5.9,2.3,11.4,0.2c5.5-2.1,10.1,1.3,10,3.5c-0.1,2.2-1,5.7-3.8,6.2c-2.8,0.5-6-0.8-6.3-3.8
		c-0.4-3,4.1-3.4,5-2.4c0.9,1,0.8,2.1-0.2,2.4c-1,0.3-1.8-0.7-1.3-1.4c-1.4,0.1-3.1,2.8-0.2,3.3c2.9,0.6,4.4-2,4.3-3.7
		c0-1.7-1.3-3.2-4.1-3.2c-2.7,0-5.3,2.4-6.9,5c-3-0.1-5.5-1.2-7.4-2.6C292.6,62.7,291.8,61.4,293.4,60.6"/>
	<path class="st3" d="M321.1,78.1c0.9,0.9,3.2,2.8,5.6,7.3c2.4,4.5,7.3,8.3,8.6,7.1c1.3-1.2,2.8-3.4,1.6-5.5
		c-1.2-2.2-3.6-3.9-5.7-2.6c-2.1,1.3,0.1,4.5,1.3,4.7c1.2,0.1,1.8-0.6,1.4-1.4c-0.4-0.8-1.5-0.9-1.6-0.2c-0.7-1,0.1-3.5,2.1-1.8
		c2,1.7,1.1,4,0,4.9c-1.1,0.9-3.6-1.3-5.2-3.2c-1.5-1.9-0.3-2.6-0.4-5c-1.1-1.3-1.9-3.8-2.3-5.9c-0.2-0.8-4.3-2.5-5.1-2.6
		c-0.6,0.2-0.3,1.1-0.3,1.9C321,76.7,321.2,77.2,321.1,78.1"/>
	<path class="st2" d="M318.7,72.8c0.5,0.6,0.5,2.3,0.5,3c0,0.7-1.6-0.2-2.4-0.9c-0.8-0.8-2-2.2-1.9-4.2c0.1-2,0.8-3.5,1.9-3.9
		c1.1-0.4,3.6,0.3,4.2,1c0.6,0.7,1,2.3,0.1,3.2c-0.9,0.9-2.1,0.6-2.9-0.2c-0.8-0.8-0.4-1.8,0.1-2.1c0.5-0.3,1.4-0.2,1.6,0.4
		c0.2,0.6,0,0.7-0.3,0.5c-0.3-0.1-1.2,0.2-0.9,0.7c0.2,0.5,1.1,0.6,1.4,0.3c0.4-0.3,1-1,0.6-1.8c-0.5-0.8-1.3-1.2-2.2-1
		c-0.9,0.2-2.1,0.9-2.2,1.9c-0.1,1,0.4,2.1,1,2.4C318,72.6,318.7,72.8,318.7,72.8"/>
	<path class="st2" d="M322.3,65c0.1,0.6-0.8,0.8-1.1,1.6c-0.4,0-0.5-0.1-0.9-0.3c0.2-0.6,0.3-1,0.3-2c0-1.1,0-1.6-1.1-2.3
		c-1.1-0.7-2.1-0.6-2.5,0c-0.4,0.6-0.1,1.4,0.5,1.7c0.5,0.3,1.2,0.1,1.3-0.3c0.1-0.3,0-0.6-0.3-0.8c-0.2,0.3-0.6,0.5-0.9,0.1
		c-0.2-0.4,0.3-0.8,0.7-0.7c0.4,0,1.1,0.2,1.3,1c0.2,0.8,0,1.1-0.4,1.3c-0.4,0.2-1.2,0.4-2.1,0c-0.9-0.5-1.5-1.4-1.5-2.1
		c0-0.7,0.9-1.1,1.4-1.2c0.5-0.2,2.1,0.1,2.9,0.6c0.8,0.4,1.3,1.5,1.7,2C322.1,64,322.3,64.8,322.3,65"/>
	<path class="st2" d="M324.6,65c1.2,0.1,3,1,4.1,1.8c1.1,0.8,1.8,1.9,1.4,2.8c-0.4,0.9-1.3,1.4-2.2,1.4c-0.8,0-2-0.6-2.1-1.6
		c-0.1-1,0.4-1.8,1.1-1.6c0.7,0.2,0.8,0.7,0.6,1c-0.2,0.3-0.5,0.1-0.7,0.2c-0.2,0.1-0.3,1.2,1.2,1.2c1.5,0,1.4-1,1.3-1.5
		c-0.1-0.5-0.7-0.9-1.7-1.4c-1-0.5-2.2-1.1-3-1c-0.8,0.1-1.3,0-1.5,1c-0.2,0.9-0.1,1.8,0.1,2.4c0.3,0.8,0.3,1,0.8,1.5
		c0.5,0.5,0.4,1.1,0,1.2c-0.5,0-1.2-0.3-1.4-1c-0.1-0.7-0.4-2.7-0.5-3.3c-0.2-0.7,0.1-1.8,0.6-2.3C323.1,65.1,323.8,64.9,324.6,65"
		/>
	<path class="st2" d="M325.1,67.9c0.4,0.2-0.4,1.9,0.1,2.5c0.5,0.6,1.7,1.6,2.6,1.5c0.9-0.1,2-1.2,3.2-1c1.2,0.1,2.2,1,2.4,1.9
		c0.3,1,0.1,2.8-0.6,3.1c-0.9,0.3-2.4,0.1-3.2-0.7c-0.9-0.7-0.9-1.6-0.4-2.2c0.5-0.6,1.6-0.5,1.8-0.2c0.2,0.3-0.1,0.9-0.4,0.6
		c-0.3-0.2-0.6,0.3-0.4,0.6c0.2,0.3,1.3,0.9,1.9,0.5c0.6-0.3,0.8-1.3,0.5-1.9c-0.4-0.6-1.1-1.4-2-1.1c-1,0.2-1.6,0.5-2,1.2
		c-0.4,0.7-0.6,0.9-1.7,0.5c-1-0.4-1.5-0.8-1.8-1.5c-0.4-0.7-1.1-1.7-1.1-2.6c0-0.9,0-0.9,0.1-1.2C324.1,67.7,324.4,67.5,325.1,67.9
		"/>
	<path class="st2" d="M333,77.8c0.2,0.6-0.5,1.3-1.2,1.2c-0.7-0.1-0.5-0.5-0.3-0.7c0.2-0.1,0.6-0.5,0.1-0.7
		c-0.5-0.2-1.1,0.2-1.1,0.8c0,0.6,0.3,1.9,1.9,1.8c0.6,0.5,0.6,1.5,0.7,1.7c-0.8,0.2-2.5-0.9-2.8-1.3c-0.3-0.4-1.4-1.6-1.3-2.6
		c0.2-1,1.2-1.3,2-1.2C331.8,76.9,332.8,76.9,333,77.8"/>
	<path class="st2" d="M334.7,72.4c1,0.9,2.1,3,2.6,4c-1.3-0.2-2.3-0.6-3-0.7C334.3,74.8,334.6,73.3,334.7,72.4"/>
	<path class="st2" d="M334.2,76.4c0,0,3.3,0.8,3.7,1.1c-0.6,1.1-1.6,2.9-2.1,3.4C335.4,79.5,334.2,76.4,334.2,76.4"/>
	<path class="st2" d="M338.4,78.7c0.4,1.1,1.1,3.6,1.2,4.3c-0.9-0.3-2.9-0.9-3.6-1.2C336.7,80.8,337.7,79.6,338.4,78.7"/>
	<path class="st2" d="M336.7,82.9c0.8,0.2,2.2,0.7,3.2,1.1c-0.2,0.9-1.5,2.1-2.1,2.8C337.7,85.7,336.7,83.8,336.7,82.9"/>
	<path class="st2" d="M339.9,85.4c0.6,0.7,1,3,1,3.9c-0.9-0.1-1.9-0.5-3-0.8C338.6,87.4,339.5,86.2,339.9,85.4"/>
	<path class="st2" d="M338.4,89.2c1.2,0.4,2.1,0.6,3,1.2c-0.7,1-0.9,1.7-1.9,2.7C339.2,91.6,338.4,89.2,338.4,89.2"/>
	<path class="st2" d="M341.5,92.1c0.5,1.2,1.1,2.7,1.1,3.7c-1-0.6-1.5-0.8-3.2-1.9C340,93.4,340.7,92.8,341.5,92.1"/>
	<path class="st2" d="M340.1,95.3c1.1,0.4,1.7,0.4,2.8,1c-0.2,1.1-0.9,1.7-1.5,2.7C341,98,340.3,96.2,340.1,95.3"/>
	<path class="st2" d="M343.2,97.4c0.4,0.8,1,2.5,1.4,3.9c-1.1-0.3-1.9-0.7-2.9-1.2c0.8-1.2,0.6-1.4,1.3-2.5
		C343.1,97.7,343,97.9,343.2,97.4"/>
	<path class="st2" d="M342.1,101.1c1,0.4,1.5,0.4,2.5,0.9c-0.2,1-0.8,1.5-1.3,2.4C343,103.5,342.2,101.8,342.1,101.1"/>
	<path class="st2" d="M345.3,102.9c0.4,0.9,0.9,2.1,1,3c-0.7-0.3-1.1-0.4-2.3-1.1C344.3,104.3,344.8,103.6,345.3,102.9"/>
	<path class="st2" d="M343.8,105.6c1,0.3,1.9,0.4,2.7,0.7c-0.5,0.9-0.6,1.5-1.4,2.4C344.8,107.5,343.8,105.6,343.8,105.6"/>
	<path class="st2" d="M346.8,107c0.4,0.8,0.6,1.1,0.7,1.5c-0.1,0.4-0.2,1.6-0.4,1.6c-0.4-0.1-0.7-0.3-1.4-0.6
		C346,109,346.3,107.6,346.8,107"/>
	<path class="st2" d="M345.9,110.1c0.5,0.2,0.8,0.3,1,0.5c-0.1,0.4-0.1,0.8-0.3,1.2C346.3,111.3,346.1,110.6,345.9,110.1"/>
	<path class="st2" d="M298.7,60.3c0.4-0.4,0.7-0.9,1-1.2c0.5,0.4,0.8,0.6,1.2,1.1C300.2,60.2,299.1,60.5,298.7,60.3"/>
	<path class="st3" d="M302.5,56.7c0.5-0.2,2-0.3,2.7-0.3c-0.6,0.6-1,1.1-1.3,1.6C303.4,57.8,302.7,57.2,302.5,56.7"/>
	<path class="st2" d="M306.7,59.3c0.4-0.5,0.8-1.1,1.2-1.4c0.6,0.6,1.1,1,1.3,1.4C308.5,59.3,307.6,59.4,306.7,59.3"/>
	<path class="st3" d="M311.1,56.5c0.8-0.2,1.9-0.1,2.4,0c-0.3,0.4-1,1.1-1.4,1.5C311.9,57.6,311.5,57,311.1,56.5"/>
	<path class="st2" d="M316.1,59.9c0.4-0.5,0.9-1,1.3-1.4c0.4,0.4,0.9,1.3,1.2,1.9C318,60.3,316.7,60,316.1,59.9"/>
	<path class="st3" d="M321.1,57.1c0.7,0,2.6,0.3,3.2,0.6c-0.3,0.5-1.2,1-1.9,1.5C322,58.6,321.5,57.7,321.1,57.1"/>
	<path class="st2" d="M324.9,63.1c0.5-0.4,1.4-1,2.1-1.4c0.4,0.7,0.6,2.3,0.6,3C326.9,64.1,325.8,63.7,324.9,63.1"/>
	<path class="st3" d="M331.8,60.3c1,0.1,3.2,1.5,4.1,2.1c-0.9,0.1-2.5,0.4-3.6,0.5C332.2,62.1,331.9,61,331.8,60.3"/>
	<path class="st2" d="M332.4,68.5c0.6,0,1.3-0.1,2.1-0.3c0.2,0.9,0.1,1.7,0,2.7C334,70.1,333.1,69.1,332.4,68.5"/>
	<path class="st3" d="M341.3,66.9c0.7,0.8,1.5,1.6,2.3,2.8c-0.9-0.2-1.8-0.3-3-0.7C341,68.2,341,67.8,341.3,66.9"/>
	<path class="st2" d="M338,76.2c0.3,0.1,0.2-1.1,0.5-1.1c0.5,0.1,1.4,0.3,1.9,0.5c-0.3,1.1-1,2.4-1.2,3.1
		C338.8,77.9,338.3,76.9,338,76.2"/>
	<path class="st3" d="M347.1,77.3c0.1,0.2,0.5,0,0.6,0.3c0.5,1.5,1,3.4,1.2,4.2c-0.5-0.1-2.4-1-3.7-1.5
		C345.8,79.4,346.7,78,347.1,77.3"/>
	<path class="st2" d="M340.9,85.7c0.7,0.4,1.3,0.9,2.2,1.3c-0.4,1.2-0.9,1.5-1.5,2.2C341.5,88.4,340.9,86.9,340.9,85.7"/>
	<path class="st3" d="M348.6,89.7c0.2,0.3,1.1,0.4,1.3,0.8c0.3,1,0.1,2.5,0,3.4c-0.8-0.4-1.9-1.1-2.8-1.9
		C347.4,91.2,348.1,90.6,348.6,89.7"/>
	<path class="st2" d="M343.8,96.3c0.1,0,0.2-0.2,0.3-0.2c0.7,0.1,0.9,0.6,1,0.6c-0.2,0.7-0.5,1-0.8,1.7
		C343.9,97.7,343.6,97.1,343.8,96.3"/>
	<path class="st3" d="M348.7,99.4c0,0.1,0.2,0,0.2,0.2c0,0,0.3,0.1,0.3,0.1c0,1.1-0.4,2.2-0.6,2.8c-0.5-0.2-0.6-0.5-1.3-0.8
		C347.8,100.8,348.5,100.1,348.7,99.4"/>
	<path class="st2" d="M347.7,107.4l-0.4-0.9c-1.4-3.1-4.1-8.8-7.1-23.2c-3-13.2-11.7-18.6-18.9-21.8c-0.3-0.1-0.7-0.3-1-0.4
		c-6.5-2.4-13.8-1.5-17-1.1c-0.2,0-0.4,0.1-0.6,0.1c-0.5,0.1-1,0.1-1.5,0.2c-2.2,0.3-4.6,0.7-6.9-0.1c-0.6-0.2-1.1-0.5-1.6-0.9
		c-0.1-0.1-0.2-0.1-0.3-0.2c-0.3-0.2-0.7-0.4-0.8-1c-0.1-0.5,0-1.2,0.3-1.5c0.1-0.1,0.2-0.1,0.4,0c0.1,0.1,0.3,0.1,0.5,0.2
		c1.1,0.4,3,0.7,3,0.7c0.4,0,2.1-0.3,3.8-0.5c1.5-0.3,3.1-0.5,4-0.6c1.3-0.1,6.9-0.2,8.8-0.1c0.1,0,0.4,0,0.7,0
		c2.3,0,9.4,0.1,16.6,2.8c5.4,2,9.8,5.1,13,9.2c10.2,12.8,7.1,29.7,6.3,32.9c-0.2,1-0.4,1.8-0.6,2.5c-0.3,1.4-0.6,2.4-0.7,3.2
		L347.7,107.4z M320.4,60.8c0.3,0.1,0.7,0.3,1,0.4c4.8,2.1,8.5,4.5,11.4,7.5c3.8,3.9,6.4,8.6,7.7,14.5c3,14.3,5.6,20.1,7.1,23.1l0,0
		c0.1-0.7,0.3-1.6,0.6-2.8c0.2-0.7,0.3-1.5,0.6-2.4c0.7-3.2,3.9-19.9-6.3-32.6c-3.2-4-7.5-7-12.9-9.1c-7.2-2.7-14.2-2.8-16.5-2.8
		c-0.3,0-0.5,0-0.7,0c-1.8-0.1-7.4,0-8.7,0.1c-0.9,0.1-2.4,0.3-4,0.6c-1.9,0.3-3.5,0.6-3.9,0.5c-0.1,0-1.9-0.3-3.1-0.7
		c-0.2-0.1-0.4-0.1-0.5-0.2c0,0,0,0-0.1,0c-0.1,0.1-0.2,0.7-0.2,1.2c0,0.4,0.3,0.5,0.6,0.7c0.1,0.1,0.2,0.1,0.3,0.2
		c0.5,0.3,1,0.6,1.6,0.8c2.2,0.8,4.6,0.4,6.7,0.1c0.5-0.1,1-0.2,1.5-0.2c0.2,0,0.4,0,0.6-0.1C306.4,59.3,313.8,58.3,320.4,60.8"/>
	<path class="st3" d="M294,57.4c0.7,0.1,1.5,0.2,2,0.2c-0.4,0.5-0.8,0.7-1,0.9C294.7,58.4,294.3,57.9,294,57.4"/>
	<polygon class="st2" points="293.6,59.6 293.4,59.4 294.8,58.3 295,58.5 	"/>
	<polygon class="st2" points="293.9,59 292.7,57.1 292.9,57 294.2,58.8 	"/>
	<polygon class="st2" points="293.4,59.7 291.7,57.4 292,57.2 293.6,59.5 	"/>
	<polygon class="st2" points="295.1,60.3 294.8,60 297.9,57.4 298.1,57.6 	"/>
	<polygon class="st2" points="296.7,60.5 296.4,60.3 299.9,57 300.1,57.3 	"/>
	<polygon class="st2" points="298.6,60.5 298.4,60.3 302.3,56.6 302.5,56.9 	"/>
	<polygon class="st2" points="304,59.9 301.5,57.7 301.7,57.5 304.2,59.6 	"/>
	<polygon class="st2" points="302.3,60 300.7,58.5 300.9,58.3 302.5,59.8 	"/>
	<polygon class="st2" points="305.4,59.7 302.5,56.9 302.7,56.7 305.6,59.5 	"/>
	<polygon class="st2" points="304.7,58.7 304.5,58.5 306.5,56.3 306.7,56.6 	"/>
	<polygon class="st2" points="305.4,59.3 305.2,59.1 307.8,56.4 308,56.6 	"/>
	<polygon class="st2" points="306.8,59.5 306.6,59.3 309.4,56.2 309.6,56.4 	"/>
	<polygon class="st2" points="310.5,59.3 308.7,57.3 308.9,57 310.7,59.1 	"/>
	
		<rect x="310.7" y="56.1" transform="matrix(0.7786 -0.6275 0.6275 0.7786 32.517 207.8865)" class="st2" width="0.3" height="3.6"/>
	
		<rect x="312.1" y="56.1" transform="matrix(0.8189 -0.5739 0.5739 0.8189 23.3267 189.6949)" class="st2" width="0.3" height="3.6"/>
	<polygon class="st2" points="313.1,58.8 312.9,58.6 314.9,56.4 315.1,56.6 	"/>
	<rect x="313.7" y="57.9" transform="matrix(0.6958 -0.7183 0.7183 0.6958 54.3628 244.416)" class="st2" width="4" height="0.3"/>
	<rect x="317.1" y="57.6" transform="matrix(0.6877 -0.726 0.726 0.6877 57.4356 249.1176)" class="st2" width="2.5" height="0.3"/>
	<polygon class="st2" points="320.2,60.9 318.3,57.8 318.6,57.7 320.4,60.8 	"/>
	<polygon class="st2" points="321.8,61.7 319.3,57 319.5,56.8 322.1,61.6 	"/>
	<polygon class="st2" points="323.6,62.6 321.2,57.3 321.5,57.2 323.9,62.4 	"/>
	<polygon class="st2" points="323,60.7 322.8,60.5 326.4,58.1 326.6,58.3 	"/>
	<polygon class="st2" points="323.6,61.9 323.4,61.7 328.1,58.7 328.2,58.9 	"/>
	<polygon class="st2" points="325.1,63.2 324.9,62.9 330.3,59.5 330.5,59.7 	"/>
	<polygon class="st2" points="329.3,65.9 328.5,60.7 328.8,60.7 329.6,65.9 	"/>
	<polygon class="st2" points="331,67.2 329.9,59.9 330.2,59.9 331.3,67.1 	"/>
	<polygon class="st2" points="332.5,68.5 331.8,60.4 332.1,60.3 332.8,68.5 	"/>
	<polygon class="st2" points="332.4,64.5 332.3,64.2 337.6,63.4 337.6,63.7 	"/>
	<polygon class="st2" points="332.4,66.3 332.4,66 339.4,65 339.4,65.3 	"/>
	<polygon class="st2" points="332.7,68.7 332.7,68.4 341.3,67.1 341.3,67.4 	"/>
	<polygon class="st2" points="335.7,72.7 336.1,67.9 336.4,68 336,72.7 	"/>
	<polygon class="st2" points="336.8,74.2 338.6,67.6 338.9,67.7 337.1,74.3 	"/>
	<polygon class="st2" points="338.1,76.2 337.8,76.1 341,67.3 341.3,67.4 	"/>
	<polygon class="st2" points="340,70.8 340.1,70.5 345.2,72 345.1,72.3 	"/>
	<polygon class="st2" points="339.3,72.7 339.4,72.4 346.5,74.4 346.4,74.7 	"/>
	<polygon class="st2" points="338.4,75.2 338.5,74.9 347.7,77.4 347.6,77.7 	"/>
	<polygon class="st2" points="340,81.6 339.8,81.4 342.5,76.2 342.7,76.3 	"/>
	<polygon class="st2" points="340.6,83.9 340.3,83.8 344.6,76.7 344.8,76.9 	"/>
	<polygon class="st2" points="341.2,86.4 340.9,86.2 346.9,77.4 347.2,77.6 	"/>
	<polygon class="st2" points="349.4,84.8 344.2,81.9 344.4,81.7 349.5,84.6 	"/>
	<polygon class="st2" points="349.7,87.6 342.8,83.8 342.9,83.5 349.9,87.3 	"/>
	<polygon class="st2" points="349.8,90.4 341.1,86.2 341.2,86 349.9,90.2 	"/>
	<polygon class="st2" points="342.5,91.8 342.2,91.6 344.8,87.9 345,88.1 	"/>
	<polygon class="st2" points="343.2,94.3 342.9,94.1 346.7,88.8 346.9,89 	"/>
	<polygon class="st3" points="343.8,96.5 343.6,96.3 348.4,89.6 348.7,89.8 	"/>
	<polygon class="st2" points="349.6,96 346,93.2 346.2,92.9 349.8,95.7 	"/>
	<polygon class="st2" points="349.4,98 345,94.6 345.2,94.4 349.6,97.7 	"/>
	<polygon class="st2" points="349.1,99.8 344,96 344.1,95.8 349.3,99.6 	"/>
	<polygon class="st2" points="345,100.3 344.7,100.1 346.3,97.5 346.5,97.6 	"/>
	<polygon class="st2" points="345.6,101.9 345.4,101.8 347.4,98.4 347.6,98.6 	"/>
	<polygon class="st4" points="346.3,103.8 346.1,103.6 348.6,99.4 348.9,99.5 	"/>
	<polygon class="st2" points="348.2,104 346.7,102.9 346.9,102.7 348.4,103.8 	"/>
	<polygon class="st2" points="347.8,105.7 346.6,104.7 346.8,104.5 348,105.5 	"/>
	<path class="st2" d="M330.8,51.7l0.2-0.6c0.2,0.1,0.4,0.1,0.6,0.2c0.3,0.1,0.6,0.1,1,0.3l-0.2,0.6c-0.2-0.1-0.5-0.2-0.8-0.2
		C331.3,51.8,331,51.8,330.8,51.7"/>
	<path class="st2" d="M334.8,53.2l0.1-0.6c0.3,0.1,1.4,0.3,1.8,0.7l-0.4,0.5C336.1,53.5,335.3,53.3,334.8,53.2"/>
	<path class="st2" d="M339.9,55.3c-0.5-0.3-1-0.4-1.6-0.6l0.2-0.6c0.6,0.2,1.2,0.4,1.7,0.7L339.9,55.3z"/>
	<path class="st2" d="M326.6,50.7l0.1-0.6c0.1,0,0.2,0,0.3,0c0.3,0,0.8-0.1,1.2,0.1l-0.2,0.6c-0.4-0.1-0.7-0.1-1-0.1
		C326.9,50.7,326.8,50.8,326.6,50.7"/>
	<path class="st2" d="M326,52.5c0.3-1.2,0.4-1.3,0.6-2.1l0.1-0.2l0.6,0.2l-0.1,0.2c-0.2,0.7-0.3,0.9-0.6,2.1L326,52.5z"/>
	<path class="st2" d="M324.3,53.6L324,53c0.4-0.2,0.8-0.3,1.2-0.4c0.3-0.1,0.7-0.2,1-0.3l0.2,0.6c-0.4,0.2-0.7,0.3-1.1,0.4
		C325,53.3,324.6,53.4,324.3,53.6"/>
	<path class="st2" d="M327.7,54.6c-0.2-0.3-0.6-0.8-1-1.2c-0.2-0.2-0.4-0.5-0.6-0.6l0.5-0.4c0.1,0.1,0.3,0.4,0.5,0.6
		c0.4,0.5,0.9,1,1.1,1.3L327.7,54.6z"/>
	<path class="st2" d="M322.8,56.1l0-0.6c0.7,0,1.3,0.1,1.9,0.3l-0.2,0.6C324.1,56.1,323.5,56.1,322.8,56.1"/>
	<path class="st2" d="M326.6,56.9l0.1-0.6c0.4,0.1,0.7,0.2,1.1,0.3c0.1,0,0.2,0.1,0.3,0.1l-0.2,0.6c-0.1,0-0.2-0.1-0.3-0.1
		C327.2,57,326.9,56.9,326.6,56.9"/>
	<path class="st2" d="M327,56.6c0.1-0.2,0.1-0.4,0.2-0.6c0.2-0.5,0.4-1.2,0.5-1.6l0.6,0.1c-0.1,0.5-0.3,1.2-0.5,1.8
		c-0.1,0.2-0.2,0.4-0.2,0.6L327,56.6z"/>
	<path class="st2" d="M323.5,55.9c0-0.6,0.1-1.5,0.4-2.9l0.6,0.2c-0.3,1.3-0.4,2.2-0.4,2.7L323.5,55.9z"/>
	<path class="st2" d="M328,54.7l-0.2-0.6c0.6-0.2,1.1-0.2,1.4-0.3c0.3-0.1,0.6-0.1,0.9-0.2l0.2,0.6c-0.3,0.1-0.6,0.2-1,0.2
		C329,54.5,328.6,54.6,328,54.7"/>
	<path class="st2" d="M330,54c0-0.6,0.3-1.2,0.5-1.7c0.1-0.3,0.3-0.6,0.3-0.9l0.6,0.2c-0.1,0.3-0.2,0.6-0.4,1
		c-0.2,0.5-0.4,1-0.4,1.5L330,54z"/>
	<path class="st2" d="M331.5,55.9l-0.2-0.3c-0.4-0.5-0.8-1.2-1.3-1.5l0.3-0.5c0.5,0.4,1,1,1.4,1.6l0.2,0.2L331.5,55.9z"/>
	<path class="st2" d="M331.3,58l-0.6-0.2c0.1-0.2,0.2-0.4,0.3-0.6c0.2-0.5,0.5-1.1,0.5-1.4l0.6,0c0,0.4-0.3,1-0.5,1.6
		C331.5,57.6,331.4,57.8,331.3,58"/>
	<path class="st2" d="M331.9,56l-0.3-0.5c0.6-0.4,1.1-0.4,1.7-0.5c0.3,0,0.6-0.1,0.9-0.1l0.2,0.6c-0.3,0.1-0.6,0.1-1,0.1
		C332.8,55.7,332.3,55.7,331.9,56"/>
	<path class="st2" d="M335,57.4c-0.1-0.1-0.2-0.3-0.6-1.1c0-0.1-0.4-1-0.4-1.1l0.6-0.1c0,0.2,0.7,1.8,0.8,1.9l-0.2,0.1l0,0l0.3,0.1
		l-0.3,0.2C335.1,57.5,335,57.5,335,57.4"/>
	<path class="st2" d="M334.4,59.3l-0.5-0.4c0.2-0.3,0.4-0.8,0.6-1.2c0.1-0.3,0.2-0.6,0.3-0.7l0.5,0.3c-0.1,0.2-0.2,0.4-0.3,0.7
		C334.9,58.4,334.7,59,334.4,59.3"/>
	<polygon class="st2" points="331.5,58.5 329.9,57.9 330.1,57.3 331.7,57.9 	"/>
	<path class="st2" d="M334.8,59.8c-0.2-0.2-0.6-0.3-1-0.5c-0.3-0.1-0.5-0.2-0.8-0.3l0.2-0.6c0.3,0.1,0.6,0.2,0.8,0.3
		c0.5,0.2,0.9,0.3,1.2,0.6L334.8,59.8z"/>
	<path class="st2" d="M335.2,57.6L335,57c0.9-0.3,1.9-0.6,2.8-0.7l0.1,0.6C337,57,336,57.3,335.2,57.6"/>
	<polygon class="st2" points="334.6,55.3 334,55.1 334.9,52.7 335.4,52.9 	"/>
	<path class="st2" d="M338.1,56.8l-0.5-0.3c0.3-0.5,0.5-1.1,0.7-1.7c0.1-0.2,0.1-0.4,0.2-0.6l0.6,0.2c-0.1,0.2-0.1,0.4-0.2,0.6
		C338.7,55.6,338.4,56.2,338.1,56.8"/>
	<path class="st2" d="M338.4,59.1c-0.2-0.9-0.6-1.9-0.8-2.4l0.6-0.2c0.3,0.6,0.6,1.6,0.8,2.5L338.4,59.1z"/>
	<path class="st2" d="M338.8,59.2l-0.2-0.6c0.7-0.2,1.3-0.2,2-0.3c0.2,0,0.3,0,0.5,0l0,0.6c-0.2,0-0.4,0-0.5,0
		C340,59,339.5,59,338.8,59.2"/>
	<path class="st2" d="M338,61.8c-0.2-0.2-0.7-0.5-1.1-0.8c-0.2-0.1-0.4-0.2-0.6-0.3l0.3-0.5c0.1,0.1,0.3,0.2,0.5,0.3
		c0.5,0.3,1,0.6,1.3,0.9L338,61.8z"/>
	<path class="st2" d="M341.5,58.7l-0.5-0.3c0.1-0.2,0.3-0.4,0.4-0.6c0.3-0.4,0.5-0.8,0.7-1.2l0.6,0.2c-0.2,0.5-0.5,1-0.8,1.4
		C341.8,58.4,341.6,58.6,341.5,58.7"/>
	<path class="st2" d="M337.6,61.2l-0.5-0.4c0.2-0.2,0.8-1.2,1.3-2.1L339,59C338.6,59.7,337.9,61,337.6,61.2"/>
	<path class="st2" d="M343.5,57.9c-0.4-0.3-1.2-0.8-1.6-0.9l0.2-0.6c0.5,0.2,1.3,0.7,1.7,1L343.5,57.9z"/>
	<path class="st2" d="M341.4,61.3c0-0.4-0.2-1.3-0.3-1.9c-0.1-0.3-0.1-0.5-0.1-0.7l0.6-0.1c0,0.2,0.1,0.5,0.1,0.7
		c0.1,0.8,0.3,1.6,0.3,2.1L341.4,61.3z"/>
	<path class="st2" d="M340.4,63.5L340,63c0.3-0.3,0.7-0.8,1-1.3c0.2-0.3,0.4-0.5,0.5-0.7l0.5,0.4c-0.1,0.2-0.3,0.4-0.5,0.7
		C341.2,62.6,340.8,63.1,340.4,63.5"/>
	<path class="st2" d="M341.7,61.5l0-0.6c0.9-0.1,1.7,0,2.7,0.2l-0.1,0.6C343.4,61.5,342.6,61.4,341.7,61.5"/>
	<path class="st2" d="M344.5,61.7l-0.5-0.4c0.3-0.3,0.6-0.8,0.9-1.2c0.2-0.3,0.4-0.7,0.6-0.9l0.5,0.4c-0.2,0.2-0.4,0.5-0.6,0.9
		C345.1,60.9,344.8,61.4,344.5,61.7"/>
	<path class="st2" d="M346.6,60.6c-0.4-0.4-1.1-0.9-1.3-1.1l0.3-0.5c0.3,0.2,1.3,1,1.4,1.1L346.6,60.6z"/>
	<path class="st2" d="M344.4,64.2c0-0.1,0-0.2,0-0.3c0-0.7,0-1.7-0.3-2.2l0.5-0.3c0.4,0.7,0.4,1.8,0.3,2.6c0,0.1,0,0.2,0,0.3
		L344.4,64.2z"/>
	<path class="st2" d="M340.8,64.1c-0.2-0.2-0.5-0.4-0.7-0.6c-0.3-0.2-0.5-0.4-0.7-0.6l0.5-0.4c0.1,0.1,0.4,0.3,0.6,0.5
		c0.3,0.2,0.6,0.4,0.8,0.7L340.8,64.1z"/>
	<path class="st2" d="M343.1,65.9l-0.3-0.6c0.3-0.1,1.3-1.1,1.6-1.6l0.5,0.3C344.6,64.7,343.5,65.7,343.1,65.9"/>
	<path class="st2" d="M343.3,66.9c-0.4-0.7-0.6-1.2-1.1-1.7l0.5-0.4c0.5,0.6,0.8,1.1,1.2,1.8L343.3,66.9z"/>
	<path class="st2" d="M347.6,61.6c2.9,5.1,4.5,21.7,3.6,24.5c-0.5-3.5-3.3-15-6.9-18C344.8,66.8,347.7,63.5,347.6,61.6"/>
	<path class="st3" d="M334.3,39.8c0.6,0.1,3.7,4.6,4.2,5.2c0.7,0.3,1,0.5,1.5,0.9c0.4,0.4,0.9,1.2,0.8,1.6c-0.2,0.4-0.8,0.8-1.2,0.7
		c-0.4,0-1.1-0.9-1.4-1.3c-0.2-0.4-0.2-1-0.2-1.4c0.1-0.4,0.4,0-0.3-1c-0.8-1-3-3.8-3.5-4.4C334,39.9,334.1,39.8,334.3,39.8"/>
	<path class="st3" d="M335.2,43.6c0.5,0.5,0.3,0.9,0,1.2c-0.3,0.3-0.8,0.6-1.3,0c-0.5-0.6,0-1,0.3-1.2
		C334.5,43.3,334.9,43.2,335.2,43.6"/>
	<path class="st3" d="M333.8,40.4c0.4-0.1,0.9-0.1,0.5,0.2c-0.3,0.4-1.1,1-1.3,1.6c-0.2,0.5-0.6,1.4,0.2,2.3
		c0.8,0.9,2.1,1.5,2.9,1.2c0.9-0.3,1.3-0.8,1.6-0.8c0.2-0.1,0.4,0.4,0.1,0.6c-0.3,0.2-1.9,1-3,0.8c-1.2-0.2-1.2-0.4-1.5-0.4
		c-0.5,0.3-1.3,1-1.6,1.3c0.4,0.6,0.9,2.3-1.1,3.4c-0.4,0.2-0.5-0.5-0.3-0.6c0.2-0.1,1-0.7,1.2-1.3c0.2-0.6,0-0.7-0.7-1.5
		c-0.7-0.8-1.3-1.3-2-1c-0.6,0.3-1,0.6-1.3,0.8c-0.3,0.2-0.7-0.3-0.4-0.5c0.3-0.2,1.4-0.9,2.1-0.9c0.7,0,1.7,0.5,2,1.1
		c0.4-0.3,1.1-0.9,1.3-1.3c0.1-0.4-0.3-0.8-0.3-1.7c0-0.9,0.4-1.4,0.7-2.1C333.1,40.9,333.5,40.5,333.8,40.4"/>
	<path class="st2" d="M346.4,58.4c-0.3-1.5-2.1-6-4.8-8.2c-1.8-1.1-4.4-2.5-6-2c-1.9,0.6-2.8,1.9-3.1,2.4
		C333.8,51,341.2,52.8,346.4,58.4"/>
	<path class="st2" d="M279.9,62.3l0.1-0.7c0.4-2.5,1.3-5.5,2.1-7.2l0.1-0.3l0.3,0.1c1.1,0.5,2.1,1,3.1,1.6c0.8,0.4,1.5,0.9,2.3,1.2
		l0.5,0.2l-0.4,0.3c-1.4,1-3.5,2.1-5.2,3.1c-1,0.5-1.9,1-2.2,1.3L279.9,62.3z M282.6,54.9c-0.7,1.5-1.4,4-1.8,6.1
		c0.4-0.3,1-0.6,1.7-0.9c1.5-0.8,3.4-1.8,4.7-2.7c-0.6-0.3-1.3-0.7-1.9-1C284.4,55.8,283.5,55.3,282.6,54.9"/>
	<path class="st2" d="M290,56.5c-1.6-0.6-4.8-2.2-4.9-2.3l-0.7-0.3l0.7-0.2c1.6-0.5,5.9-2.4,7.2-3.4l0.6-0.4l-0.1,0.7
		c-0.2,1.4-0.6,2.5-1,3.5c-0.3,0.8-0.6,1.5-0.7,2.3l-0.1,0.3l-0.3-0.1C290.5,56.7,290.2,56.6,290,56.5 M286,54c1,0.5,3,1.5,4.2,1.9
		c0.1,0,0.2,0.1,0.3,0.1c0.2-0.7,0.4-1.4,0.7-2.1c0.3-0.9,0.7-1.7,0.9-2.7C290.5,52.1,287.7,53.4,286,54"/>
	<path class="st2" d="M292.4,56l0.2-0.8c0.6-2.7,1.3-4.9,2-6.5l0.1-0.2l0.2,0.1c0.4,0.1,0.8,0.2,1.2,0.3c1.2,0.4,2.3,0.7,3.7,0.9
		l0.7,0.1l-0.5,0.5c-2.3,2.2-4.3,3.5-6.4,4.9L292.4,56z M295,49.3c-0.6,1.4-1.2,3.2-1.7,5.4c1.9-1.3,3.7-2.5,5.8-4.3
		c-1.2-0.2-2.2-0.5-3.2-0.8C295.6,49.5,295.3,49.4,295,49.3"/>
	<path class="st2" d="M297,47.9l-0.5-0.2l0.4-0.3c1.8-1.5,3.8-3.2,4.7-4.7l0.4-0.6l0.2,0.7c0.6,2.2,0.5,3.6,0.3,5.2l0,0.6l-0.3,0
		C300.5,48.8,298.7,48.6,297,47.9 M301.7,43.6c-1,1.3-2.6,2.7-4,3.9c1.4,0.4,2.8,0.7,4.2,0.6l0-0.1C302,46.6,302.1,45.4,301.7,43.6"
		/>
	<path class="st2" d="M304.1,46.4l-0.1-0.6c-0.1-0.9-0.2-2-0.3-3c-0.1-0.9-0.1-1.8-0.2-2.4l0-0.2l0.2-0.1c0.9-0.3,1.7-0.7,2.6-1.1
		c0.8-0.4,1.5-0.8,2.3-1l0.5-0.2l-0.2,0.5c-0.6,2-2.9,6.2-4.4,7.7L304.1,46.4z M304.1,40.6c0.1,0.6,0.1,1.4,0.2,2.2
		c0.1,0.8,0.1,1.6,0.2,2.3c1.3-1.5,2.9-4.5,3.6-6.3c-0.5,0.2-1.1,0.5-1.6,0.8C305.8,39.9,305,40.3,304.1,40.6"/>
	<path class="st2" d="M304.8,38.5l0.3-0.5c1.4-2.4,2.2-4.4,2.6-5.7l0.2-0.6l0.3,0.5c0.7,1.2,1.1,2.3,1.4,3.2
		c0.1,0.3,0.2,0.5,0.3,0.8l0.1,0.3l-0.3,0.1c-0.4,0.2-0.8,0.4-1.3,0.6c-1.2,0.6-2.3,1.1-3.1,1.2L304.8,38.5z M308.1,33.1
		c-0.4,1.2-1.1,2.7-2.1,4.6c0.7-0.2,1.5-0.6,2.3-1c0.3-0.2,0.7-0.3,1-0.5c-0.1-0.2-0.1-0.4-0.2-0.6C308.9,34.8,308.6,34,308.1,33.1"
		/>
	<path class="st2" d="M310.4,34.9l-0.3-0.8c-0.1-0.2-0.1-0.3-0.2-0.5c-0.4-1-0.9-2.4-0.9-3.8l0-0.2l0.2-0.1c1.5-0.4,2.1-0.6,3.7-0.7
		l0.6,0l-0.4,0.5c-0.9,1.3-1.9,3.1-2.5,4.8L310.4,34.9z M309.7,30c0.1,1.2,0.4,2.2,0.8,3.1c0.5-1.3,1.2-2.6,1.9-3.7
		C311.4,29.6,310.7,29.7,309.7,30"/>
	<path class="st2" d="M309.9,27.8l0.6-0.5c0.2-0.2,0.4-0.4,0.7-0.6c1.4-1.2,3-2.8,4.2-2.8h0.4l-0.1,0.4c-0.2,0.7-0.4,1.3-0.5,1.8
		c-0.2,0.7-0.4,1.3-0.5,1.9l-0.1,0.3l-0.3-0.1c-1.1-0.3-2.3-0.4-3.6-0.4H309.9z M315,24.5c-1,0.3-2.4,1.6-3.4,2.5
		c0,0-0.1,0.1-0.1,0.1c0.9,0,1.8,0.2,2.7,0.3c0.1-0.5,0.3-1,0.4-1.6C314.8,25.5,314.9,25,315,24.5"/>
	<path class="st2" d="M315.3,27.5l0.2-0.7c0.3-0.8,0.7-1.4,1.1-2.1c0.3-0.5,0.6-1,0.9-1.6l0.1-0.3l0.3,0.1c0.2,0.1,0.3,0.2,0.5,0.3
		c0.7,0.3,1.5,0.7,2.4,1.3l0.4,0.3l-0.4,0.2c-0.8,0.4-2,0.9-3.1,1.3c-0.7,0.3-1.4,0.5-1.8,0.7L315.3,27.5z M317.9,23.7
		c-0.3,0.5-0.5,0.9-0.8,1.4c-0.3,0.4-0.5,0.8-0.7,1.3c0.3-0.1,0.7-0.3,1.1-0.4c0.9-0.3,1.8-0.7,2.5-1c-0.7-0.4-1.3-0.7-1.9-1
		C318.1,23.7,318,23.7,317.9,23.7"/>
	<path class="st2" d="M322.4,25.2l-0.3-0.2c-0.2-0.2-0.5-0.4-0.7-0.5c-0.6-0.4-1.2-0.9-1.9-1.6l-0.3-0.4l0.5-0.2
		c1.5-0.5,3.3-0.6,4.9-0.3l0.5,0.1l-0.3,0.4c-0.5,0.6-0.9,1.1-1.3,1.4c-0.4,0.4-0.7,0.7-0.9,1L322.4,25.2z M320.3,22.8
		c0.5,0.5,1,0.8,1.4,1.2c0.2,0.1,0.3,0.2,0.5,0.3c0.2-0.3,0.5-0.5,0.7-0.8c0.3-0.3,0.6-0.6,0.9-1C322.8,22.4,321.5,22.5,320.3,22.8"
		/>
	<path class="st2" d="M323.9,25.1l0.3-0.5c0.3-0.5,0.6-1,1-1.5c0.3-0.4,0.7-0.8,1-1.4l0.2-0.3l0.3,0.3c1,1,1.3,1.4,2.1,2.4l0.3,0.4
		l-0.5,0.1c-1.1,0.2-2.5,0.4-4.1,0.5L323.9,25.1z M326.5,22.4c-0.3,0.4-0.6,0.8-0.8,1.1c-0.2,0.3-0.5,0.6-0.7,0.9
		c1-0.1,1.9-0.2,2.9-0.4C327.4,23.5,327.1,23.1,326.5,22.4"/>
	<path class="st2" d="M330,24.7l-0.2-0.2c-0.6-0.4-1.3-1.4-2.1-2.6l-0.2-0.3l0.4-0.1c1-0.3,2.9-0.4,4,0l0.4,0.2l-0.3,0.3
		c-0.4,0.4-0.7,0.9-1.1,1.5c-0.2,0.3-0.4,0.7-0.7,1L330,24.7z M328.4,22c0.5,0.7,1,1.5,1.5,1.9c0.2-0.2,0.3-0.5,0.5-0.7
		c0.3-0.4,0.5-0.8,0.8-1.2C330.3,21.8,329.2,21.8,328.4,22"/>
	<path class="st2" d="M330.7,24.7l0.7-0.7c0.2-0.2,0.5-0.6,0.8-1c0.4-0.5,0.8-1.1,1.2-1.4l0.2-0.2l0.2,0.3c0.6,0.7,0.6,0.8,1.1,1.5
		l0.6,0.9l-0.5,0.1c-0.6,0.1-1.1,0.1-1.6,0.2c-0.6,0-1.2,0.1-1.8,0.2L330.7,24.7z M333.5,22.3c-0.3,0.3-0.6,0.7-0.9,1.1
		c-0.1,0.1-0.2,0.3-0.3,0.4c0.4,0,0.7-0.1,1-0.1c0.3,0,0.7-0.1,1.1-0.1l-0.1-0.1C334,22.9,333.9,22.7,333.5,22.3"/>
	<path class="st2" d="M295.6,55.5c0.6-1,8.7-5.8,11.5-10.7c0.6,0.2,0.5,1.2,0.6,1.6c-0.8,0.5-4.7,4.6-2.1,6.5
		c2.1-0.1,3.2,1.3,3.1,2.1c-3.8-0.6-10.9,1-11.9,1.3C296.2,56.3,295.5,56.3,295.6,55.5"/>
	<path class="st2" d="M317,28.7c-1.6,2.2-5.7,9.4-1.4,11.6c-2,1.7-4.8,0.3-5.3-1.2C309.8,37.6,313.1,29.8,317,28.7"/>
	<path class="st2" d="M320.2,26.7c-1.2,2.8-3.1,7.9,2.2,13.2c4.2,4.2,4,8,2.5,10.1c-0.8,1.2-2.5,4-6.2,4.9c2-2.2,4.1-4.6,3.9-7.7
		c-0.2-3-2.2-5.6-6-8.1c-2.1-1.4-0.9-4.8-0.1-7C317.2,30,319,27.4,320.2,26.7"/>
	<path class="st2" d="M322.2,26.2c0.5,1.9-0.4,3.8,3.3,5.4c3.7,1.6,7.7,4.4,7,7.2c-0.6,2.9-1.7,3.1-2.5,3.3c0.8-1.5,0.1-4.5-1-5.8
		c-1-1.2-3.5-2.5-5.5-3.1C321.6,32.8,321.4,28.1,322.2,26.2"/>
	<path class="st2" d="M320.7,30.4c0.5,1.7,0.5,4,3.3,5c2.9,1,5.4,3.6,5,5.6c-0.4,2.1-1.1,2.5-2.2,3.3c-0.3-1.7-0.5-4.5-3.2-5.5
		c-2.2-0.8-3.2-3.3-3.4-4.8C320.1,32.5,320.1,31.8,320.7,30.4"/>
	<path class="st2" d="M260.1,35.9c2.2-0.3,3.8-1.5,4.9-2.2c1.1-0.7,1.4-1.1,1.8-3.7c0.4-2.6,2.8-4.8,4.6-4.5c3.3,0.5,2.1,3.7,1,3
		c0.3-2.7-5.7,0.9-1.9,2.6c1.3,0.6,2.5,1.2,5.3-0.5c1.3-0.8,0.4-4.8,1.1-6.9c0.8-2.4,3.4-3.7,5.1-3.7c2.4,0.1,4.3,3.5,1,3.9
		c0.8-1.7-2.2-2.2-3.1-0.7c-0.8,1.4,0.8,3.5,2.6,3.6c1.8,0.1,4.5-1.1,5.2-3.7c0.7-2.6-0.9-3,0.2-6c1.1-3,3.5-4.4,5.6-4.1
		c4.1,0.6,3.7,4.5,1.1,4.3c1.2-2.8-2.9-2.4-2.8,0c0,1.6,1.3,3,3.2,3.1c1.9,0.1,3.8-3,5-5.1c1.2-2.1,1.5-4.6,3.1-6.1
		c1.5-1.6,3.9-2.3,5.8-1.2c3,1.8,0.9,5.5-0.6,4.3c1.1-1.6-1.3-2.2-2.1-1c-0.8,1.2-0.7,3.8,2.1,3.7c2.8,0,5.1-1.7,6-3.5
		c1-1.8,3.8-5,5.7-4.9c1.9,0.1,4.4,1.6,4.2,3.3c-0.2,1.4-1.7,2.5-3,1.5c2.4-1.2-0.3-2.8-1.5-1.5c-1.2,1.3-1,5,3,3.8
		c4-1.1,6.1-4.4,8.7-4.1c3.2,0.3,4.7,3,3.8,4.6c-0.8,1.5-2.9,1-3.4-0.4c1.7,0.2,2.5-1.5,0.8-2.1c-1.7-0.5-3.2,1-2.6,2.7
		c0.8,2,2.1,3.2,5.9,2.2c3.7-1,6,1.8,6.5,3.9c0.5,2-0.6,4.4-2.2,4.6c-1.6,0.3-2.7-1.5-2.9-3c-0.1-1.5,0.9-2.1,1.8-2.1
		c-1.2,4.6,2.7,3.3,2.1,0.4c-0.4-1.9-2.3-3.4-3.7-2.2c-1.4,1.1-1.5,2.9-1.3,4c0.2,1,0.2,2.1-0.5,1.3c-0.7-0.8-1-4.6-7.3-6.6
		c-6.3-2.1-13.4-1.4-19.3,0c-5.8,1.4-13.6,5.9-18,8c-4.4,2.2-13.3,7.4-16.8,8.8c-3.4,1.4-6.9,1.9-9.3,2.2
		C262.1,36.3,259.1,36,260.1,35.9"/>
	<path class="st2" d="M255.6,75.6c-0.7-1.7-5-12.7,3-18.6c4.9-3.6,5.9-4,17-3.7c15.1,0.3,22.8-7.9,27-13.4c3.5-4.6,3.5-6.9,4.9-9.1
		c1.4-2.3,2.6-3.9,4.2-5.9c-3.5,2-6.4,8.4-8.5,10.2c0,0,0.2,0.2,0.5,0.1c0.3-0.2,1.3-0.8,1.3-0.8l0,1.4l-0.7,0.6l-0.1,0.8l-0.9,0.5
		l-0.1,0.9l-1.3,0.6l-0.3,0.9c-0.4,0.2-1.4,0.8-1.4,0.8l-0.4,1.3l-1.9,0.2l-1,2.3l-2.4,0.2l-1.1,1.9l-2.3,0.2l-1.4,2.1l-2.8-0.8
		l-1.5,2.1l-2.7-0.9L281,51l-2.8-1.2l-1.6,1.6l-3.5-1.7l-1.6,0.7l-1.6-1.2l-1.7,1.3l-2.3-1l-1.1,1.2l-2.1-0.4l-1.4,1.9l-1.5,0
		l-0.4,1.5l-2.3,0.3l-0.2,2.1L255,57l0.1,1.7l-1.5,0.9l0.1,1.6l-0.8,0.8l0.4,1.4l-0.9,1.3l0.5,0.8l-0.6,1.4l0.7,0.8l-0.5,1l0.6,0.8
		l-0.4,1.1l0.8,0.7l-0.2,1l0.9,0.7l0.1,0.9l0.6,0.6L255.6,75.6z"/>
	<path class="st2" d="M255.6,75.6c-1.1-0.2-1.4-0.2-3.4-3.5c-2.1-3.3-2.6-9-1.3-13.7c1.3-4.7,5.7-12.6,13.9-13.7
		c8.2-1.1,13.7,2.1,20.7-0.7c7-2.7,12.7-4.6,14.3-5.9c1.7-1.3,2.6-2.6,4-3.9l-0.2,0.7l-0.1,0.9l-0.8,0.2l-0.2,0.8l-0.9,0.1l-0.2,1.2
		l-1.3,0.4l-0.6,1.1l-1.6,0l-0.6,1.1l-2.5,0.4l-0.8,1.4l-2.4,0l-1.4,1.7l-2.7-0.5l-1.4,1.9l-2.7-0.4l-1.1,1.3l-3-1l-1,1.3l-3.1-1.1
		l-0.8,1.3l-2.6-1.6l-1.5,1.1l-2.7-1.1l-1.7,1.4l-2.9-0.8l-0.9,1.7l-3.1,0.2l-0.9,2l-2.1,0.6l-0.5,2.1l-2,0.8l-0.2,2.6l-1.4,1.1
		l0.4,1.7l-1.3,1.1l0.5,1.8l-0.8,1.1l0.6,1.6l-0.5,0.9l0.7,1.4l-0.5,0.8l0.8,1l-0.3,0.9l0.8,0.8l-0.1,1.1l0.8,0.8l0.1,0.8l0.8,0.8
		l0.4,0.9L255.6,75.6z"/>
	<polygon class="st2" points="253.9,74.6 253.6,73.3 255,74.1 254.9,74.4 254.1,73.9 254.2,74.5 	"/>
	<polygon class="st2" points="252.7,72.8 252.8,71.7 253.9,72.3 253.7,72.6 253.1,72.2 253,72.9 	"/>
	<polygon class="st2" points="252,71 252.3,69.9 253.1,70.5 252.9,70.8 252.5,70.4 252.3,71 	"/>
	<polygon class="st2" points="251.5,69.1 252,67.7 253.1,68.9 252.9,69.1 252.1,68.3 251.8,69.2 	"/>
	<polygon class="st2" points="251.4,67.2 251.1,67.1 251.8,66 252.9,67.1 252.7,67.3 251.9,66.5 	"/>
	<polygon class="st2" points="251.2,64.9 250.9,64.7 251.9,63.4 252.8,64.7 252.6,64.9 251.9,63.9 	"/>
	<polygon class="st2" points="304,37.3 303.9,35.9 303.1,36.1 303,35.8 304.2,35.5 304.3,37.3 	"/>
	<polygon class="st2" points="303,38.6 303.1,37.1 301.5,37.3 301.5,37 303.4,36.7 303.3,38.6 	"/>
	<polygon class="st2" points="301.4,40 301.9,38.3 300.4,38.6 300.3,38.3 302.4,37.9 301.7,40.1 	"/>
	<polygon class="st2" points="299.5,42.3 300.3,39.8 297.7,39.8 297.7,39.5 300.7,39.5 299.8,42.4 	"/>
	<polygon class="st2" points="293.3,47 293.1,46.8 295.3,42.9 291.4,42.6 291.4,42.3 295.9,42.6 	"/>
	<polygon class="st2" points="296.6,45.3 296.4,45.2 298.2,41 295,41.2 294.9,40.9 298.6,40.7 	"/>
	<path class="st2" d="M289.6,49.4l-0.3-0.2l2.4-4.3c-2.9-0.6-4.4-0.9-4.4-0.9l0.1-0.3c0.1,0,3.4,0.7,4.6,0.9l0.2,0L289.6,49.4z"/>
	<polygon class="st2" points="250.8,62.8 250.5,62.6 252.5,60.3 253.5,63.3 253.2,63.4 252.4,60.9 	"/>
	<polygon class="st2" points="253.8,61.1 253.4,58.2 251,60 250.8,59.8 253.6,57.7 254.1,61 	"/>
	<polygon class="st2" points="254.9,58.6 254.7,55.3 251.8,57.2 251.6,57 255,54.7 255.2,58.6 	"/>
	<polygon class="st2" points="256.9,56.3 257.1,52.2 253.3,53.8 253.2,53.5 257.4,51.7 257.3,56.3 	"/>
	<polygon class="st2" points="259,54.1 260.4,49.9 256.2,50.4 256.1,50.1 260.8,49.5 259.3,54.2 	"/>
	<polygon class="st2" points="261.7,52.3 261.5,52.1 264,48 259.1,48 259.1,47.7 264.6,47.7 	"/>
	<polygon class="st2" points="264.6,51 264.4,50.8 267.5,47.4 263.2,46.2 263.3,45.9 268.1,47.3 	"/>
	<polygon class="st2" points="267.9,51 267.7,50.7 272,47.5 267.9,45.7 268,45.4 272.6,47.5 	"/>
	<polygon class="st2" points="272.2,50.6 272,50.3 275.7,48.2 272.1,45.8 272.3,45.5 276.2,48.3 	"/>
	<polygon class="st2" points="276.6,51.6 276.4,51.4 280.1,48 275.6,46 275.7,45.7 280.7,47.9 	"/>
	<path class="st2" d="M280.9,51.3l-0.2-0.2l3.2-3.5c-0.9-0.3-3.7-1.4-4-1.6l0.2-0.3c0.2,0.1,2.6,1.1,4.2,1.7l0.2,0.1L280.9,51.3z"/>
	<polygon class="st2" points="285.2,50.7 284.9,50.6 288,46.2 283.4,45.4 283.4,45.1 288.5,46 	"/>
	<path class="st3" d="M339,140.2c1.5,0,2.8,1.7,2.8,2.6c0,0.9-0.6,2.4-1.6,2.3c-1-0.1-2.2-1-2-2c0.2-1,1.1-0.8,1.5-0.5
		c0.4,0.2,0.5,0.6,0.3,0.8c-0.2,0.2-0.6-0.1-0.6,0.2c0,0.3,0.7,1.3,1.4,0.4c0.7-0.9,0.3-1.6-0.3-2.2c-0.6-0.5-1.9-0.6-2.4-0.2
		c-0.5,0.4-0.8,2-0.6,2.5c0.2,0.4,0.8,0.9,0.9,1.4c0,0.5-0.7,1.3-0.1,1.6c0.6,0.3,1.3,0.3,2.2-0.6c1-0.9,2-0.3,2.4,0.1
		c0.4,0.4,0.7,1.1,0,1.6c-0.7,0.5-1.2-0.2-1-0.3c0.2-0.2,0.4-0.7,0-0.7c-0.4,0-1.3,0.6-2,1.1c-0.6,0.6-2.1,0.9-3.1,0
		c-1.1-0.9-0.6-1.9-0.3-2.2c0.3-0.2,0.9-0.6,0.8-1c-0.1-0.4-0.7-1.4-0.5-2.2C337,142.1,337.7,140.3,339,140.2"/>
	<path class="st3" d="M345,147.9c0.5,0.4,0.4,1.3-0.1,1.9c-0.5,0.6-1.6,0.9-2.3,0.4c-0.6-0.5,0-0.7,0.4-0.8c0.4-0.1,1-0.4,1-0.9
		C344.1,148.1,344.5,147.6,345,147.9"/>
	<path class="st3" d="M340.8,149.3c0.6,1,2,1.9,2.6,1.8c0.6-0.1,3.5-0.8,4.7-0.6c1.2,0.2,3.2,2,2.9,3.3c-0.3,1.3-2.3,2.9-3.2,2.6
		c-0.9-0.3-2.3-0.8-2.5-1.8c-0.2-1,1.2-2.3,2.1-1.8c0.9,0.5,0.6,0.6,0.1,0.6c-0.5,0-0.7-0.4-1,0c-0.3,0.4-0.4,0.7-0.1,1.2
		c0.4,0.4,1.5,0.7,1.9,0.3c0.5-0.5,0.9-1.4,0.8-1.8c-0.2-0.5-0.2-1-1.1-1.2c-0.9-0.2-1.7,0.2-2.4,0.7c-0.7,0.5-1.8,1.1-2.7,0.8
		c-0.9-0.2-2.9-1.3-3.6-1.9c-0.7-0.6-1-0.9-1.2-1.3c-0.3-0.4,0.5-0.4,1-0.4C339.6,149.6,340.3,149.4,340.8,149.3"/>
	<path class="st3" d="M354.1,150.2c0.9,0.2,1.1,1.4,1.1,2c-0.1,0.5-1,3.1-1.7,3.6c-0.7,0.5-1.5,1-2.1,0.9c-0.7-0.1-1.3-0.1-1.6-0.1
		c-0.3,0-0.2-0.3,0.2-0.6c0.4-0.2,1.1-0.9,1.4-1.3c0.4,0.2,2.2-1.2,2.4-1.9c0.3-0.7-0.2-0.9-0.3-0.9c-0.6,0.3-1.3-0.6-0.8-1
		C353,150.3,353.6,150.1,354.1,150.2"/>
	<path class="st3" d="M357,154.1c0.7,0.6,0.3,2-0.2,2.6c-0.5,0.5-1.9,1.3-2.5,1.5c-0.6,0.2-1.4,0.3-1.9,0.1
		c-0.5-0.1-1.6-0.3-1.4-0.7c0.6-0.3,1.3-0.5,1.8-0.7c0.6,0.1,1.8,0.1,2.3-0.2c0.5-0.3,1.3-0.7,1.2-1.2c-0.1-0.5-0.5-0.2-0.7-0.6
		c-0.2-0.4-0.1-0.9,0.3-1.2C356.2,153.5,356.6,153.7,357,154.1"/>
	<path class="st3" d="M267.7,38.2c-0.2-2,4.5-2.3,6.1-2.9c1.6-0.6,5.1-1.3,6.3-1.3c1.2,1.3,2.9,4.7,4.5,5c1.6,0.3,8.9-2.8,11.3-7.2
		c2.4-4.5,5.1-6,5.4-7.2c-0.9-0.8-2.6-1.8-2.4-2.6c0.3-0.8,2.4-0.8,3.3-0.4c0.9,0.4,2.8-1.1,3.7-1.6c1.5-0.5,2.4,0.6,1.4,1.9
		c-1,1.3-2.5,2.3-3.3,3.8c-0.8,1.5-2.4,6.7-5.3,9.4c-2.9,2.8-12.3,6.5-14.2,6.4c-1.9-0.1-3.2-1.4-3.6-2.5c-0.4-1.2-1.6-3.4-2.9-2.9
		c-1.2,0.5-3.7,0.9-4,2c-0.4,1.1,0.8,1.8,2.1,1.5c1.3-0.3,1.5-2.3,2.2-1.8c0.8,0.5,2,1.6,1.3,2.8c-0.7,1.2-2.6,1.5-4.1,1.3
		C274,41.8,267.9,40.3,267.7,38.2"/>
	<path class="st3" d="M282.5,33.2c0.7-1.5,3.8-2.2,5.3-2.4c1.6-0.2,1.5,1.7,0.9,2.5c-0.6,0.9-1.8,1.2-2.4,1.1
		c-0.5-0.1-0.5-1.4,0.8-1.3c0.7-1.2-1-0.8-1.7-0.5c-0.6,0.2-1.7,1.7-1,2.5c0.7,0.8,2.1,1.3,3,0.8c0.9-0.6,3-2.3,3.3-3.3
		c0.3-1.1-0.2-2.6,0.6-3.1c0.8-0.5,2.9-1.6,3.9-2.3c1.5-0.1,0.8,0.5,0.3,1.5c-0.5,1-2,4.4-3.4,5.6c-1.4,1.1-5,3.5-6,3.4
		c-1-0.1-2.6-0.6-3-1.6C282.6,35.2,282.2,34.1,282.5,33.2"/>
	<path class="st2" d="M312.3,123.4c3.3,0.1,4.6,0.7,5.7,1.4c1.3,0.7-2,1.1-3,1.9c-1.5,1.2-0.8,3.2-1.7,3.4c-0.9,0.2-2.8-2.5-4.2-3
		c-1.4-0.6-3.4-0.2-4.8,0.9c-1.4,1.1-2,3.2-1.1,4.1c0.9,0.8,2.4,1.4,3.3,0.4c0.9-1,1.3-1.1,0.9-2.1c-0.2-0.6-2-1.1-1.6-0.4
		c0.9,1.6-0.8,1.9-1.4,1.1c-0.6-0.8,1.1-3.1,2.3-2.9c1.2,0.2,3.8,2.3,2.7,4.4c-1.1,2.1-3.4,2.8-5,2.4c-1.6-0.4-5-2.8-3.9-5.4
		c1-2.6,4.5-4.6,6.7-5.2C309.2,123.5,310.5,123.4,312.3,123.4"/>
	<path class="st2" d="M360.1,153.8c1.3,0.2,1.4,6,0.9,9c-0.5,3-1.9,5.9-3.7,6.9c-1.9,1.1-4.1,1.9-5.6,0.1c-1.5-1.8-0.8-3.7-0.1-5.1
		c0.7-1.4,2.1-2.1,3.6-1.3c1.5,0.7,2,2.1,1.5,2.9c-0.5,0.8-2,1-2-0.6c0-1.6-1.4-0.3-1.4,0.7c-0.1,1,1.5,2.5,2.7,1.9
		c1.1-0.7,2.1-2.5,1.9-4c-0.2-1.5-0.6-2.8-1.5-3.8c-1.2-1.4,0.4-2.3,1.3-3.2C359.3,155.8,359,153.7,360.1,153.8"/>
	<path class="st3" d="M337.3,138.4c-0.6-1.4-2.7-2-3.5-1.6c-0.8,0.4-1.9,1.5-1.4,2.4c0.5,0.9,1.8,1.6,2.6,1c0.8-0.6,0.3-1.3-0.1-1.6
		c-0.4-0.3-0.7-0.3-0.8,0c-0.1,0.3,0.3,0.5,0,0.6c-0.3,0.1-1.4-0.1-0.9-1.2c0.5-1,1.4-0.9,2.1-0.6c0.7,0.3,1.3,1.5,1.1,2.1
		c-0.2,0.6-1.5,1.5-2,1.6c-0.5,0-1.1-0.4-1.6-0.2c-0.5,0.2-0.9,1.1-1.4,0.8c-0.5-0.4-0.8-1.1-0.4-2.3c0.4-1.3-0.5-2-1.1-2.2
		c-0.5-0.2-1.3-0.3-1.5,0.6c-0.2,0.9,0.7,1.1,0.7,0.8c0.1-0.3,0.5-0.7,0.6-0.3c0.1,0.4,0,1.5-0.2,2.3c-0.2,0.8,0,2.3,1.3,2.9
		c1.2,0.6,2-0.2,2.1-0.6c0.1-0.4,0.2-1.1,0.6-1.1c0.4-0.1,1.5,0.1,2.2-0.4C336.4,141,337.8,139.5,337.3,138.4"/>
	<path class="st3" d="M328,136.1c-0.5-0.3-1.4,0.2-1.7,0.8c-0.3,0.7-0.2,1.9,0.6,2.2c0.7,0.4,0.7-0.2,0.6-0.7
		c-0.1-0.5,0-1.1,0.3-1.3C328.2,136.9,328.6,136.4,328,136.1"/>
	<path class="st3" d="M328.5,140.5c-1.2-0.2-2.5-1.1-2.6-1.7c-0.1-0.6-0.6-3.6-1.3-4.6c-0.7-1-3.1-2.2-4.1-1.4c-1,0.8-1.7,3.3-1.1,4
		c0.6,0.7,1.7,1.8,2.6,1.6c1-0.2,1.7-2,0.8-2.7c-0.8-0.7-0.8-0.3-0.6,0.1c0.2,0.4,0.6,0.5,0.4,0.9c-0.2,0.5-0.5,0.7-1,0.5
		c-0.5-0.2-1.2-1.1-1-1.7c0.2-0.7,0.9-1.4,1.4-1.4c0.6-0.1,1-0.2,1.5,0.5c0.5,0.8,0.5,1.7,0.3,2.6c-0.2,0.9-0.3,2.1,0.3,2.8
		c0.6,0.7,2.4,2.2,3.1,2.6c0.8,0.4,1.2,0.5,1.7,0.6c0.4,0.1,0.2-0.6,0-1.1C328.6,141.7,328.6,141.1,328.5,140.5"/>
	<path class="st3" d="M321.6,129.3c-0.6-0.7-1.7-0.5-2.2-0.2c-0.5,0.3-1.6,1.3-1.8,2.2c-0.2,0.9-0.3,1.7,0.1,2.3
		c0.4,0.6,0.6,1.2,0.7,1.4c0.2,0.3,0.4,0,0.4-0.4c0.1-0.4,0.4-1.4,0.7-1.8c-0.4-0.3-0.6-1.7-0.1-2.2c0.5-0.5,0.9-0.2,1-0.1
		c-0.1,0.7,1,0.9,1.2,0.4C321.8,130.4,321.9,129.7,321.6,129.3"/>
	<path class="st3" d="M317.6,127.4c-0.8-0.4-2,0.5-2.2,1.2c-0.3,0.7-0.4,2.2-0.3,2.9c0.1,0.7,0.3,1.4,0.7,1.8
		c0.3,0.4,0.9,1.4,1.2,1.1c0-0.7-0.1-1.4,0-1.9c-0.3-0.5-0.8-1.7-0.7-2.2c0.1-0.6,0.1-1.5,0.6-1.6c0.5-0.1,0.4,0.4,0.8,0.5
		c0.4,0,0.9-0.2,0.9-0.7C318.5,127.8,318.2,127.6,317.6,127.4"/>
	<path class="st2" d="M306.8,26.6c1.6-3.9,5-7.8,9-8.6c4-0.8,10.6-1.4,16.3,2.7c-8-0.4-10.7-0.5-13,0
		C316.7,21.1,309.8,24,306.8,26.6"/>
	<path class="st2" d="M233.6,72.7c-0.5-1.4,0.3-5.9,0.6-8.2c0.3-2.3,1.8-5.2,3.6-5.4c1.8-0.2,4.6,0.9,5.1,2.2
		c0.5,1.3,0.4,3.6-0.9,4.5c-1.4,0.9-2.4,1.2-3.7,0.4c-1.3-0.8-1.4-1.7-1-2.6c0.4-1,1.9-0.5,1.9,0.1c0,0.8,0,1.8,1.4,1.2
		c1.1-0.5,1.8-1.7,0.4-2.6c-1.3-0.9-2.1-1.4-3.5-1c-1,0.3-2,3.5-1.8,4.5c0.3,1.5,1.6,3.2,2.7,3.4c1.1,0.2,1.6,0.1,1.3,0.8
		c-0.3,0.7-1.1,0.9-2.1,1.5c-1,0.6-2.7,1.5-3.1,1.8C234.2,73.3,233.8,73.2,233.6,72.7"/>
	<path class="st3" d="M247.5,46.2c0.7,0.9,0.8,2.4,0.6,3.3c-0.2,0.9-0.6,0.5-1.7,0.4c-1.1-0.1-3.6,0.8-4.3,1.6
		c-0.7,0.8-2.2,3.4-1.1,4.2c1.1,0.7,1.6,0.2,2.3,0c0.6-0.2,0.6-0.8,0.4-1.3c-0.2-0.5-0.4,0.1-1.2-0.5c-0.8-0.5,0.2-1.3,1-1.5
		c0.7-0.2,2.2,0.5,2.6,1.6c0.4,1.1-0.5,3.2-1.3,3.7c-0.8,0.5-2.1,1.1-4,0.4c-1.9-0.7-2.7-1.7-2.6-3.4c0.1-1.8,1.9-3.9,2.7-4.8
		c0.8-0.8,2.7-2.8,3.8-3.3C245.6,46.3,246.6,45,247.5,46.2"/>
	<path class="st2" d="M248.5,66.4c-2-2.3-2.5-4.9-2.2-7.4c0.4-3.9,2.5-13.3,10.8-17c4.5-2,10.7-1.6,14.7,0.5
		c-7.5-0.4-16.4,1.8-19.6,8.1C248.8,56.9,248.1,62.1,248.5,66.4"/>
	<path class="st2" d="M249,47c-0.9-5.9,6.5-8.9,8.1-9.4c1.9-0.6,6.5-0.4,9.7,1.7c-3.7-0.1-8.7,0-11.7,1.5
		C253,41.8,250.6,44.1,249,47"/>
	<path class="st3" d="M343.3,138.7c-0.2-0.1-0.4-0.3-0.6-0.5c0-0.3-0.1-1.1-0.4-1c-0.2,0.1-1,0.6-1.1,0.9c-0.1,0.3-0.4,0.3-0.6,0.4
		c-0.2,0.1-1-0.2-1.4-0.2c-0.3,0-0.4-0.1-0.6-0.1c-0.2-0.1-0.6-0.6-0.7-0.8c-0.1-0.2,0-0.3,0.3-0.3c0.2,0,1.3,0,1.5,0
		c0.3,0,0.9,0.4,1,0.3c0.2-0.2-0.4-0.4-0.7-0.6c-0.3-0.2-0.9-0.8-0.9-1.3c0-0.5-0.1-1.5,0.1-1.9c-0.1-0.4-0.3-0.2-0.6-0.2
		c-0.3,0-0.7-0.1-0.9-0.2c-0.2-0.1-0.4-0.4-0.4-0.6c0.2-0.1,0.6,0,0.8,0c0.2-0.1,0.4,0,0.6-0.1c0.2,0.1,0.6,0.3,0.7,0.3
		c0.1-0.2,0.1-0.2,0.2-0.3c0-0.3-0.1-0.3,0-0.4c0.2,0.1,0.2,0.3,0.4,0.2c0.1,0,0.2,0,0.3,0c0-0.2,0.1-0.3,0.2-0.4
		c0.1-0.1,0-0.3-0.1-0.5c0-0.2,0.1-0.5,0.1-0.7c0-0.2-0.1-0.6,0.1-0.6c0.1,0,0.4,0.2,0.5,0.4c0.1,0.1,0.4,0.7,0.4,0.9
		c0,0.2-0.3,0.8-0.4,1c0.1,0.1,0.4,0.1,0.7,0.2c0.3,0.1,0.7,0.2,1.1,0.7c0.3,0.5,0.7,0.9,0.8,1.2c0.1,0.3,0.1,0.5,0,0.7
		c0.2-0.2,0.4-0.4,0.4-0.6c0-0.2,0-0.4,0.3-0.7c0.2-0.3,0.4-0.8,0.6-1c0.2-0.1,0.3,0,0.4,0.3c0.1,0.4,0,1-0.1,1.4
		c-0.1,0.4-0.5,1-0.6,1.1c-0.2,0.1-0.5,0.2-0.9,0.2c0,0.3-0.5,0.8-0.4,1c0.1,0.3,0.2,0.3,0.4,0.4c0.2,0.1,0.3,0.3,0.3,0.6
		c0,0.3,0,0.6-0.1,0.7C343.7,138.9,343.5,138.7,343.3,138.7 M343.2,135.3c0.1-0.6-0.3-1.2-0.6-1.6c-0.3-0.4-1-0.7-1.6-0.7
		c-0.5,0-1,0.4-1.1,0.8c-0.1,0.4-0.2,1.3,0.2,2c0.3,0.7,1,1.2,1.4,1.1C342.8,136.8,343.1,135.9,343.2,135.3"/>
	<path class="st3" d="M342.2,137c-0.2-0.3-0.4-0.6-0.6-1c-0.1-0.2-0.3-0.4-0.4-0.7c-0.2-0.3-0.3-0.6-0.4-0.9c0-0.2-0.1-0.4-0.2-0.6
		c0-0.1-0.1-0.1-0.2-0.2c-0.2-0.2-0.4-0.4-0.5-0.7l0.9-0.3c0,0.1,0.2,0.2,0.3,0.4c0.1,0.1,0.2,0.2,0.3,0.3c0.2,0.3,0.3,0.6,0.3,0.9
		c0.1,0.3,0.1,0.4,0.2,0.6c0.1,0.2,0.3,0.4,0.4,0.7c0.2,0.3,0.4,0.6,0.6,0.9L342.2,137z"/>
	<path class="st3" d="M255.8,82c0.7-0.1,1.4,0.6,2.1,0.4c0.7-0.2,1-1.1,1.4-1.5c0.5-0.5,1.6,2.4,1.4,2.9c-0.2,0.3-0.2-0.4-0.7-1
		c-0.3-0.3-0.4-0.6-0.7-0.6c-0.7,0.6-0.6,1.4-0.2,2.2c0.3,0.7,0.5,0.8,0.8,1.2c0.6,0.6,0,0.8-0.8,0c-0.3,0.5-1.2,1.3-0.7,0.4
		c0.2-0.6-0.2-2.4-0.7-2.8c-0.5-0.4-0.9-0.1-0.8,0.2c0.1,0.4,1.3,2,0.7,1.7C256.8,84.7,255.1,82.1,255.8,82"/>
	<path class="st3" d="M258,81.5c0.1,0.3,0.1,0.6,0,0.6c-0.2,0.1-0.4-0.1-0.5-0.4c-0.1-0.3-0.1-0.6,0-0.6
		C257.7,81,257.9,81.2,258,81.5"/>
	<polygon class="st3" points="338.6,99.6 338.3,95.1 338.8,95.1 339.1,99.6 	"/>
	<polygon class="st3" points="338.7,99.8 335.1,97 335.4,96.7 339,99.4 	"/>
	<polygon class="st3" points="338.6,96.8 334.8,94.2 335,93.8 338.8,96.4 	"/>
	<polygon class="st3" points="336.1,97.5 336.3,93.2 336.7,93.2 336.6,97.6 	"/>
	<polygon class="st3" points="341.8,106.9 341.5,102.4 341.9,102.4 342.3,106.9 	"/>
	<polygon class="st3" points="341.9,107.1 338.3,104.3 338.6,103.9 342.2,106.7 	"/>
	<polygon class="st3" points="341.7,104.1 337.9,101.5 338.2,101.1 342,103.7 	"/>
	<polygon class="st3" points="339.3,104.8 339.4,100.5 339.9,100.5 339.7,104.9 	"/>
	<polygon class="st3" points="345.2,114 344.9,109.5 345.3,109.5 345.6,113.9 	"/>
	<polygon class="st3" points="345.3,114.1 341.7,111.4 342,111 345.6,113.8 	"/>
	<polygon class="st3" points="345.1,111.2 341.4,108.6 341.6,108.2 345.4,110.8 	"/>
	<polygon class="st3" points="342.7,111.9 342.9,107.6 343.3,107.6 343.2,111.9 	"/>
	<path class="st2" d="M329.2,91.2c-1-1.3,2.3,2,3.6,2.3c1,0.9,2.6,4.4,2.8,5.6c-0.8,0.9-1.4,0-1.8-0.8c-0.3-0.9-0.2-1.9-0.8-1.9
		c-0.6,0.1-0.5,1.5,0,2.6c0.4,0.9,1,1.5,2.5,2c1.5,1,1.7,4.3,2.1,5.2c0.3,1-1.9-0.2-1.9-0.8c0-0.6-0.3-2.3-0.8-2.2
		c-0.5,0.1-0.4,2.6,0.2,3.5c0.7,0.9,1.7,1.1,2.4,1.5c0.7,0.6,1.2,3.6,1.2,4.3c-0.6,0.5-1.7-0.7-1.6-1.4c0.1-0.7-0.4-1.5-0.9-1.1
		c-0.5,0.4-0.1,2.5,0.2,3c0.4,0.5,1.3,0.9,2.2,1.3c0.6,0.8,0.5,3.2,0.5,4.1c-0.5,0.6-1.3-0.4-1.4-0.7c-0.1-0.3,0.1-0.9,0.1-1.5
		c0-0.5-1.1-0.4-1.3,0.2c-0.2,0.6,0.6,2.6,1.6,3.1c1,0.5,0.7,3.5,0.5,4.2c-0.2,0.6-1.4-0.2-1.1-0.8c0.2-0.6,0.4-2-0.3-1.8
		c-0.7,0.2-1.1,2.3-1,3c0.1,0.7,1,0.9,1.6,1.7c0.6,0.8-0.2,2.8-0.6,3.7c-0.3,0.9-1.3,0.4-1.1-0.2c0.2-0.8,0.2-1.1,0.5-1.5
		c0.2-0.4,0.2-0.8-0.4-1.1c-0.8-0.4-0.7,0.8-1.6,1.3c-0.4,0.3-1,0.7-0.7,0.1c1.6-3.2,1.7-3.4,1.5-8.6c-0.1-2.9-0.8-11.2-3.1-18.9
		C332,98.6,329.8,91.9,329.2,91.2"/>
	<path class="st2" d="M345,117.3c-0.5,2.3-0.5,11.5-0.4,14.8c-2.5-2.2-4.7-3.9-4.7-6.4c0-1.5-0.2-0.9,0.2-3.3
		c0.4-2.5,0.8-4.2,0.3-6.9c-0.1-0.3-0.3-2.4,0.1-2.9c0.6-0.7,1.5,0.9,1.6,1.3c0.3,1,1.1,1.3,1.2,1.9c0.1,1.3-2.7,3.8-1.3,11.1
		c1.4-0.2,0.3-5.6,0.9-7.3C343.5,117.8,345.4,115.2,345,117.3"/>
	<path class="st2" d="M349.9,142.1c1.4,0.5,3.1,2.1,4.7,3.8c-0.5,1.7-4,1.3-5.4,0.3c-1.3-0.9-1.5-3.9-1.5-4.7
		c-0.5-0.5-1.9-1.5-2.1,0.2c-0.3,1.7,1.2,5.2,2.5,6c1.4,0.9,5.1,1,7.3-0.8c1.7,0.9,3.8,3.9,4.2,5.8c-1.3,0.2-2.5-0.1-3.3-0.5
		c0.5-0.9,0.1-4.5-0.8-4.3c-1.2,0.8-5.3,2.2-7.6,0.7c-2.3-1.5-3.3-4.1-3.2-5.9c0.1-1.8,0.9-4,1.3-4.6c1,1.1,2.2,2.4,2.7,2.8
		c-0.3,1-0.1,4.6,1.3,5c1.5,0.4,2.9,0.2,3.2-0.5c0-0.3-0.7-0.7-0.9-1.1c-0.7,0.5-1.4,0.6-2.1,0.1
		C349.7,143.9,349.4,142.7,349.9,142.1"/>
	<path class="st2" d="M331.4,129.4c-1.2-0.6-3.6-1.1-5.8-1.7c-1,1.4,1.1,4.2,2.6,4.8c1.4,0.6,4.1-1.2,4.7-1.7
		c0.7,0.1,2.1,0.4,0.9,1.6c-1.2,1.2-4.7,1.9-6.1,1.3c-1.6-0.7-3.6-2-3.3-6.5c-1.7-0.9-3.4-1.4-5.2-1.7c-0.3,1-0.4,2.3,0.4,2.8
		c0.4-0.9,3.6-1.2,4-0.4c0,1.4,1.2,5.4,3.5,6.4c2.4,1,5,0.5,6.4-0.7c1.4-1.1,3-2.3,3.3-3c-1.4-0.2-3.6-0.8-4.2-1
		c-0.7,0.8-3.5,3-4.6,2c-1.1-1-1.7-2.3-1.3-2.9c0.2-0.1,0.8,0.4,1.3,0.4c-0.1,0.8,0.3,1.3,1.1,1.6
		C329.8,130.8,331.1,130.2,331.4,129.4"/>
	<path class="st2" d="M475.9,74.2c0.8,0.3-0.5,2-1.1,3.1c-0.6,1.1-0.8,1.9-1.7,2.4c-0.9,0.5-4.2-0.8-6.5,0.2c-2.3,1-2.5,4.3-1.4,5.1
		c1.1,0.9,3.1,1.1,4-0.3c0.9-1.4-1.1-1.4-1.2-1.4c-0.2,0.3-0.4,1.3-1.1,1.1c-0.6-0.1-1-2.2,0.3-2.6c1.3-0.4,2.1-0.8,4.2-0.4
		c0.2,0,1,0.1,1.3,0.3c-0.1,0.4-0.6,1-1,2.2c-0.5,0.9-1.2,2-2,2.6c-1,0.9-3,2.1-4.8,1.4c-1.9-0.8-3-2.9-2.9-4.3
		c0-1.3,0.8-4.7,2.6-6.1c1.7-1.4,6.2-1.3,7.4-1.7C474,75.2,475,74,475.9,74.2"/>
</g>
<g>
	<path class="st1" d="M367,167.8v-8c0-1.6,1-2.4,3.1-2.4c2.1,0,3.1,0.8,3.1,2.4v8c0,0.7-0.3,1.3-0.9,1.7c-0.6,0.4-1.3,0.6-2.2,0.6
		C368,170,367,169.3,367,167.8z M370.6,167.9v-8.5c0-0.2-0.1-0.4-0.4-0.4c-0.3,0-0.5,0.1-0.5,0.4v8.5c0,0.2,0.2,0.4,0.5,0.4
		C370.4,168.3,370.6,168.1,370.6,167.9z"/>
	<path class="st1" d="M375.6,157.5h2.7v10.4c0,0.2,0.2,0.4,0.5,0.4c0.3,0,0.5-0.1,0.5-0.4v-10.4h2.7v10.3c0,0.7-0.3,1.3-0.9,1.7
		c-0.6,0.4-1.4,0.6-2.3,0.6c-0.9,0-1.6-0.2-2.2-0.5c-0.6-0.4-0.9-0.9-0.9-1.7V157.5z"/>
	<path class="st1" d="M390.1,159.1h-1.5v10.8h-2.7v-10.8h-1.5v-1.6h5.8V159.1z"/>
	<path class="st1" d="M399.2,169.9h-2.7c-0.3-0.4-0.4-1.4-0.4-3v0l0-0.7c0-1,0-1.6,0-1.6c0-0.4-0.3-0.6-0.8-0.6v6h-2.7v-12.4h3.4
		c0.8,0,1.4,0.2,2,0.5c0.6,0.4,0.9,0.9,0.9,1.7v1.5c0,1-0.6,1.6-1.7,2c1.1,0.3,1.7,0.9,1.7,2.1l0,1.4
		C398.7,168.5,398.9,169.6,399.2,169.9z M396.1,161.8v-2c0-0.4-0.3-0.7-0.8-0.7v3.4C395.8,162.4,396.1,162.2,396.1,161.8z"/>
	<path class="st1" d="M404.1,169.9h-2.7v-12.4h2.7V169.9z"/>
	<path class="st1" d="M412.5,169.9h-1.3l-0.4-0.7c-0.6,0.5-1.2,0.8-1.9,0.8c-0.7,0-1.2-0.2-1.7-0.5c-0.5-0.3-0.7-0.9-0.7-1.6v-8.1
		c0-1.6,1-2.4,3.1-2.4c2,0,2.9,0.7,2.9,2.2v2.3H410v-2.5c0-0.2-0.1-0.3-0.4-0.3c-0.3,0-0.4,0.1-0.4,0.3v8.6c0,0.2,0.1,0.3,0.4,0.3
		c0.3,0,0.4-0.1,0.4-0.3v-2.3h-0.6v-1.9h3V169.9z"/>
	<path class="st1" d="M420.9,169.9h-1.3l-0.4-0.7c-0.6,0.5-1.2,0.8-1.9,0.8c-0.7,0-1.2-0.2-1.7-0.5c-0.5-0.3-0.7-0.9-0.7-1.6v-8.1
		c0-1.6,1-2.4,3.1-2.4c2,0,2.9,0.7,2.9,2.2v2.3h-2.5v-2.5c0-0.2-0.1-0.3-0.4-0.3c-0.3,0-0.4,0.1-0.4,0.3v8.6c0,0.2,0.1,0.3,0.4,0.3
		c0.3,0,0.4-0.1,0.4-0.3v-2.3h-0.6v-1.9h3V169.9z"/>
	<path class="st1" d="M428.7,169.9h-5.3v-12.4h5.3v1.6h-2.6v3.4h2.3v1.5h-2.3v4.4h2.6V169.9z"/>
	<path class="st1" d="M437.7,169.9H435c-0.3-0.4-0.4-1.4-0.4-3v0l0-0.7c0-1,0-1.6,0-1.6c0-0.4-0.3-0.6-0.8-0.6v6H431v-12.4h3.4
		c0.8,0,1.4,0.2,2,0.5c0.6,0.4,0.9,0.9,0.9,1.7v1.5c0,1-0.6,1.6-1.7,2c1.1,0.3,1.7,0.9,1.7,2.1l0,1.4
		C437.2,168.5,437.4,169.6,437.7,169.9z M434.6,161.8v-2c0-0.4-0.3-0.7-0.8-0.7v3.4C434.3,162.4,434.6,162.2,434.6,161.8z"/>
	<path class="st1" d="M450.9,161.8h-2.5v-2.5c0-0.2-0.1-0.3-0.4-0.3c-0.3,0-0.4,0.1-0.4,0.3v8.6c0,0.2,0.1,0.3,0.4,0.3
		c0.3,0,0.4-0.1,0.4-0.3v-3.1h2.5v3.2c0,0.6-0.3,1.1-0.9,1.4c-0.6,0.4-1.2,0.5-2,0.5c-2.1,0-3.2-0.7-3.2-2.2v-8
		c0-1.6,1.1-2.4,3.2-2.4c1.9,0,2.8,0.7,2.8,2.2V161.8z"/>
	<path class="st1" d="M460.7,169.9H458l-0.5-3.3h-1.2l-0.5,3.3h-2.7l2-12.4h3.5L460.7,169.9z M457.3,164.8l-0.4-3.7l-0.4,3.7H457.3z
		"/>
	<path class="st1" d="M469.9,169.9h-2.8l-1.9-6.6v6.6H463v-12.4h3.1l1.6,5.7v-5.7h2.3V169.9z"/>
	<path class="st1" d="M472.3,167.8v-8c0-1.6,1-2.4,3.1-2.4c2.1,0,3.1,0.8,3.1,2.4v8c0,0.7-0.3,1.3-0.9,1.7c-0.6,0.4-1.3,0.6-2.2,0.6
		C473.4,170,472.3,169.3,472.3,167.8z M475.9,167.9v-8.5c0-0.2-0.1-0.4-0.4-0.4c-0.3,0-0.5,0.1-0.5,0.4v8.5c0,0.2,0.2,0.4,0.5,0.4
		C475.7,168.3,475.9,168.1,475.9,167.9z"/>
	<path class="st1" d="M486.3,169.9H481v-12.4h5.3v1.6h-2.6v3.4h2.3v1.5h-2.3v4.4h2.6V169.9z"/>
	<path class="st1" d="M499.6,161.8h-2.5v-2.5c0-0.2-0.1-0.3-0.4-0.3c-0.3,0-0.4,0.1-0.4,0.3v8.6c0,0.2,0.1,0.3,0.4,0.3
		c0.3,0,0.4-0.1,0.4-0.3v-3.1h2.5v3.2c0,0.6-0.3,1.1-0.9,1.4c-0.6,0.4-1.2,0.5-2,0.5c-2.1,0-3.2-0.7-3.2-2.2v-8
		c0-1.6,1.1-2.4,3.2-2.4c1.9,0,2.8,0.7,2.8,2.2V161.8z"/>
	<path class="st1" d="M507.2,169.9H502v-12.4h2.7v10.8h2.4V169.9z"/>
	<path class="st1" d="M509.4,157.5h2.7v10.4c0,0.2,0.2,0.4,0.5,0.4c0.3,0,0.5-0.1,0.5-0.4v-10.4h2.7v10.3c0,0.7-0.3,1.3-0.9,1.7
		c-0.6,0.4-1.4,0.6-2.3,0.6c-0.9,0-1.6-0.2-2.2-0.5c-0.6-0.4-0.9-0.9-0.9-1.7V157.5z"/>
	<path class="st1" d="M518.2,169.9v-12.4h3.2c0.8,0,1.4,0.2,2,0.5c0.6,0.3,0.8,0.9,0.8,1.7v1.7c0,0.9-0.5,1.5-1.6,1.8
		c1.1,0.3,1.7,0.9,1.7,1.8v2.4c0,0.8-0.3,1.4-0.8,1.8c-0.5,0.4-1.2,0.6-1.9,0.6H518.2z M521.7,161.8v-2.1c0-0.4-0.3-0.7-0.8-0.7v3.4
		C521.4,162.5,521.7,162.3,521.7,161.8z M521.7,167.6v-3.1c0-0.4-0.3-0.6-0.8-0.6v4.5C521.4,168.3,521.7,168.1,521.7,167.6z"/>
</g>
</svg>
